<svg xmlns="http://www.w3.org/2000/svg" width="137" height="22" viewBox="0 0 137 22">
<rect x="0.5" y="0.5" width="136" height="21" rx="3" style="fill:#231f20;stroke:#fceb09"/><path d="M130.19,5a.83.83,0,0,0,.1.41.92.92,0,0,0,.31.31.78.78,0,0,0,.41.1.77.77,0,0,0,.4-.1.92.92,0,0,0,.31-.31.89.89,0,0,0,0-.82.89.89,0,0,0-.31-.3.77.77,0,0,0-.4-.11.78.78,0,0,0-.41.11.89.89,0,0,0-.31.3.83.83,0,0,0-.1.41M130,5a1,1,0,0,1,.13-.49,1.09,1.09,0,0,1,.37-.37A1,1,0,0,1,131,4a.92.92,0,0,1,.49.13,1.09,1.09,0,0,1,.37.37,1,1,0,0,1,0,1,1,1,0,0,1-.37.37,1,1,0,0,1-1,0,1.19,1.19,0,0,1-.37-.37A1.09,1.09,0,0,1,130,5" style="fill:#fdec0a;fill-rule:evenodd"/><path d="M130.91,5h0a.21.21,0,0,0,.12,0,.19.19,0,0,0,0-.12.16.16,0,0,0,0-.11.19.19,0,0,0-.12,0h0Zm.44-.18a.25.25,0,0,1-.16.26l.2.45h-.29L131,5.12h-.05V5.5h-.26v-1h.3a.47.47,0,0,1,.3.07.28.28,0,0,1,.1.24Z" style="fill:#fdec0a;fill-rule:evenodd"/><polygon points="12.85 4 11.13 9.13 9.41 4 6.99 4 6.99 18 9.33 18 9.33 9.54 11.11 14.85 11.15 14.85 12.93 9.54 12.93 18 15.27 18 15.27 4 12.85 4" style="fill:#fceb09;fill-rule:evenodd"/><path d="M21.93,11.37v-.72C21.93,7,21.43,6,20.69,6s-1.24,1-1.24,4.61v.72c0,3.6.5,4.6,1.24,4.6s1.24-1,1.24-4.6m-5,0v-.72C17,6,18.47,3.8,20.69,3.8S24.41,6,24.41,10.65v.72c0,4.62-1.5,6.84-3.72,6.84S17,16,17,11.37" style="fill:#fceb09;fill-rule:evenodd"/><path d="M28.67,10.92c1.06,0,1.84-.61,1.84-2.26V8.5c0-1.76-.84-2.22-1.9-2.22h-.06v4.64ZM26.11,4h2.52C31.13,4,33,5.32,33,8.46v.18a4.37,4.37,0,0,1-1.64,3.69L33.19,18h-2.6L29,13.13h-.46V18H26.11Z" style="fill:#fceb09;fill-rule:evenodd"/><path d="M34.33,11.25v-.48c0-4.53,1.92-6.87,4.68-6.87a4.26,4.26,0,0,1,1.86.4V6.84a3.39,3.39,0,0,0-1.78-.6c-1.4,0-2.28,1.4-2.28,4.42v.69c0,3.66,1.08,4.5,2.08,4.5l.22,0V12.24h-1.2V10.06h3.42v7.45a6,6,0,0,1-2.54.6c-2.44,0-4.46-2-4.46-6.86" style="fill:#fceb09;fill-rule:evenodd"/><path d="M47.13,13,46.39,8.4,45.63,13ZM45.13,4h2.6L50.39,18H48l-.46-2.78H45.27L44.83,18H42.47Z" style="fill:#fceb09;fill-rule:evenodd"/><polygon points="51.63 4 53.91 4 56.37 11.09 56.37 4 58.75 4 58.75 18 56.59 18 54.01 10.59 54.01 18 51.63 18 51.63 4" style="fill:#fceb09;fill-rule:evenodd"/><path d="M67.65,9.1A2.77,2.77,0,0,0,68.51,7V6.88c0-.68-.32-1.12-.78-1.12S67,6.2,67,6.8V7a4.72,4.72,0,0,0,.7,2.1m1.18,6.33L67.07,12a3.65,3.65,0,0,0-.82,2.18v.16c0,1.08.52,1.8,1.32,1.8a1.57,1.57,0,0,0,1.26-.66m-4.92-1v-.12a5.3,5.3,0,0,1,2.14-4.13A6.09,6.09,0,0,1,64.87,7V6.86a2.9,2.9,0,0,1,2.9-3.06,2.78,2.78,0,0,1,2.82,3V7a4.77,4.77,0,0,1-2,3.77l1.26,2.4c.1-.44.18-1,.3-1.88l1.88.34a12,12,0,0,1-.9,3.6l1.16,2-1.76,1.08L69.87,17a3.16,3.16,0,0,1-2.6,1.18,3.51,3.51,0,0,1-3.36-3.78" style="fill:#fceb09;fill-rule:evenodd"/><polygon points="77.23 4 79.65 4 81.37 9.13 83.09 4 85.51 4 85.51 18 83.17 18 83.17 9.54 81.39 14.85 81.35 14.85 79.57 9.54 79.57 18 77.23 18 77.23 4" style="fill:#fceb09;fill-rule:evenodd"/><path d="M92.17,11.37v-.72C92.17,7,91.67,6,90.93,6s-1.24,1-1.24,4.61v.72c0,3.6.5,4.6,1.24,4.6s1.24-1,1.24-4.6m-5,0v-.72c0-4.63,1.5-6.85,3.72-6.85S94.66,6,94.66,10.65v.72c0,4.62-1.51,6.84-3.73,6.84S87.21,16,87.21,11.37" style="fill:#fceb09;fill-rule:evenodd"/><path d="M98.92,10.92c1.06,0,1.84-.61,1.84-2.26V8.5c0-1.76-.84-2.22-1.9-2.22H98.8v4.64ZM96.36,4h2.52c2.5,0,4.32,1.32,4.32,4.46v.18a4.37,4.37,0,0,1-1.64,3.69L103.44,18h-2.6l-1.58-4.88H98.8V18H96.36Z" style="fill:#fceb09;fill-rule:evenodd"/><path d="M104.58,11.25v-.48c0-4.53,1.92-6.87,4.68-6.87a4.26,4.26,0,0,1,1.86.4V6.84a3.39,3.39,0,0,0-1.78-.6c-1.4,0-2.28,1.4-2.28,4.42v.69c0,3.66,1.08,4.5,2.08,4.5l.22,0V12.24h-1.2V10.06h3.42v7.45a6,6,0,0,1-2.54.6c-2.44,0-4.46-2-4.46-6.86" style="fill:#fceb09;fill-rule:evenodd"/><path d="M117.38,13l-.74-4.63L115.88,13Zm-2-9.07H118L120.64,18H118.2l-.46-2.78h-2.22L115.08,18h-2.36Z" style="fill:#fceb09;fill-rule:evenodd"/><polygon points="121.88 4 124.16 4 126.62 11.09 126.62 4 129 4 129 18 126.84 18 124.26 10.59 124.26 18 121.88 18 121.88 4" style="fill:#fceb09;fill-rule:evenodd"/></svg>