<?xml version="1.0" encoding="UTF-8" standalone="no"?>
<svg xmlns="http://www.w3.org/2000/svg" width="400" height="225" viewBox="0 0 400 225">
  <!-- Background -->
  <rect width="400" height="225" fill="#FFFFFF" rx="10" ry="10"/>

  <!-- T-Mobile Magenta Header -->
  <rect width="400" height="60" fill="#E20074" rx="10" ry="10"/>

  <!-- T-Mobile Logo -->
  <text x="20" y="40" font-family="Arial, sans-serif" font-size="24" font-weight="bold" fill="white">T-Mobile for Business</text>

  <!-- Dashboard Elements -->
  <rect x="20" y="80" width="170" height="130" fill="#F5F5F5" rx="5" ry="5"/>
  <rect x="210" y="80" width="170" height="60" fill="#F5F5F5" rx="5" ry="5"/>
  <rect x="210" y="150" width="170" height="60" fill="#F5F5F5" rx="5" ry="5"/>

  <!-- Chart Elements -->
  <circle cx="60" cy="130" r="30" fill="#E20074" opacity="0.7"/>
  <circle cx="120" cy="130" r="30" fill="#333333" opacity="0.5"/>
  <rect x="40" y="170" width="130" height="10" fill="#E20074" opacity="0.7"/>
  <rect x="40" y="185" width="80" height="10" fill="#333333" opacity="0.5"/>

  <!-- Data Elements -->
  <rect x="220" y="95" width="150" height="8" fill="#E20074" opacity="0.7"/>
  <rect x="220" y="110" width="100" height="8" fill="#333333" opacity="0.5"/>
  <rect x="220" y="125" width="130" height="8" fill="#E20074" opacity="0.7"/>

  <rect x="220" y="165" width="120" height="8" fill="#E20074" opacity="0.7"/>
  <rect x="220" y="180" width="90" height="8" fill="#333333" opacity="0.5"/>
  <rect x="220" y="195" width="140" height="8" fill="#E20074" opacity="0.7"/>
</svg>
