<svg width="540" height="450" viewBox="0 0 540 450" fill="none" xmlns="http://www.w3.org/2000/svg">
<path d="M144.988 154.98H151.018V156.69H144.988V154.98Z" fill="white"/>
<path opacity="0.3" d="M84.1489 394.92H495.539C500.759 376.38 501.659 356.49 497.879 337.5C494.279 319.77 484.199 300.69 466.829 297.36C459.089 295.83 451.169 297.81 443.249 298.35C435.329 298.89 426.599 297.72 421.379 291.6C413.099 281.7 419.129 266.58 425.519 255.24L463.589 187.2C472.409 171.45 481.229 151.56 471.689 136.26C462.239 121.05 440.999 120.6 423.359 122.22C405.809 123.84 384.659 124.11 374.489 109.26C368.639 100.71 368.369 89.46 364.679 79.74C357.029 59.49 333.719 54 312.389 54.72C6.11896 64.71 162.179 132.03 52.8289 241.11C44.0989 249.84 61.1089 264.78 60.1189 277.11C58.8589 291.87 48.4189 303.84 43.1089 317.61C36.8089 334.08 38.5189 353.43 47.5189 368.55C55.5289 381.96 69.1189 391.59 84.1489 394.92Z" fill="#86E9DC"/>
<path d="M371.79 73.44V243.09C371.79 243.63 371.7 244.26 371.61 244.8C370.8 248.76 367.38 251.73 363.15 251.73H159.57C154.8 251.73 150.93 247.86 150.93 243.09V73.44C150.93 68.67 154.8 64.8 159.57 64.8H363.15C367.92 64.89 371.79 68.76 371.79 73.44Z" fill="white"/>
<path d="M349.199 180.45V196.83C349.199 198.9 347.489 200.61 345.419 200.61H177.389C175.319 200.61 173.609 198.9 173.609 196.83V180.45C173.609 178.38 175.319 176.67 177.389 176.67H345.329C347.489 176.58 349.199 178.29 349.199 180.45ZM173.609 211.05H349.199V215.1H173.609V211.05ZM173.609 222.75H349.199V226.8H173.609V222.75Z" fill="#FFC2C2"/>
<path opacity="0.05" d="M212.31 108.18V159.39C212.31 162.18 210.06 164.34 207.36 164.34H151.02V103.14H207.36C210.06 103.23 212.31 105.48 212.31 108.18Z" fill="black"/>
<path d="M371.79 82.17V73.44C371.79 68.67 367.92 64.8 363.15 64.8H159.57C154.8 64.8 150.93 68.67 150.93 73.44V82.17H371.79Z" fill="#060405"/>
<path d="M164.878 74.7C164.878 76.41 163.438 77.85 161.728 77.85C160.018 77.85 158.578 76.41 158.578 74.7C158.578 72.99 160.018 71.55 161.728 71.55C163.438 71.55 164.878 72.99 164.878 74.7ZM173.698 74.7C173.698 76.41 172.258 77.85 170.548 77.85C168.838 77.85 167.398 76.41 167.398 74.7C167.398 72.99 168.838 71.55 170.548 71.55C172.258 71.55 173.698 72.99 173.698 74.7ZM182.518 74.7C182.518 76.41 181.078 77.85 179.368 77.85C177.658 77.85 176.218 76.41 176.218 74.7C176.218 72.99 177.658 71.55 179.368 71.55C181.078 71.55 182.518 72.99 182.518 74.7Z" fill="white"/>
<path opacity="0.05" d="M371.792 96.66V163.8H315.992C312.392 163.8 309.422 160.83 309.422 157.23V103.32C309.422 99.72 312.392 96.75 315.992 96.75H371.792V96.66Z" fill="black"/>
<path d="M396.452 160.74H318.422C314.822 160.74 311.852 157.77 311.852 154.17V100.26C311.852 96.66 314.822 93.69 318.422 93.69H396.452C400.052 93.69 403.022 96.66 403.022 100.26V154.17C403.022 157.77 400.052 160.74 396.452 160.74Z" fill="#F6CC61"/>
<path d="M426.96 218.88L402.03 227.97L366.21 208.17C366.21 208.17 361.44 209.52 358.83 206.73C356.22 203.94 360.45 199.8 360.45 199.8C360.45 199.8 352.62 193.77 353.16 191.88C353.7 189.9 364.14 197.73 364.14 197.73C364.14 197.73 363.6 195.03 364.5 194.04C365.4 193.05 367.65 198.63 367.65 198.63L402.84 206.73L413.73 197.73L426.96 218.88Z" fill="white"/>
<path d="M401.94 228.42L366.03 208.62C365.13 208.89 360.9 209.7 358.38 207C356.22 204.66 358.11 201.51 359.64 199.8C357.39 198.09 352.08 193.68 352.62 191.7C352.71 191.43 352.89 191.25 353.16 191.16C354.78 190.62 360.63 194.67 363.42 196.74C363.33 195.75 363.42 194.4 364.05 193.77C364.23 193.59 364.5 193.5 364.77 193.59C365.85 193.77 367.29 196.83 367.92 198.36L402.66 206.37L413.82 197.19L427.59 219.33L401.94 228.42ZM366.21 207.63L402.03 227.43L426.24 218.61L413.64 198.27L402.93 207.09L367.29 198.9L367.2 198.72C366.3 196.56 365.22 194.58 364.68 194.31C364.14 194.94 364.23 196.56 364.5 197.55L364.77 198.72L363.78 198C358.92 194.4 354.24 191.61 353.52 191.97C353.25 192.96 357.03 196.65 360.63 199.44L361.08 199.8L360.72 200.16C360.72 200.16 356.85 203.94 359.1 206.46C361.53 209.07 366.03 207.81 366.03 207.81L366.21 207.63Z" fill="#060405"/>
<path d="M439.2 200.43L421.2 215.55C415.53 210.6 411.93 203.4 411.48 197.73C418.05 192.15 422.91 187.47 430.65 182.61L439.2 200.43Z" fill="#FE6021"/>
<path d="M465.571 383.58L453.601 294.48L438.211 383.58H426.061L422.191 263.34H479.521C480.151 264.69 485.101 275.4 485.101 289.62C485.011 320.13 478.981 371.7 477.811 383.76L465.571 383.58Z" fill="#060405"/>
<path d="M465.569 385.56V383.49H477.719C477.899 387.45 478.169 394.83 478.259 394.83H458.549C457.919 388.44 465.569 385.56 465.569 385.56Z" fill="#FE6021"/>
<path d="M458.819 392.04C458.549 392.85 458.459 393.84 458.549 394.83H478.259C478.259 394.83 478.169 393.66 478.079 392.04H458.819Z" fill="#060405"/>
<path d="M426.061 385.56V383.49H438.211C438.391 387.45 438.661 394.83 438.751 394.83H419.041C418.411 388.44 426.061 385.56 426.061 385.56Z" fill="#FE6021"/>
<path d="M419.312 392.04C419.042 392.85 418.952 393.84 419.042 394.83H438.752C438.752 394.83 438.662 393.66 438.572 392.04H419.312Z" fill="#060405"/>
<path d="M486.449 185.85C483.839 179.37 467.099 175.14 467.099 175.14H443.879C443.879 175.14 426.959 181.53 420.839 193.59C416.699 201.78 421.649 267.03 421.649 267.03C421.649 273.15 482.849 272.97 482.849 266.85C482.759 266.85 494.549 206.28 486.449 185.85Z" fill="#FE6021"/>
<path d="M461.88 145.8C461.88 145.8 459.72 165.24 467.19 175.14C467.19 175.14 460.17 187.11 449.82 186.84C439.47 186.57 436.77 179.28 437.58 178.29C438.39 177.3 447.3 172.35 447.3 161.64C447.3 150.93 461.88 145.8 461.88 145.8Z" fill="white"/>
<path d="M449.73 187.29C442.8 187.11 438.75 183.78 437.4 180.63C436.95 179.73 436.68 178.56 437.13 177.93C437.31 177.75 437.58 177.48 438.12 177.12C440.46 175.32 446.76 170.37 446.76 161.55C446.76 150.66 461.07 145.53 461.7 145.26L462.42 144.99L462.33 145.71C462.33 145.89 460.26 165.06 467.55 174.69L467.73 174.96L467.55 175.23C464.04 181.35 457.11 187.56 449.73 187.29ZM461.34 146.52C458.55 147.69 447.66 152.73 447.66 161.64C447.66 170.91 441.18 175.95 438.66 177.93C438.3 178.2 437.94 178.47 437.85 178.65C437.76 178.74 437.76 179.55 438.39 180.72C439.11 181.98 441.9 186.21 449.73 186.39C456.57 186.57 462.96 180.81 466.56 175.14C459.99 166.14 460.98 150.21 461.34 146.52Z" fill="#060405"/>
<path d="M462.152 142.65C462.062 143.82 461.972 144.9 461.792 145.8C461.251 148.68 460.082 153.36 457.832 157.41C455.222 161.91 449.912 165.6 443.432 164.61C434.342 163.26 436.952 139.23 440.012 129.33C440.642 127.35 441.362 125.91 441.992 125.37C446.042 122.04 459.092 127.62 460.712 131.67C461.972 134.82 462.332 139.23 462.152 142.65Z" fill="white"/>
<path d="M445.592 165.24C444.872 165.24 444.152 165.15 443.432 165.06C441.722 164.79 440.372 163.8 439.292 162.09C434.702 154.8 437.312 136.8 439.652 129.24C440.372 127.08 441.002 125.64 441.812 125.01C443.882 123.3 447.842 123.93 450.002 124.47C454.592 125.64 460.172 128.7 461.252 131.49C462.512 134.82 462.872 139.41 462.692 142.65C462.602 143.91 462.512 144.99 462.332 145.89C461.432 150.48 460.172 154.44 458.372 157.5L458.282 157.59C456.122 161.37 451.622 165.24 445.592 165.24ZM445.682 124.83C444.242 124.83 443.072 125.1 442.352 125.73C441.992 126 441.362 126.9 440.552 129.51C438.122 137.43 435.872 154.89 440.012 161.64C440.912 163.08 442.082 163.98 443.522 164.16C450.182 165.15 455.132 161.1 457.472 157.23L457.562 157.14C459.272 154.17 460.622 150.3 461.522 145.71C461.702 144.81 461.792 143.82 461.882 142.65C462.062 139.59 461.702 135.09 460.442 131.85C459.542 129.6 454.682 126.63 449.732 125.37C448.202 125.01 446.852 124.83 445.682 124.83Z" fill="#060405"/>
<path d="M472.139 125.1C478.259 134.91 470.249 149.67 461.789 158.49L457.829 157.41C460.169 153.45 461.249 148.77 461.789 145.8C461.969 144.9 462.059 143.82 462.149 142.65C462.149 142.65 462.329 138.15 460.529 138.78C458.729 139.41 458.459 142.47 458.459 142.47H456.209C456.209 142.47 456.389 130.59 454.229 130.05C452.969 129.78 445.409 131.13 439.109 131.94C436.139 132.3 429.839 132.93 427.769 123.66C425.159 112.32 433.169 110.97 438.929 111.33C455.849 112.59 469.079 120.24 472.139 125.1ZM450.359 246.06C450.359 247.41 449.279 248.58 447.839 248.58H390.239C388.889 248.58 387.719 247.5 387.719 246.06C387.719 244.71 388.799 243.54 390.239 243.54H447.839C449.279 243.63 450.359 244.71 450.359 246.06Z" fill="#060405"/>
<path d="M422.82 243.63H387.27C385.38 243.63 383.76 242.37 383.31 240.57L376.02 212.85C375.3 210.24 377.28 207.63 379.98 207.63H415.53C417.42 207.63 419.04 208.89 419.49 210.69L426.78 238.41C427.5 241.02 425.52 243.63 422.82 243.63Z" fill="white"/>
<path d="M422.818 244.08H387.268C385.198 244.08 383.398 242.64 382.858 240.66L375.568 212.94C375.208 211.59 375.478 210.15 376.378 208.98C377.278 207.81 378.538 207.18 379.978 207.18H415.528C417.598 207.18 419.398 208.62 419.938 210.6L427.228 238.32C427.588 239.67 427.318 241.11 426.418 242.28C425.518 243.45 424.258 244.08 422.818 244.08ZM379.978 208.08C378.808 208.08 377.818 208.62 377.098 209.52C376.378 210.42 376.198 211.59 376.468 212.67L383.758 240.39C384.208 242.01 385.648 243.09 387.268 243.09H422.818C423.988 243.09 424.978 242.55 425.698 241.65C426.418 240.75 426.598 239.58 426.328 238.5L419.038 210.78C418.588 209.16 417.148 207.99 415.528 207.99H379.978V208.08Z" fill="#060405"/>
<path d="M390.51 239.76C390.78 241.02 390.87 242.37 390.51 243.63H387.18C385.29 243.63 383.67 242.37 383.22 240.57L375.93 212.85C375.21 210.24 377.19 207.63 379.89 207.63H391.68C388.89 209.16 386.37 211.14 385.02 214.02C383.04 218.07 383.94 222.93 385.56 227.16C387.27 231.39 389.61 235.35 390.51 239.76Z" fill="#FFC2C2"/>
<path d="M447.929 249.03H390.329C388.709 249.03 387.359 247.68 387.359 246.06C387.359 244.44 388.709 243.09 390.329 243.09H447.929C449.549 243.09 450.899 244.44 450.899 246.06C450.899 247.68 449.549 249.03 447.929 249.03ZM390.329 244.08C389.249 244.08 388.259 244.98 388.259 246.15C388.259 247.32 389.159 248.22 390.329 248.22H447.929C449.009 248.22 449.999 247.32 449.999 246.15C449.999 244.98 449.099 244.08 447.929 244.08H390.329Z" fill="#060405"/>
<path d="M422.818 244.08H387.268C385.198 244.08 383.398 242.64 382.858 240.66L375.568 212.94C375.208 211.59 375.478 210.15 376.378 208.98C377.278 207.81 378.538 207.18 379.978 207.18H415.528C417.598 207.18 419.398 208.62 419.938 210.6L427.228 238.32C427.588 239.67 427.318 241.11 426.418 242.28C425.518 243.45 424.258 244.08 422.818 244.08ZM379.978 208.08C378.808 208.08 377.818 208.62 377.098 209.52C376.378 210.42 376.198 211.59 376.468 212.67L383.758 240.39C384.208 242.01 385.648 243.09 387.268 243.09H422.818C423.988 243.09 424.978 242.55 425.698 241.65C426.418 240.75 426.598 239.58 426.328 238.5L419.038 210.78C418.588 209.16 417.148 207.99 415.528 207.99H379.978V208.08Z" fill="#060405"/>
<path d="M403.02 226.08C403.2 227.7 402.03 228.96 400.41 228.96C398.79 228.96 397.44 227.7 397.26 226.08C397.08 224.46 398.25 223.2 399.87 223.2C401.49 223.2 402.84 224.46 403.02 226.08Z" fill="#FFC2C2"/>
<path d="M497.879 249.03C493.919 254.97 442.889 253.89 442.889 253.89C442.889 253.89 429.029 259.56 424.349 252.72C419.669 245.88 431.999 246.06 431.999 246.06C431.999 246.06 429.389 245.07 431.009 242.55C432.719 240.12 441.899 244.26 441.899 244.26L477.359 232.65L475.739 215.01L498.329 215.64C498.419 215.73 502.649 241.83 497.879 249.03Z" fill="white"/>
<path d="M432.448 256.59C429.208 256.59 425.968 255.78 424.078 252.99C422.908 251.28 422.638 249.75 423.268 248.58C424.438 246.33 428.488 245.79 430.648 245.7C430.468 245.43 430.288 245.16 430.108 244.8C429.838 244.08 430.018 243.27 430.648 242.37C432.448 239.76 440.368 243.18 441.898 243.81L476.818 232.38L475.198 214.56L498.688 215.28L498.778 215.64C498.958 216.72 503.098 242.1 498.238 249.3C494.188 255.33 446.128 254.43 442.978 254.34C442.258 254.7 437.308 256.59 432.448 256.59ZM431.818 246.51C429.838 246.51 425.158 246.96 424.078 248.94C423.628 249.84 423.808 251.01 424.798 252.45C429.208 258.93 442.618 253.53 442.798 253.44H442.978C457.108 253.71 494.368 253.53 497.518 248.76C501.838 242.28 498.508 219.33 497.968 216.09L476.278 215.46L477.898 232.92L477.538 233.01L441.898 244.71L441.718 244.62C438.298 243.09 432.448 241.2 431.368 242.82C430.918 243.45 430.828 243.99 430.918 244.53C431.188 245.25 432.088 245.7 432.088 245.7L434.428 246.6H431.908C431.998 246.51 431.908 246.51 431.818 246.51Z" fill="#060405"/>
<path d="M484.291 182.97C484.291 182.97 496.351 189.63 499.411 215.37C499.231 216.99 474.661 218.88 474.841 217.26C474.841 217.26 468.451 189.09 484.291 182.97Z" fill="#FE6021"/>
<path d="M478.44 218.25C477.45 218.25 476.64 218.25 476.19 218.16C475.65 218.07 475.29 218.07 475.02 217.98C474.48 217.8 474.39 217.53 474.39 217.26C474.12 216 470.52 198.81 475.74 189.72L476.55 190.17C471.51 198.9 475.11 216 475.29 217.08C477.18 218.07 497.79 216.45 499.05 215.19C499.05 215.19 499.05 215.28 498.96 215.28L499.86 215.37C499.59 217.26 484.74 218.25 478.44 218.25Z" fill="#060405"/>
<path d="M450.631 142.47C451.327 142.47 451.891 141.745 451.891 140.85C451.891 139.955 451.327 139.23 450.631 139.23C449.935 139.23 449.371 139.955 449.371 140.85C449.371 141.745 449.935 142.47 450.631 142.47Z" fill="#060405"/>
<path d="M441.272 141.66C441.968 141.66 442.532 140.935 442.532 140.04C442.532 139.145 441.968 138.42 441.272 138.42C440.576 138.42 440.012 139.145 440.012 140.04C440.012 140.935 440.576 141.66 441.272 141.66Z" fill="#060405"/>
<path d="M444.42 148.5C443.88 148.5 443.34 148.05 443.16 147.51C442.98 146.97 443.161 146.34 443.341 145.98L443.881 145.17L444.06 144.9C444.96 143.64 445.41 142.11 445.41 140.49H446.31C446.31 142.2 445.771 143.91 444.781 145.35L444.6 145.62C444.42 145.89 444.24 146.07 444.15 146.34C444.06 146.52 443.97 146.88 444.06 147.24C444.15 147.42 444.33 147.69 444.51 147.6L444.42 148.5ZM447.391 155.79C446.941 155.79 446.4 155.7 445.95 155.52L446.31 154.71C447.03 154.98 447.75 154.98 448.47 154.71C449.1 154.44 449.73 153.81 449.91 153.09L450.72 153.36C450.36 154.26 449.641 155.07 448.741 155.43C448.381 155.7 447.931 155.79 447.391 155.79Z" fill="#060405"/>
<path d="M155.25 201.33C153.27 204.3 150.03 206.55 150.03 206.55C150.03 206.55 120.69 240.93 114.66 240.93C109.44 240.93 89.9102 224.28 89.9102 224.28L105.48 209.43L115.38 219.6L142.29 199.71C142.29 199.71 140.22 193.77 143.01 193.14C145.8 192.51 145.17 195.84 145.17 195.84C145.17 195.84 153.63 184.86 155.61 186.66C157.59 188.55 150.03 196.47 150.03 196.47C150.03 196.47 157.23 198.36 155.25 201.33Z" fill="white"/>
<path d="M114.572 241.38C109.262 241.38 90.2716 225.36 89.5516 224.64L89.1916 224.28L105.482 208.71L115.382 218.88L141.752 199.44C141.392 198.45 140.582 195.3 141.482 193.59C141.752 193.05 142.292 192.69 142.922 192.51C143.822 192.33 144.542 192.42 144.992 192.96C145.352 193.32 145.532 193.86 145.622 194.31C147.602 191.79 152.462 186.03 154.802 185.85C155.342 185.85 155.612 186.03 155.792 186.21C156.062 186.48 156.242 186.84 156.242 187.38C156.332 189.81 152.282 194.49 150.752 196.11C152.192 196.56 155.162 197.64 155.792 199.44C156.062 200.07 155.972 200.79 155.522 201.42C153.632 204.21 150.662 206.37 150.212 206.73C148.592 208.8 120.692 241.38 114.572 241.38ZM90.5416 224.28C97.3816 230.04 110.702 240.48 114.662 240.48C119.432 240.48 141.572 215.73 149.672 206.19L149.762 206.1C149.762 206.1 153.002 203.85 154.892 201.06C155.162 200.61 155.252 200.25 155.072 199.89C154.532 198.45 151.112 197.28 149.852 196.92L149.132 196.74L149.672 196.2C151.292 194.49 155.522 189.63 155.432 187.56C155.432 187.29 155.342 187.2 155.252 187.02C155.162 186.93 155.162 186.93 154.892 186.93C153.002 187.11 148.232 192.51 145.532 196.11L144.362 197.64L144.722 195.75C144.812 195.39 144.902 194.22 144.362 193.77C144.092 193.5 143.642 193.41 143.102 193.59C142.742 193.68 142.472 193.86 142.292 194.22C141.572 195.57 142.382 198.54 142.742 199.62L142.832 199.89L115.292 220.14L105.392 209.97L90.5416 224.28ZM89.3716 148.05C93.4216 148.68 96.2116 152.73 96.8416 156.78C97.4716 160.83 96.3916 164.97 95.4916 168.93C94.5916 172.89 93.8716 177.21 95.1316 181.08C97.2016 187.56 104.402 192.06 104.852 198.9C105.122 202.95 102.602 206.91 99.0916 208.98C95.5816 210.96 91.1716 211.23 87.2116 209.97C83.3416 208.8 79.9216 206.28 77.1316 203.4C70.5616 196.56 67.2316 186.75 68.0416 177.3C68.9416 167.85 73.9816 158.85 81.7216 153.36" fill="#060405"/>
<path d="M108.811 210.51L93.4211 221.13L91.6211 192.42C92.5211 192.51 104.761 201.15 108.811 210.51Z" fill="#9F28EE"/>
<path d="M98.2805 262.44C98.2805 262.44 114.121 308.79 114.571 324.99C115.021 341.55 102.061 383.13 102.061 383.13H89.5505L91.8005 325.8L81.2705 300.6L78.8405 383.22H66.3305C66.3305 383.22 51.9305 295.47 50.4905 284.22C49.6805 278.01 52.2005 268.2 54.6305 262.53H98.2805V262.44Z" fill="#060405"/>
<path d="M78.8391 385.29V383.22H66.3291C66.1491 387.27 65.8791 394.92 65.7891 394.92H86.2191C86.7591 388.17 78.8391 385.29 78.8391 385.29Z" fill="#9F28EE"/>
<path d="M85.7692 391.95C86.0392 392.85 86.1292 393.75 86.0392 394.83H65.6992C65.6992 394.83 65.7892 393.66 65.8792 391.95H85.7692Z" fill="#060405"/>
<path d="M102.062 385.29V383.22H89.5517C89.3717 387.27 89.1017 394.92 89.0117 394.92H109.442C110.072 388.17 102.062 385.29 102.062 385.29Z" fill="#9F28EE"/>
<path d="M109.082 391.95C109.352 392.85 109.442 393.75 109.352 394.83H88.9219C88.9219 394.83 89.0119 393.66 89.1019 391.95H109.082Z" fill="#060405"/>
<path d="M102.422 271.53C102.422 271.53 104.312 211.59 96.3018 196.74C89.7318 184.59 48.6918 186.03 45.9018 200.61C43.1118 214.83 46.8918 274.59 46.8918 274.59C52.1118 283.05 103.502 282.24 102.422 271.53Z" fill="#9F28EE"/>
<path d="M190.441 269.73C190.441 270.45 190.171 271.08 189.721 271.53C189.271 271.98 188.641 272.25 187.921 272.25H145.621C146.341 272.25 146.971 271.98 147.421 271.53C147.871 271.08 148.141 270.45 148.141 269.73C148.141 268.29 146.971 267.21 145.621 267.21H187.921C189.271 267.21 190.441 268.38 190.441 269.73Z" fill="white"/>
<path d="M178.291 395.37C178.021 395.37 177.841 395.19 177.841 394.92V276.12H121.951V394.92C121.951 395.19 121.771 395.37 121.501 395.37C121.231 395.37 121.051 395.19 121.051 394.92V275.67C121.051 275.4 121.231 275.22 121.501 275.22H178.291C178.561 275.22 178.741 275.4 178.741 275.67V394.92C178.741 395.1 178.561 395.37 178.291 395.37Z" fill="#060405"/>
<path d="M149.939 272.25H112.499C110.429 272.25 108.719 273.96 108.719 276.03C108.719 278.1 110.429 279.81 112.499 279.81H149.939V272.25Z" fill="#1AC1C1"/>
<path d="M149.94 280.26H112.5C110.16 280.26 108.27 278.37 108.27 276.03C108.27 273.69 110.16 271.8 112.5 271.8H149.94C150.21 271.8 150.39 271.98 150.39 272.25V279.81C150.39 280.08 150.21 280.26 149.94 280.26ZM112.5 272.7C110.7 272.7 109.17 274.23 109.17 276.03C109.17 277.83 110.7 279.36 112.5 279.36H149.49V272.7H112.5Z" fill="#060405"/>
<path d="M184.231 279.81H144.991C142.921 279.81 141.211 278.1 141.211 276.03C141.211 273.96 142.921 272.25 144.991 272.25H184.231C186.301 272.25 188.011 273.96 188.011 276.03C188.011 278.1 186.301 279.81 184.231 279.81Z" fill="white"/>
<path d="M184.232 280.26H144.992C142.652 280.26 140.762 278.37 140.762 276.03C140.762 273.69 142.652 271.8 144.992 271.8H184.232C186.572 271.8 188.462 273.69 188.462 276.03C188.462 278.37 186.572 280.26 184.232 280.26ZM144.992 272.7C143.192 272.7 141.662 274.23 141.662 276.03C141.662 277.83 143.192 279.36 144.992 279.36H184.232C186.032 279.36 187.562 277.83 187.562 276.03C187.562 274.23 186.032 272.7 184.232 272.7H144.992Z" fill="#060405"/>
<path d="M148.049 269.73C148.049 270.45 147.779 271.08 147.329 271.53C146.879 271.98 146.249 272.25 145.529 272.25H111.329C109.889 272.25 108.809 271.08 108.809 269.73C108.809 269.01 109.079 268.38 109.529 267.93C109.979 267.48 110.609 267.21 111.329 267.21H145.529C146.969 267.21 148.049 268.38 148.049 269.73Z" fill="white"/>
<path d="M145.529 272.7H111.329C109.709 272.7 108.359 271.35 108.359 269.73C108.359 268.92 108.719 268.2 109.259 267.66C109.799 267.12 110.609 266.76 111.329 266.76H145.529C147.149 266.76 148.499 268.11 148.499 269.73C148.499 270.54 148.139 271.26 147.599 271.8C147.059 272.43 146.339 272.7 145.529 272.7ZM111.329 267.66C110.789 267.66 110.249 267.93 109.889 268.29C109.529 268.65 109.259 269.19 109.259 269.73C109.259 270.9 110.159 271.8 111.329 271.8H145.529C146.069 271.8 146.609 271.62 146.969 271.17C147.329 270.81 147.599 270.27 147.599 269.73C147.599 268.56 146.699 267.66 145.529 267.66H111.329Z" fill="#060405"/>
<path d="M190.441 269.73C190.441 270.45 190.171 271.08 189.721 271.53C189.271 271.98 188.641 272.25 187.921 272.25H145.621C146.341 272.25 146.971 271.98 147.421 271.53C147.871 271.08 148.141 270.45 148.141 269.73C148.141 268.29 146.971 267.21 145.621 267.21H187.921C189.271 267.21 190.441 268.38 190.441 269.73Z" fill="#060405"/>
<path d="M187.922 272.7H145.622C145.352 272.7 145.172 272.52 145.172 272.25C145.172 271.98 145.352 271.8 145.622 271.8C146.162 271.8 146.702 271.62 147.062 271.17C147.422 270.81 147.692 270.27 147.692 269.73C147.692 268.56 146.792 267.66 145.622 267.66C145.352 267.66 145.172 267.48 145.172 267.21C145.172 266.94 145.352 266.76 145.622 266.76H187.922C189.542 266.76 190.892 268.11 190.892 269.73C190.892 270.54 190.532 271.26 189.992 271.8C189.452 272.43 188.732 272.7 187.922 272.7ZM147.692 271.8H187.922C188.462 271.8 189.002 271.62 189.362 271.17C189.722 270.81 189.992 270.27 189.992 269.73C189.992 268.56 189.092 267.66 187.922 267.66H147.692C148.232 268.2 148.592 268.92 148.592 269.73C148.502 270.54 148.232 271.26 147.692 271.8Z" fill="#060405"/>
<path d="M198.181 231.48H156.872C155.792 231.48 154.892 232.2 154.622 233.19L145.261 264.15C144.811 265.68 145.981 267.21 147.511 267.21H188.822C189.902 267.21 190.802 266.49 191.072 265.5L200.431 234.54C200.881 233.01 199.801 231.48 198.181 231.48Z" fill="white"/>
<path d="M188.821 267.66H147.511C146.611 267.66 145.801 267.21 145.261 266.49C144.721 265.77 144.541 264.87 144.811 263.97L154.171 233.01C154.531 231.84 155.611 231.03 156.871 231.03H198.181C199.081 231.03 199.891 231.48 200.431 232.2C200.971 232.92 201.151 233.82 200.881 234.72L191.521 265.68C191.161 266.85 190.081 267.66 188.821 267.66ZM156.871 231.93C156.061 231.93 155.251 232.47 155.071 233.28L145.711 264.24C145.531 264.87 145.621 265.41 145.981 265.95C146.341 266.4 146.881 266.76 147.511 266.76H188.821C189.631 266.76 190.441 266.22 190.621 265.41L199.981 234.45C200.161 233.82 200.071 233.28 199.711 232.74C199.351 232.29 198.811 231.93 198.181 231.93H156.871ZM142.381 270.45H137.071C136.711 270.45 136.351 270.18 136.351 269.73C136.351 269.37 136.621 269.01 137.071 269.01H142.381C142.741 269.01 143.101 269.28 143.101 269.73C143.101 270.09 142.741 270.45 142.381 270.45ZM134.281 270.45H130.591C130.231 270.45 129.871 270.18 129.871 269.73C129.871 269.37 130.141 269.01 130.591 269.01H134.281C134.641 269.01 135.001 269.28 135.001 269.73C135.001 270.09 134.641 270.45 134.281 270.45Z" fill="#060405"/>
<path d="M178.021 251.73C177.121 253.89 174.781 255.69 172.711 255.69C170.641 255.69 169.741 253.98 170.641 251.82C171.541 249.66 173.881 247.86 175.951 247.86C177.931 247.86 178.831 249.57 178.021 251.73Z" fill="#060405"/>
<path d="M131.579 260.73C130.679 272.52 126.809 264.33 126.719 262.44C126.719 262.44 121.589 266.94 115.829 263.34C115.829 263.34 67.7689 260.64 59.9389 257.76C51.7489 254.79 45.4489 236.25 43.3789 223.65H67.9489C70.0189 231.66 71.0989 238.23 71.0989 238.23L117.809 254.79C117.809 254.79 118.979 250.92 121.229 252.18C123.479 253.44 120.509 255.78 120.509 255.78C120.509 255.78 131.939 255.96 131.579 260.73Z" fill="white"/>
<path d="M129.42 267.39C127.98 267.39 126.72 264.78 126.36 263.25C124.83 264.33 120.42 266.67 115.65 263.79C112.41 263.61 67.5 261 59.76 258.21C51.03 255.06 44.91 235.89 42.84 223.74L42.75 223.2H68.22L68.31 223.56C70.11 230.58 71.19 236.61 71.46 237.96L117.45 254.25C117.72 253.53 118.44 252.09 119.52 251.64C120.06 251.37 120.69 251.46 121.32 251.82C122.13 252.27 122.4 252.9 122.4 253.26C122.49 254.07 121.95 254.79 121.5 255.33C123.75 255.51 129.06 256.05 131.13 258.39C131.76 259.11 132.03 259.92 132.03 260.82C131.67 265.32 130.86 267.39 129.42 267.39ZM127.08 261.54L127.17 262.44C127.26 263.52 128.61 266.49 129.51 266.49C129.6 266.49 130.68 266.31 131.13 260.64C131.22 260.01 130.95 259.38 130.5 258.93C128.16 256.32 120.51 256.14 120.51 256.14H119.25L120.24 255.33C120.6 255.06 121.68 253.98 121.59 253.26C121.59 253.17 121.59 252.81 120.96 252.45C120.6 252.27 120.24 252.18 119.88 252.36C118.98 252.72 118.35 254.25 118.17 254.88L118.08 255.33L117.63 255.15L70.74 238.5V238.23C70.74 238.14 69.57 231.75 67.68 224.01H43.83C45.81 235.53 51.84 254.25 60.03 257.22C67.68 260.01 115.29 262.71 115.74 262.8H115.83L115.92 262.89C121.41 266.31 126.27 262.08 126.27 262.08L127.08 261.54Z" fill="#060405"/>
<path d="M71.2804 228.42C67.3204 210.6 58.8604 190.08 50.3104 194.31C46.1704 196.38 40.9504 201.69 40.2304 212.76C40.0504 215.82 40.7704 224.1 42.1204 230.4C42.2104 233.1 71.4604 231.12 71.2804 228.42Z" fill="#9F28EE"/>
<path d="M49.9492 232.2C46.7092 232.2 44.0092 232.02 42.6592 231.48C42.3892 231.39 42.2992 231.12 42.3892 230.94C42.4792 230.67 42.7492 230.58 42.9292 230.67C46.8892 232.11 65.9692 230.94 70.1992 228.87C70.7392 228.6 70.8292 228.42 70.8292 228.42C68.3992 217.62 64.7992 207.72 61.1092 201.51C61.0192 201.33 61.0192 201.06 61.2892 200.88C61.4692 200.79 61.7392 200.79 61.9192 201.06C65.6992 207.36 69.2992 217.35 71.7292 228.33C71.7292 228.78 71.5492 229.05 71.1892 229.32C69.0292 230.94 57.8692 232.2 49.9492 232.2Z" fill="#060405"/>
<path d="M80.7319 178.83C80.7319 178.83 77.6719 186.66 78.4819 188.01C79.2919 189.27 93.1519 200.43 85.4119 202.68C77.6719 204.93 64.1719 189.36 64.1719 189.36C64.1719 189.36 69.7519 176.85 70.7419 173.34C71.8219 169.83 80.7319 178.83 80.7319 178.83Z" fill="white"/>
<path d="M83.7887 203.31C75.8687 203.31 64.3487 190.17 63.8987 189.63L63.7188 189.45L63.8087 189.18C63.8987 189.09 69.3887 176.67 70.3787 173.25C70.5587 172.53 71.0987 172.26 71.4587 172.17C73.8887 171.54 79.5587 177.03 81.2687 178.74C81.2687 178.83 78.2087 186.66 78.9287 187.74C79.0187 187.92 79.7387 188.55 80.4587 189.27C83.4287 192.15 89.0087 197.55 88.1987 200.88C87.9287 201.96 87.0287 202.68 85.5887 203.13C84.9587 203.22 84.4187 203.31 83.7887 203.31ZM64.7087 189.27C66.3287 191.16 78.3887 204.3 85.2287 202.23C86.3987 201.87 87.0287 201.42 87.2087 200.61C87.9287 197.82 82.3487 192.42 79.7387 189.9C78.7487 188.91 78.2987 188.46 78.1187 188.19C77.3087 186.84 79.3787 181.08 80.1887 178.92C77.5787 176.31 73.1687 172.53 71.6387 172.98C71.5487 172.98 71.3687 173.07 71.2787 173.43C70.2887 176.67 65.5187 187.38 64.7087 189.27Z" fill="#060405"/>
<path d="M84.2414 181.08C73.7114 185.94 68.8514 174.06 68.8514 174.06L66.6914 149.4L75.8714 142.11C75.8714 142.11 86.7614 145.89 89.3714 152.55C91.9814 159.21 88.7414 179.01 84.2414 181.08Z" fill="white"/>
<path d="M79.3783 182.7C78.2083 182.7 77.0383 182.52 75.8683 182.07C70.9183 180.09 68.4883 174.51 68.3983 174.33V174.24L66.2383 149.31L75.7783 141.75L76.0483 141.84C76.4983 142.02 87.1183 145.8 89.8183 152.55C92.4283 159.12 89.3683 179.37 84.5083 181.71C82.7083 182.34 80.9983 182.7 79.3783 182.7ZM69.2983 173.97C69.5683 174.6 71.8183 179.46 76.2283 181.17C78.6583 182.07 81.2683 181.98 84.0583 180.63C88.1983 178.74 91.6183 159.39 88.9183 152.64C86.5783 146.79 77.4883 143.1 75.8683 142.47L67.1383 149.49L69.2983 173.97Z" fill="#060405"/>
<path d="M77.5558 163.89C78.2016 163.866 78.6962 163.081 78.6606 162.137C78.625 161.193 78.0727 160.448 77.427 160.473C76.7813 160.497 76.2867 161.282 76.3222 162.225C76.3578 163.169 76.9101 163.914 77.5558 163.89Z" fill="#060405"/>
<path d="M86.466 163.351C87.1117 163.326 87.6063 162.542 87.5708 161.598C87.5352 160.654 86.9829 159.909 86.3372 159.933C85.6914 159.957 85.1968 160.742 85.2324 161.686C85.268 162.63 85.8203 163.375 86.466 163.351Z" fill="#060405"/>
<path d="M81.5389 168.39C81.2689 168.21 81.0889 168.03 80.9089 167.76C80.7289 167.58 80.7289 167.31 80.9989 167.13C81.2689 166.95 81.4489 166.95 81.6289 167.22L81.9889 167.58C82.3489 167.76 82.2589 167.4 82.1689 166.95C81.7189 165.33 81.7189 163.71 81.9889 162.09C81.9889 161.82 82.2589 161.73 82.5289 161.73C82.7989 161.73 82.9789 162 82.8889 162.27C82.6189 163.71 82.7089 165.33 83.0689 166.77C83.1589 167.13 83.3389 167.94 82.7989 168.39C82.3489 168.57 81.8989 168.57 81.5389 168.39ZM76.1389 174.87C75.9589 174.69 75.9589 174.42 76.1389 174.24C76.3189 174.06 76.5889 174.06 76.7689 174.24C77.3089 174.78 78.6589 175.05 79.6489 174.78C79.9189 174.69 80.0989 174.87 80.1889 175.05C80.2789 175.32 80.0989 175.5 79.9189 175.59C78.6589 176.13 76.9489 175.77 76.1389 174.87ZM100.079 216.9C99.8989 216.9 99.7189 216.72 99.6289 216.54L96.4789 204.03C96.3889 203.76 96.5689 203.58 96.8389 203.49C97.1089 203.4 97.2889 203.58 97.3789 203.85L100.529 216.36C100.619 216.63 100.439 216.81 100.169 216.9C100.169 216.81 100.169 216.9 100.079 216.9Z" fill="#060405"/>
<path d="M96.7488 153C94.6788 155.97 91.2588 156.51 88.1988 155.25C86.3988 154.53 84.6888 153.9 83.0688 152.82L82.9788 152.73C80.6388 151.11 77.3988 151.65 75.6888 153.99C72.9888 157.59 69.3888 162.09 69.1188 163.71C68.4888 167.49 69.5688 171.36 70.8288 175.05C72.0888 178.65 73.6188 182.25 74.1588 186.12C74.9688 192.42 72.6288 198.99 68.1288 203.4C63.8988 207.45 43.1088 211.14 41.8488 210.42C40.5888 209.7 39.6888 208.44 39.5088 207C39.2388 204.75 40.9488 202.77 42.5688 201.06C45.3588 198.18 48.2388 195.21 51.1188 192.33C52.8288 190.62 52.1988 188.55 50.0388 188.55C47.9688 188.55 45.7188 187.65 44.7288 185.76C43.7388 183.96 44.1888 181.71 44.9088 179.73C46.7088 174.6 51.9288 171.18 55.4388 166.95C56.8788 165.24 56.9688 162.81 56.5188 160.74C56.0688 158.58 55.0788 156.6 54.6288 154.44C53.0088 147.78 56.0688 140.31 61.8288 136.71C67.7688 133.02 75.4188 133.56 82.2588 135C85.2288 135.63 88.2888 136.44 90.9888 137.88C93.6888 139.32 96.1188 141.48 97.3788 144.27C98.4588 146.97 98.4588 150.48 96.7488 153ZM252.359 382.41L269.009 285.57L283.139 382.41H296.009L300.779 254.34H237.599C235.439 259.02 237.599 363.24 239.489 382.59L252.359 382.41Z" fill="#060405"/>
<path d="M219.33 241.83C212.22 234.18 221.58 200.79 221.58 200.79L239.85 215.55L238.14 224.37" fill="white"/>
<path d="M219.331 242.28C219.241 242.28 219.061 242.19 218.971 242.1C211.771 234.36 220.771 201.96 221.131 200.61C221.131 200.43 221.311 200.34 221.401 200.34C221.581 200.25 221.671 200.34 221.851 200.43L240.121 215.19C240.211 215.28 240.301 215.46 240.301 215.64L238.591 224.46C238.501 224.73 238.321 224.82 238.051 224.82C237.781 224.73 237.691 224.55 237.691 224.28L239.311 215.73L221.851 201.6C220.591 206.28 213.301 234.81 219.691 241.56C219.871 241.74 219.871 242.01 219.691 242.19C219.601 242.28 219.511 242.28 219.331 242.28Z" fill="#060405"/>
<path d="M311.76 228.87L294.57 221.4L285.75 202.77L309.42 193.05C309.42 193.05 308.16 201.96 312.57 207.18C316.98 212.4 321.75 219.15 322.11 219.06C322.92 218.79 311.76 228.87 311.76 228.87Z" fill="white"/>
<path d="M311.582 229.32L294.392 221.85C294.302 221.85 294.212 221.76 294.122 221.67L285.302 203.04C285.212 202.95 285.212 202.77 285.302 202.68C285.392 202.59 285.392 202.5 285.572 202.41L309.242 192.69C309.422 192.6 309.602 192.69 309.692 192.78C309.782 192.87 309.872 193.05 309.872 193.23C309.872 193.32 308.702 201.96 312.932 207C315.092 209.52 317.252 212.4 319.052 214.74C320.402 216.54 321.842 218.43 322.202 218.7C322.292 218.7 322.472 218.79 322.472 218.88C322.742 219.33 322.832 219.42 311.942 229.23C311.942 229.32 311.762 229.41 311.582 229.32ZM294.842 221.04L311.672 228.33C315.092 225.18 320.312 220.41 321.572 219.15C321.122 218.7 320.222 217.53 318.422 215.19C316.622 212.85 314.462 209.97 312.302 207.45C308.522 202.95 308.792 196.11 308.972 193.77L286.382 203.04L294.842 221.04Z" fill="#060405"/>
<path d="M238.498 217.35C239.218 217.44 240.028 217.53 240.748 217.53L236.878 261.45C236.878 267.48 301.588 267.48 301.588 261.45L299.158 209.97V209.88C299.158 209.88 312.208 200.79 313.648 190.26C310.138 184.77 299.158 169.65 281.608 164.52C278.188 163.53 274.588 162.9 270.718 162.81C265.948 162.63 261.448 163.35 257.218 164.61C253.798 165.6 250.648 167.04 247.678 168.66C227.428 179.91 217.258 205.38 217.258 205.38C217.258 205.38 217.078 204.66 219.058 206.73C222.748 210.42 229.318 215.82 237.418 217.17C237.688 217.26 238.048 217.35 238.498 217.35Z" fill="#F81F8B"/>
<path d="M247.59 168.66C226.71 180.27 216.18 206.46 216.18 206.46C216.18 206.46 216 205.83 218.07 207.9C221.85 211.68 228.69 217.26 236.97 218.7C237.33 218.79 237.69 218.79 238.14 218.88C238.86 218.97 239.67 219.06 240.48 219.06" fill="#F81F8B"/>
<path d="M240.48 219.51H240.3C240.03 219.42 239.94 219.15 240.03 218.97L246.33 200.07C246.42 199.8 246.69 199.71 246.87 199.8C247.14 199.89 247.23 200.16 247.14 200.34L240.84 219.24C240.84 219.42 240.66 219.51 240.48 219.51ZM299.07 210.42C298.89 210.42 298.62 210.24 298.62 210.06L296.82 197.73C296.82 197.46 296.91 197.28 297.18 197.19C297.45 197.19 297.63 197.28 297.72 197.55L299.52 209.88C299.52 210.15 299.43 210.33 299.07 210.42Z" fill="black"/>
<path d="M261.359 163.53C261.359 163.53 266.489 172.08 280.079 175.77L280.799 164.43C280.799 164.43 279.539 158.76 279.089 153.81C278.639 149.04 267.839 138.78 267.119 138.15C266.399 137.52 266.759 145.44 264.959 152.82C263.879 156.78 263.339 160.74 261.359 163.53Z" fill="white"/>
<path d="M280.081 176.22H279.991C266.401 172.53 261.271 164.16 261.001 163.8C260.911 163.62 260.911 163.44 261.001 163.35C262.531 161.1 263.161 158.13 263.881 154.98C264.061 154.26 264.241 153.45 264.421 152.73C266.131 145.53 266.491 138.24 266.581 138.15C266.581 137.97 266.671 137.79 266.851 137.79C267.031 137.7 267.121 137.79 267.301 137.88H267.391C267.481 137.97 279.091 148.68 279.541 153.9C279.991 158.76 281.251 164.34 281.251 164.43V164.52L280.531 175.86C280.531 175.95 280.441 176.13 280.351 176.22H280.081ZM261.901 163.53C262.801 164.88 268.021 171.9 279.631 175.14L280.261 164.43C280.081 163.8 278.911 158.49 278.551 153.81C278.191 149.85 269.911 141.39 267.391 139.05C267.211 141.3 266.671 147.06 265.321 152.82C265.141 153.54 264.961 154.35 264.781 155.07C264.061 158.31 263.431 161.19 261.901 163.53Z" fill="#060405"/>
<path d="M266.489 140.31C266.489 140.31 266.129 158.49 280.619 160.02C297.179 161.82 290.789 128.25 290.789 128.25L279.989 119.79L267.209 122.58L261.449 131.22L266.489 140.31Z" fill="white"/>
<path d="M281.791 160.56C281.341 160.56 280.981 160.56 280.531 160.47C266.491 158.94 266.041 142.02 266.041 140.4L261.001 131.4C260.911 131.22 260.911 131.04 261.001 130.95L266.761 122.31C266.851 122.22 266.941 122.13 267.031 122.13L279.811 119.34C279.901 119.34 280.081 119.34 280.171 119.43L290.971 127.89C291.061 127.98 291.151 128.07 291.151 128.16C291.331 129.06 295.201 150.12 288.181 157.77C286.561 159.66 284.401 160.56 281.791 160.56ZM261.901 131.31L266.851 140.13C266.851 140.22 266.941 140.31 266.941 140.4C266.941 140.58 266.761 158.22 280.621 159.66C283.501 159.93 285.841 159.21 287.551 157.32C294.031 150.3 290.701 130.59 290.341 128.61L279.811 120.42L267.481 123.12L261.901 131.31Z" fill="#060405"/>
<path d="M255.601 135.18C252.091 138.69 257.671 151.83 264.871 152.82C266.671 145.44 267.301 138.15 267.301 138.15C267.301 138.15 269.551 134.01 269.551 133.92C269.641 133.92 272.791 132.03 272.161 129.51C271.621 126.9 272.881 127.44 274.951 127.71C278.281 128.16 294.481 135.45 297.361 128.79C303.751 114.21 281.431 112.68 272.701 114.48C263.971 116.19 261.811 118.62 257.401 123.12C255.871 124.74 258.931 131.76 255.601 135.18Z" fill="#060405"/>
<path d="M287.909 139.32C287.909 140.22 287.459 140.85 286.919 140.85C286.379 140.85 285.929 140.13 285.929 139.32C285.929 138.42 286.379 137.79 286.919 137.79C287.459 137.7 287.909 138.42 287.909 139.32ZM279.179 139.86C279.179 140.76 278.729 141.39 278.189 141.39C277.649 141.39 277.199 140.67 277.199 139.86C277.199 138.96 277.649 138.33 278.189 138.33C278.729 138.33 279.179 138.96 279.179 139.86Z" fill="#181659"/>
<path d="M281.88 147.78C281.7 147.6 281.7 147.33 281.88 147.15L283.68 145.44C283.95 145.17 283.95 145.08 283.95 145.08C283.95 144.99 283.77 144.99 283.59 144.9C283.5 144.81 283.32 144.81 283.23 144.72C282.51 144.27 282.42 143.28 282.33 142.83L281.97 139.32C281.97 139.05 282.15 138.87 282.33 138.78C282.6 138.78 282.78 138.96 282.87 139.14L283.23 142.65C283.32 143.19 283.41 143.73 283.68 143.91C283.95 144.09 284.58 144.18 284.76 144.72C284.94 145.35 284.4 145.89 284.22 145.98L282.42 147.69C282.33 147.96 282.06 147.96 281.88 147.78ZM280.35 153.81C279.54 153.81 278.73 153.45 278.19 152.82C278.01 152.64 278.01 152.37 278.19 152.19C278.37 152.01 278.64 152.01 278.82 152.19C279.27 152.64 279.81 152.82 280.35 152.91C280.89 152.91 281.52 152.73 281.97 152.37C282.15 152.19 282.42 152.19 282.6 152.46C282.78 152.73 282.78 152.91 282.51 153.09C281.97 153.54 281.16 153.9 280.35 153.81ZM269.37 181.44L263.34 172.08C263.25 171.9 263.25 171.63 263.43 171.45C263.61 171.36 263.88 171.36 264.06 171.54L270.09 180.9C271.08 182.43 271.62 182.52 273.15 181.62C274.77 180.63 279.63 175.5 279.72 175.41C279.9 175.23 280.17 175.23 280.35 175.41C280.53 175.59 280.53 175.86 280.35 176.04C280.17 176.22 275.31 181.35 273.6 182.43C271.71 183.69 270.63 183.33 269.37 181.44Z" fill="black"/>
<path d="M279.809 176.13C279.629 176.04 279.539 175.77 279.629 175.5C279.719 175.32 279.989 175.23 280.259 175.32C281.789 176.22 284.489 177.57 285.569 177.39C286.739 177.12 287.189 176.76 286.379 175.23L283.769 169.92C283.679 169.74 283.769 169.47 283.949 169.29C284.129 169.2 284.399 169.29 284.579 169.47L287.189 174.78C288.089 176.67 287.729 177.84 285.659 178.2C284.309 178.65 281.159 176.94 279.809 176.13Z" fill="black"/>
<path d="M252.989 384.66V382.41H239.669C239.489 386.73 239.129 394.92 239.039 394.92H260.729C261.449 387.72 252.989 384.66 252.989 384.66Z" fill="#F81F8B"/>
<path d="M260.369 391.77C260.639 392.67 260.819 393.75 260.639 394.92H238.949C238.949 394.92 239.039 393.66 239.129 391.77H260.369Z" fill="#060405"/>
<path d="M296.552 384.66V382.41H283.232C283.052 386.73 282.692 394.92 282.602 394.92H304.292C305.012 387.72 296.552 384.66 296.552 384.66Z" fill="#F81F8B"/>
<path d="M303.932 391.77C304.202 392.67 304.382 393.75 304.202 394.92H282.512C282.512 394.92 282.602 393.66 282.692 391.77H303.932Z" fill="#060405"/>
<path d="M238.228 224.28L281.788 227.52C281.788 227.52 282.778 221.31 285.298 222.75C287.818 224.19 285.298 226.35 285.298 226.35C285.298 226.35 299.608 226.44 295.828 235.44C292.048 244.44 278.638 238.95 278.638 238.95C278.638 238.95 230.488 253.71 219.328 241.74" fill="white"/>
<path d="M236.341 247.05C228.871 247.05 222.391 245.79 219.061 242.19C218.881 242.01 218.881 241.74 219.061 241.56C219.241 241.38 219.511 241.38 219.691 241.56C230.581 253.17 278.101 238.77 278.551 238.59H278.821C278.911 238.68 291.871 243.81 295.381 235.26C296.191 233.28 296.191 231.66 295.291 230.4C292.951 226.89 285.301 226.8 285.211 226.8C285.031 226.8 284.851 226.71 284.761 226.53C284.671 226.35 284.761 226.17 284.851 225.99C285.121 225.72 285.841 224.91 285.841 224.19C285.841 223.74 285.481 223.38 284.941 223.11C284.491 222.84 284.311 222.93 284.131 223.02C283.141 223.47 282.331 226.08 282.151 227.52C282.151 227.79 281.881 227.88 281.701 227.88L238.141 224.64C237.871 224.64 237.691 224.37 237.691 224.19C237.691 224.01 237.961 223.74 238.141 223.74L281.341 226.98C281.521 225.81 282.241 222.93 283.771 222.21C284.131 222.03 284.761 221.94 285.481 222.3C286.291 222.75 286.741 223.38 286.831 224.1C286.921 224.82 286.561 225.45 286.201 225.9C288.451 226.08 293.941 226.71 296.011 229.86C297.001 231.39 297.091 233.37 296.191 235.53C292.501 244.26 280.081 239.94 278.641 239.4C276.211 240.3 253.531 247.05 236.341 247.05ZM326.521 238.32H310.231C308.341 238.32 306.991 236.61 307.441 234.81L314.101 207.45C314.371 206.19 315.541 205.29 316.891 205.29H333.181C335.071 205.29 336.421 207 335.971 208.8L329.311 236.16C328.951 237.42 327.871 238.32 326.521 238.32Z" fill="#060405"/>
<path d="M328.048 233.01C325.348 230.94 325.078 226.71 327.418 223.65C329.758 220.59 333.898 219.78 336.688 221.85C339.388 223.92 330.748 235.08 328.048 233.01Z" fill="white"/>
<path d="M328.86 233.73C328.5 233.73 328.14 233.64 327.78 233.37C324.9 231.12 324.54 226.62 327.06 223.38C329.58 220.05 333.99 219.24 336.96 221.49C338.58 222.75 337.05 226.35 334.8 229.32C332.91 231.66 330.57 233.73 328.86 233.73ZM328.32 232.65C329.22 233.37 331.74 231.66 333.99 228.69C336.24 225.72 337.32 222.84 336.33 222.12C333.81 220.23 329.94 220.95 327.69 223.83C325.44 226.71 325.8 230.76 328.32 232.65Z" fill="#060405"/>
<path d="M209.881 105.48V147.6H138.691V105.39C138.691 102.6 140.941 100.44 143.641 100.44H204.931C207.721 100.44 209.881 102.69 209.881 105.48Z" fill="#FA58E0"/>
<path d="M209.881 147.6V156.6C209.881 159.39 207.631 161.55 204.931 161.55H143.641C140.851 161.55 138.691 159.3 138.691 156.6V147.6H209.881Z" fill="black"/>
<path d="M144.991 138.69C144.811 138.69 144.541 138.6 144.361 138.51C143.731 138.15 143.461 137.34 143.821 136.71C146.161 132.57 151.651 130.68 155.971 132.39C156.781 132.75 157.591 133.2 158.401 133.65C160.021 134.55 161.371 135.27 162.631 135C164.161 134.64 165.151 132.75 166.051 130.95L166.321 130.41C167.851 127.44 171.361 122.13 177.391 120.69C180.721 119.88 184.141 120.33 187.651 121.05L188.011 121.14C190.981 121.68 194.041 122.22 196.831 121.77C199.351 121.32 202.231 119.7 202.951 117C203.131 116.28 203.851 115.83 204.571 116.01C205.291 116.19 205.741 116.91 205.561 117.63C204.661 121.05 201.421 123.66 197.281 124.38C193.951 124.92 190.711 124.38 187.471 123.75L187.111 123.66C183.961 123.03 180.811 122.58 178.021 123.3C174.331 124.2 171.001 127.26 168.661 131.67L168.391 132.21C167.311 134.37 165.961 136.98 163.171 137.7C160.831 138.24 158.761 137.16 156.961 136.08C156.241 135.63 155.521 135.27 154.801 135C151.651 133.74 147.601 135.18 145.981 138.15C145.891 138.42 145.441 138.69 144.991 138.69ZM144.991 151.47H177.481V153.18H144.991V151.47ZM155.971 154.98H159.391V156.69H155.971V154.98Z" fill="white"/>
<path d="M393.3 151.11H319.32L339.39 130.14L347.49 137.43L372.15 111.78L385.47 125.37L393.3 117V151.11Z" fill="#FCF0CF"/>
<path d="M385.469 127.98C386.911 127.98 388.079 126.811 388.079 125.37C388.079 123.929 386.911 122.76 385.469 122.76C384.028 122.76 382.859 123.929 382.859 125.37C382.859 126.811 384.028 127.98 385.469 127.98Z" fill="black"/>
<path d="M372.329 114.39C373.77 114.39 374.939 113.221 374.939 111.78C374.939 110.339 373.77 109.17 372.329 109.17C370.887 109.17 369.719 110.339 369.719 111.78C369.719 113.221 370.887 114.39 372.329 114.39Z" fill="black"/>
<path d="M347.309 139.59C348.751 139.59 349.919 138.421 349.919 136.98C349.919 135.539 348.751 134.37 347.309 134.37C345.868 134.37 344.699 135.539 344.699 136.98C344.699 138.421 345.868 139.59 347.309 139.59Z" fill="black"/>
<path d="M339.301 132.66C340.743 132.66 341.911 131.491 341.911 130.05C341.911 128.609 340.743 127.44 339.301 127.44C337.86 127.44 336.691 128.609 336.691 130.05C336.691 131.491 337.86 132.66 339.301 132.66Z" fill="black"/>
<path d="M350.01 355.5C346.14 356.85 339.3 357.39 335.16 348.3C330.93 339.3 335.97 323.37 328.68 316.26C328.68 316.26 337.23 316.53 344.97 324C352.71 331.56 362.52 351.09 350.01 355.5Z" fill="#008080"/>
<path d="M373.589 334.44C373.499 334.62 373.499 334.89 373.409 335.07C371.519 342.18 367.379 347.31 359.819 346.41C354.509 345.78 346.229 342.45 346.589 329.49C346.679 326.7 347.399 323.82 348.479 320.76C348.569 320.58 348.659 320.31 348.749 320.13C352.799 309.42 360.899 297.99 357.389 288.36C357.659 288.54 367.289 293.76 371.969 306.81L372.149 307.44C374.489 314.64 375.569 325.89 373.589 334.44Z" fill="#12A67C"/>
<path d="M359.641 326.34H360.541V369.54H359.641V326.34Z" fill="#060405"/>
<path d="M392.761 316.26C389.521 319.41 388.711 324.18 388.441 329.4V330.12C388.171 336.51 388.531 343.44 386.281 348.3C385.921 349.11 385.561 349.83 385.111 350.46C385.021 350.64 384.841 350.82 384.751 351C380.611 357.21 374.851 356.67 371.341 355.5C362.341 352.35 364.951 341.37 369.991 332.64C370.081 332.46 370.171 332.28 370.351 332.1C372.241 328.95 374.401 326.07 376.471 324.09C384.211 316.53 392.761 316.26 392.761 316.26Z" fill="#008080"/>
<path d="M362.906 371.135L377.576 341.34L378.383 341.738L363.714 371.532L362.906 371.135Z" fill="#060405"/>
<path d="M343.098 341.707L343.905 341.31L358.58 371.102L357.773 371.499L343.098 341.707Z" fill="#060405"/>
<path d="M368.369 394.92H354.959C354.149 394.92 353.429 394.29 353.339 393.57L347.939 370.26C347.759 369.27 348.569 368.37 349.559 368.37L373.949 368.46C374.939 368.46 375.749 369.36 375.569 370.35L369.989 393.66C369.899 394.29 369.179 394.92 368.369 394.92Z" fill="white"/>
<path d="M368.37 395.37H354.96C353.97 395.37 353.07 394.65 352.89 393.57L347.49 370.26C347.31 368.91 348.3 367.83 349.56 367.83L373.95 367.92C375.21 367.92 376.2 369.09 376.02 370.35L370.44 393.66C370.35 394.56 369.45 395.37 368.37 395.37ZM349.56 368.64C348.84 368.64 348.3 369.27 348.39 369.99L353.79 393.3C353.88 393.93 354.42 394.38 354.96 394.38H368.37C369 394.38 369.45 393.93 369.54 393.39L375.12 370.08C375.21 369.36 374.67 368.73 373.95 368.73L349.56 368.64Z" fill="#060405"/>
<path d="M388.441 329.4V330.12L385.291 331.74L385.021 331.2L388.441 329.4ZM385.111 350.46C385.021 350.64 384.841 350.82 384.751 351L383.401 349.38L383.851 349.02L385.111 350.46ZM352.261 323.37L351.811 323.82L348.391 320.76C348.481 320.58 348.571 320.31 348.661 320.13L352.261 323.37ZM373.591 334.44C373.501 334.62 373.501 334.89 373.411 335.07C372.781 334.62 371.791 333.9 370.081 332.64C370.171 332.46 370.261 332.28 370.441 332.1C371.521 333 372.781 333.9 373.591 334.44Z" fill="white"/>
<path d="M228.782 313.74H203.492C203.312 313.74 203.132 313.56 203.132 313.38C203.132 313.2 203.312 313.02 203.492 313.02H228.782C228.962 313.02 229.142 313.2 229.142 313.38C229.142 313.56 228.962 313.74 228.782 313.74ZM228.782 326.34H203.492C203.312 326.34 203.132 326.16 203.132 325.98C203.132 325.8 203.312 325.62 203.492 325.62H228.782C228.962 325.62 229.142 325.8 229.142 325.98C229.142 326.16 228.962 326.34 228.782 326.34ZM224.192 320.04H188.462C188.282 320.04 188.102 319.86 188.102 319.68C188.102 319.5 188.282 319.32 188.462 319.32H224.192C224.372 319.32 224.552 319.5 224.552 319.68C224.552 319.86 224.372 320.04 224.192 320.04Z" fill="#25E498"/>
<path d="M208.712 313.74C208.532 313.74 208.352 313.56 208.352 313.38V308.07C208.352 307.89 208.532 307.71 208.712 307.71C208.892 307.71 209.072 307.89 209.072 308.07V313.38C209.072 313.65 208.892 313.74 208.712 313.74ZM217.622 320.04C217.442 320.04 217.262 319.86 217.262 319.68V313.38C217.262 313.2 217.442 313.02 217.622 313.02C217.802 313.02 217.982 313.2 217.982 313.38V319.68C217.892 319.86 217.802 320.04 217.622 320.04ZM210.872 326.07C210.692 326.07 210.512 325.89 210.512 325.71V319.68C210.512 319.5 210.692 319.32 210.872 319.32C211.052 319.32 211.232 319.5 211.232 319.68V325.71C211.142 325.98 211.052 326.07 210.872 326.07ZM437.672 77.22H412.382C412.202 77.22 412.022 77.04 412.022 76.86C412.022 76.68 412.202 76.5 412.382 76.5H437.672C437.852 76.5 438.032 76.68 438.032 76.86C438.032 77.04 437.852 77.22 437.672 77.22ZM437.672 89.82H412.382C412.202 89.82 412.022 89.64 412.022 89.46C412.022 89.28 412.202 89.1 412.382 89.1H437.672C437.852 89.1 438.032 89.28 438.032 89.46C438.032 89.64 437.852 89.82 437.672 89.82ZM433.082 83.52H397.352C397.172 83.52 396.992 83.34 396.992 83.16C396.992 82.98 397.172 82.8 397.352 82.8H433.082C433.262 82.8 433.442 82.98 433.442 83.16C433.442 83.34 433.262 83.52 433.082 83.52Z" fill="#25E498"/>
<path d="M417.598 77.22C417.418 77.22 417.238 77.04 417.238 76.86V71.55C417.238 71.37 417.418 71.19 417.598 71.19C417.778 71.19 417.958 71.37 417.958 71.55V76.86C417.868 77.13 417.778 77.22 417.598 77.22ZM426.418 83.52C426.238 83.52 426.058 83.34 426.058 83.16V76.86C426.058 76.68 426.238 76.5 426.418 76.5C426.598 76.5 426.778 76.68 426.778 76.86V83.16C426.778 83.34 426.598 83.52 426.418 83.52ZM419.668 89.55C419.488 89.55 419.308 89.37 419.308 89.19V83.16C419.308 82.98 419.488 82.8 419.668 82.8C419.848 82.8 420.028 82.98 420.028 83.16V89.19C420.028 89.46 419.848 89.55 419.668 89.55ZM118.168 101.52H92.8783C92.6983 101.52 92.5183 101.34 92.5183 101.16C92.5183 100.98 92.6983 100.8 92.8783 100.8H118.168C118.348 100.8 118.528 100.98 118.528 101.16C118.528 101.34 118.348 101.52 118.168 101.52ZM118.168 114.03H92.8783C92.6983 114.03 92.5183 113.85 92.5183 113.67C92.5183 113.49 92.6983 113.31 92.8783 113.31H118.168C118.348 113.31 118.528 113.49 118.528 113.67C118.528 113.85 118.348 114.03 118.168 114.03ZM113.578 107.82H77.8483C77.6683 107.82 77.4883 107.64 77.4883 107.46C77.4883 107.28 77.6683 107.1 77.8483 107.1H113.578C113.758 107.1 113.938 107.28 113.938 107.46C113.938 107.64 113.758 107.82 113.578 107.82Z" fill="#25E498"/>
<path d="M98.0983 101.52C97.9183 101.52 97.7383 101.34 97.7383 101.16V95.85C97.7383 95.67 97.9183 95.49 98.0983 95.49C98.2783 95.49 98.4583 95.67 98.4583 95.85V101.16C98.4583 101.43 98.2783 101.52 98.0983 101.52ZM107.008 107.82C106.828 107.82 106.648 107.64 106.648 107.46V101.16C106.648 100.98 106.828 100.8 107.008 100.8C107.188 100.8 107.368 100.98 107.368 101.16V107.46C107.278 107.64 107.188 107.82 107.008 107.82ZM100.168 113.85C99.9883 113.85 99.8083 113.67 99.8083 113.49V107.46C99.8083 107.28 99.9883 107.1 100.168 107.1C100.348 107.1 100.528 107.28 100.528 107.46V113.49C100.528 113.67 100.438 113.85 100.168 113.85Z" fill="#25E498"/>
</svg>
