<?xml version="1.0" encoding="utf-8"?>
<!-- Generator: Adobe Illustrator 27.6.1, SVG Export Plug-In . SVG Version: 6.00 Build 0)  -->
<svg version="1.1" id="Layer_1" xmlns="http://www.w3.org/2000/svg" xmlns:xlink="http://www.w3.org/1999/xlink" x="0px" y="0px"
	 viewBox="0 0 957.4 480" style="enable-background:new 0 0 957.4 480;" xml:space="preserve">
<style type="text/css">
	.st0{display:none;}
	.st1{display:inline;}
	.st2{display:inline;clip-path:url(#SVGID_00000023243038459109809610000010619978353336747438_);}
	.st3{fill:url(#SVGID_00000075138182631282172010000004093311701869134732_);}
	.st4{fill:url(#SVGID_00000116227159632377615070000013155878484390590388_);}
	.st5{display:inline;clip-path:url(#SVGID_00000163767917420511500180000001777036318729579961_);}
	.st6{fill:url(#SVGID_00000000939814024194498460000006300376890881530793_);}
	.st7{fill:url(#SVGID_00000088108412850554501300000010961549959840004031_);}
	.st8{display:inline;clip-path:url(#SVGID_00000101101158890901218610000008577013200067312784_);}
	.st9{fill:url(#SVGID_00000164478390088097309680000015087987595236903323_);}
	.st10{fill:url(#SVGID_00000065063544600934747220000003017323788452800901_);}
	.st11{fill:url(#SVGID_00000111160974277271238340000004060751561979040417_);}
	.st12{fill:url(#SVGID_00000095321895391153408610000009230844815489997191_);}
</style>
<g class="st0">
	<defs>
		<rect id="SVGID_1_" x="2681.1" y="1058.3" width="236.1" height="85.3"/>
	</defs>
	<clipPath id="SVGID_00000016794338586069346030000011308038874343216260_" class="st1">
		<use xlink:href="#SVGID_1_"  style="overflow:visible;"/>
	</clipPath>
	<g style="display:inline;clip-path:url(#SVGID_00000016794338586069346030000011308038874343216260_);">
		<path d="M2780.8,1130.4h-6.7v-1c0-6.6,0.1-13.1,0-19.7c0-1.6-0.3-3.2-0.8-4.8c-0.6-1.9-2.2-3-4.2-3.2c-1.9-0.3-3.8-0.1-5.6,0.9
			c-2,1-3,2.7-3,4.9c0,7.4,0,14.7,0,22.1v0.9h-6.7v-1c0-6.5,0-13,0-19.5c0-1.8-0.2-3.5-0.9-5.2c-0.8-1.6-2-2.6-3.8-2.9
			c-2.2-0.4-4.3-0.1-6.2,1c-1.8,1.1-2.7,2.7-2.7,4.8c0,7.3,0,14.6,0,22c0,0.3,0,0.6,0,0.9h-6.5v-33.7h6.6v5.5c0.1,0,0.2,0.1,0.2,0.1
			c1.8-4.3,4.9-6.8,9.7-6.5c4.6,0.3,7.9,2.4,9.6,6.9c1.3-3,3.2-5.3,6.3-6.2c4-1.2,7.8-1,11.1,1.9c2.1,1.8,3,4.3,3.4,7
			c0.2,1.3,0.3,2.6,0.3,3.9c0,6.7,0,13.4,0,20.1L2780.8,1130.4L2780.8,1130.4z"/>
		<path d="M2797.5,1124.9v18.4h-6.6v-46.7h6.6v5.4c0.1,0,0.2,0,0.2,0c0.1-0.2,0.3-0.5,0.4-0.7c1.4-3.1,3.8-4.8,7.1-5.4
			c6.3-1.1,11.6,1.9,14.1,7.8c1.6,3.8,1.9,7.8,1.6,11.9c-0.2,2.6-0.6,5.1-1.6,7.4c-1.7,4.1-4.6,7-9.1,7.8c-3.4,0.6-6.8,0.3-9.5-2.1
			c-1-0.9-1.7-2.1-2.5-3.2c-0.2-0.2-0.3-0.5-0.4-0.7C2797.7,1124.9,2797.6,1124.9,2797.5,1124.9L2797.5,1124.9z M2814,1113.5
			c0,0-0.1,0-0.1,0c0-1.4,0.1-2.7,0-4.1c-0.3-3.3-1.7-5.9-4.9-7.2c-2.5-1-5.1-0.9-7.6,0.2c-2.6,1.1-3.9,3-3.9,6
			c0.1,3.5,0,7.1,0,10.6c0,2.5,1.1,4.2,3.2,5.4c1.4,0.8,3,1.1,4.6,1.1c4.5,0.1,7.6-2.5,8.4-6.9
			C2814,1116.9,2813.9,1115.2,2814,1113.5L2814,1113.5z"/>
		<path d="M2890,1137.9c1.6,0,3.2,0,4.8,0c0.6,0,0.9-0.2,1-0.8c0.5-1.5,1.1-3.1,1.6-4.6c0.1-0.5,0.1-1,0-1.5
			c-3.9-11.1-7.8-22.2-11.7-33.3c-0.1-0.3-0.2-0.7-0.4-1.2h4.4c1.5,0,2.6,0.7,3.1,2.2c2,5.9,4.1,11.8,6,17.7
			c0.7,2.2,1.3,4.4,1.9,6.6c0.1,0.3,0.2,0.7,0.5,1c0.1-0.2,0.2-0.4,0.3-0.7c2.9-8.7,5.8-17.4,8.7-26.2c0.2-0.5,0.4-0.7,1-0.7
			c1.8,0,3.7,0,5.6,0c-0.1,0.3-0.1,0.6-0.2,0.8c-4.8,13.5-9.5,27-14.3,40.5c-0.3,0.7-0.6,1.4-1,2.1c-1,2-2.7,3.1-4.9,3.3
			c-2.1,0.2-4.2,0.2-6.4,0.3L2890,1137.9L2890,1137.9z"/>
		<path d="M2681.1,1124.7c1.5-1.3,2.9-2.6,4.2-3.7c1.6,1.2,2.9,2.5,4.5,3.4c2.8,1.6,5.9,1.7,9,0.7c1.8-0.6,2.7-2.1,2.7-4.1
			c0-1.7-0.9-3.3-2.6-3.8c-1.5-0.5-3.2-0.6-4.8-1c-2-0.5-4.1-0.8-6-1.6c-4.1-1.6-6.1-4.9-5.7-9.4c0.4-4.6,3.1-7.7,7.8-8.9
			c3.9-1,7.8-0.9,11.6,0.7c2.2,0.9,4,2.4,5.4,3.9c-1.3,1.4-2.6,2.8-3.8,4.2c-1.6-1.6-3.3-2.9-5.4-3.5c-2.2-0.6-4.4-0.6-6.5,0.2
			c-1.7,0.7-2.5,2-2.5,3.7c0,1.7,0.6,3.1,2.3,3.6c1.9,0.6,3.9,1,5.9,1.4c2.3,0.4,4.5,0.8,6.6,1.9c2.7,1.5,4.1,3.8,4.4,6.9
			c0.5,5.8-3.2,10.2-9.3,11.4c-3.3,0.6-6.6,0.5-9.8-0.5C2685.7,1129.3,2683.2,1127.3,2681.1,1124.7L2681.1,1124.7z"/>
		<path d="M2873.4,1096.5h7v5.5h-7v28.3h-6.7v-28.2h-5.2v-5.5h5.2c0-2-0.1-3.9,0-5.7c0-1.2,0.2-2.4,0.5-3.5c0.8-2.8,3.1-4.8,6-5
			c2.4-0.1,4.8,0,7.2,0v5.4h-7L2873.4,1096.5L2873.4,1096.5z"/>
		<path d="M2836,1124.9h4.7v5.6c-2.2-0.1-4.5-0.1-6.7-0.4c-2.4-0.3-3.9-2-4.5-4.3c-0.2-0.6-0.2-1.3-0.2-2c0-13.7,0-27.3,0-41
			c0-0.2,0-0.4,0.1-0.6h6.6L2836,1124.9L2836,1124.9z"/>
		<path d="M2854.3,1096.6v33.7h-6.5v-33.7H2854.3z"/>
		<path d="M2722.9,1130.3h-6.5v-33.7h6.5V1130.3z"/>
		
			<linearGradient id="SVGID_00000176030686396712526430000009396646867730130576_" gradientUnits="userSpaceOnUse" x1="2434.8518" y1="-437.1638" x2="2467.2261" y2="-429.828" gradientTransform="matrix(1 0 0 -1 287 652.1318)">
			<stop  offset="0" style="stop-color:#0686FF;stop-opacity:0.37"/>
			<stop  offset="0.5781" style="stop-color:#0686FF"/>
		</linearGradient>
		<path style="fill:url(#SVGID_00000176030686396712526430000009396646867730130576_);" d="M2719.9,1091.2c-0.8,0-1.5-0.3-2.2-0.8
			c-1.4-1.2-1.5-3.3-0.3-4.6c1.9-2.2,9.1-9.4,20.4-9.9c13.1-0.6,21.5,8.1,23,9.9c1.2,1.4,1.1,3.4-0.3,4.6c-1.4,1.2-3.4,1.1-4.6-0.3
			c-1.2-1.4-7.7-8.1-17.8-7.7c-8.8,0.4-14.3,6-15.8,7.7C2721.7,1090.8,2720.8,1091.2,2719.9,1091.2z"/>
		<circle cx="2719.9" cy="1087.8" r="3.8"/>
		
			<linearGradient id="SVGID_00000036950069117811398220000017310067031434905729_" gradientUnits="userSpaceOnUse" x1="2555.842" y1="-450.4766" x2="2480.4812" y2="-412.3485" gradientTransform="matrix(1 0 0 -1 287 652.1318)">
			<stop  offset="0" style="stop-color:#0686FF;stop-opacity:0.37"/>
			<stop  offset="0.2016" style="stop-color:#0686FF"/>
		</linearGradient>
		<path style="fill:url(#SVGID_00000036950069117811398220000017310067031434905729_);" d="M2758.5,1091.3c1.1,0,2.2-0.6,2.8-1.6
			c9.6-15.8,26.8-25.3,45.1-24.8c27.3,0.8,41.5,23.8,42.1,24.8c0.9,1.6,3,2,4.5,1.1s2-3,1.1-4.5c-0.7-1.1-16.7-27-47.5-27.9
			c-20.6-0.6-40.1,10.1-50.9,27.9c-0.9,1.6-0.4,3.6,1.1,4.5C2757.3,1091.1,2757.9,1091.3,2758.5,1091.3z"/>
		<circle cx="2851.1" cy="1087.8" r="3.8"/>
	</g>
</g>
<g class="st0">
	<defs>
		<rect id="SVGID_00000049223958950837325790000016572544838502437524_" x="1601.9" y="987.2" width="629.7" height="227.4"/>
	</defs>
	<clipPath id="SVGID_00000146485018032732880500000005705117460637518251_" class="st1">
		<use xlink:href="#SVGID_00000049223958950837325790000016572544838502437524_"  style="overflow:visible;"/>
	</clipPath>
	<g style="display:inline;clip-path:url(#SVGID_00000146485018032732880500000005705117460637518251_);">
		<path d="M1867.9,1179.4h-18v-2.8c0-17.5,0.1-35-0.1-52.5c-0.1-4.2-0.9-8.6-2.2-12.7c-1.6-5.2-5.8-7.9-11.1-8.7
			c-5.2-0.7-10.2-0.2-14.9,2.3c-5.2,2.8-8,7.1-8,13.1c0,19.6,0,39.2,0,58.8v2.3h-17.9v-2.8c0-17.4,0-34.7,0-52.1
			c0-4.8-0.4-9.4-2.5-13.8c-2-4.3-5.5-6.9-10.1-7.7c-5.8-1-11.5-0.3-16.6,2.8c-4.8,2.8-7.2,7.1-7.2,12.7c0,19.5,0,39.1,0,58.6
			c0,0.8-0.1,1.5-0.1,2.4h-17.4v-89.9h17.6v14.6c0.2,0.1,0.4,0.2,0.6,0.4c4.9-11.5,13-18,25.8-17.3c12.3,0.7,21.1,6.4,25.6,18.3
			c3.5-8,8.7-14.1,16.9-16.6c10.6-3.2,20.9-2.8,29.7,5c5.5,4.9,8.1,11.4,9.1,18.6c0.5,3.4,0.7,6.9,0.8,10.4c0.1,17.8,0,35.7,0,53.5
			L1867.9,1179.4L1867.9,1179.4z"/>
		<path d="M1912.5,1165v49.1h-17.7v-124.7h17.7v14.5c0.2,0,0.4,0.1,0.6,0.1c0.3-0.6,0.7-1.3,1-1.9c3.7-8.2,10.2-12.9,19-14.4
			c16.9-2.9,31,5.1,37.5,20.9c4.2,10.2,5,20.9,4.3,31.7c-0.4,6.8-1.6,13.5-4.4,19.9c-4.7,10.9-12.2,18.6-24.3,20.8
			c-9.2,1.6-18.1,0.9-25.4-5.7c-2.6-2.4-4.5-5.6-6.7-8.5c-0.4-0.6-0.7-1.3-1-1.9C1912.9,1164.8,1912.7,1164.9,1912.5,1165
			L1912.5,1165z M1956.3,1134.4c-0.1,0-0.2,0-0.3,0c0-3.6,0.2-7.3,0-10.9c-0.7-8.8-4.5-15.8-13-19.3c-6.7-2.8-13.7-2.4-20.4,0.5
			c-7,3-10.5,8.1-10.3,16c0.3,9.4,0.1,18.9,0.1,28.4c0,6.5,3,11.2,8.6,14.3c3.8,2.1,8,2.9,12.3,2.9c11.9,0.2,20.3-6.6,22.3-18.4
			C1956.3,1143.5,1956.1,1138.9,1956.3,1134.4L1956.3,1134.4z"/>
		<path d="M2159.1,1199.6c4.4,0,8.6-0.1,12.9,0c1.6,0.1,2.3-0.6,2.8-2c1.3-4.1,2.9-8.2,4.2-12.3c0.4-1.2,0.4-2.8,0-4
			c-10.3-29.7-20.8-59.3-31.2-88.9c-0.3-0.9-0.6-1.9-1-3.2h11.6c4.1,0,6.8,1.9,8.2,5.8c5.4,15.7,10.8,31.5,16.1,47.2
			c1.9,5.8,3.3,11.7,5,17.6c0.3,0.9,0.6,1.8,1.4,2.8c0.3-0.6,0.6-1.2,0.8-1.7c7.8-23.2,15.6-46.5,23.3-69.8c0.5-1.4,1-2,2.6-1.9
			c4.9,0.1,9.8,0,14.9,0c-0.2,0.8-0.3,1.5-0.6,2.1c-12.7,36-25.4,72-38.1,107.9c-0.7,2-1.7,3.8-2.7,5.7c-2.7,5.3-7.2,8.3-13.1,8.8
			c-5.6,0.5-11.3,0.5-17.1,0.8L2159.1,1199.6L2159.1,1199.6z"/>
		<path d="M1601.9,1164.4c4-3.5,7.7-6.9,11.1-9.9c4.2,3.2,7.8,6.6,12,9c7.6,4.3,15.8,4.7,24.1,1.8c4.9-1.7,7.2-5.6,7.3-11
			c0-4.7-2.4-8.7-7-10.1c-4.1-1.3-8.5-1.6-12.7-2.6c-5.4-1.2-11-2.2-16.1-4.2c-11-4.2-16.2-13.1-15.2-24.9
			c1-12.1,8.2-20.6,20.7-23.7c10.4-2.6,20.7-2.3,30.8,1.7c5.9,2.3,10.6,6.3,14.3,10.4c-3.5,3.8-6.8,7.5-10.2,11.2
			c-4.2-4.4-8.7-7.8-14.4-9.3c-5.8-1.5-11.7-1.7-17.4,0.6c-4.5,1.8-6.6,5.3-6.7,10c-0.1,4.5,1.7,8.3,6.1,9.7
			c5.1,1.6,10.5,2.7,15.8,3.6c6,1.1,12,2.1,17.5,5.1c7.3,4,11,10.2,11.6,18.4c1.3,15.5-8.4,27.3-24.8,30.5
			c-8.8,1.7-17.6,1.4-26.2-1.4C1614.1,1176.5,1607.6,1171.2,1601.9,1164.4L1601.9,1164.4z"/>
		<path d="M2114.7,1089.2h18.6v14.8h-18.7v75.4h-17.8v-75.2h-14v-14.8h13.9c0-5.3-0.2-10.3,0.1-15.3c0.1-3.1,0.5-6.3,1.3-9.4
			c2.1-7.6,8.3-12.8,16.1-13.3c6.3-0.4,12.7-0.1,19.2-0.1v14.3h-18.6L2114.7,1089.2L2114.7,1089.2z"/>
		<path d="M2015,1164.8h12.6v15c-6-0.3-11.9-0.1-17.8-1c-6.5-0.9-10.3-5.2-11.9-11.5c-0.4-1.7-0.6-3.5-0.6-5.3
			c0-36.4,0-72.8,0-109.3c0-0.5,0.1-1,0.1-1.7h17.6L2015,1164.8L2015,1164.8z"/>
		<path d="M2064,1089.4v89.9h-17.4v-89.9H2064z"/>
		<path d="M1713.4,1179.4H1696v-89.9h17.4V1179.4z"/>
		
			<linearGradient id="SVGID_00000026857788053984443280000013109170468885077385_" gradientUnits="userSpaceOnUse" x1="1423.6016" y1="-417.7545" x2="1509.9568" y2="-398.187" gradientTransform="matrix(1 0 0 -1 287 652.1318)">
			<stop  offset="0" style="stop-color:#0686FF;stop-opacity:0.37"/>
			<stop  offset="0.5781" style="stop-color:#0686FF"/>
		</linearGradient>
		<path style="fill:url(#SVGID_00000026857788053984443280000013109170468885077385_);" d="M1705.4,1074.9c-2.1,0-4.1-0.7-5.8-2.2
			c-3.6-3.2-4-8.7-0.8-12.3c5.1-5.8,24.2-25,54.5-26.3c35-1.6,57.3,21.6,61.5,26.3c3.2,3.6,2.9,9.1-0.8,12.3
			c-3.6,3.2-9.2,2.9-12.3-0.8c-3.2-3.6-20.5-21.6-47.6-20.4c-23.4,1-38.2,15.9-42.2,20.4C1710.2,1073.9,1707.8,1074.9,1705.4,1074.9
			z"/>
		<circle cx="1705.4" cy="1066" r="10.2"/>
		
			<linearGradient id="SVGID_00000116931011894926938370000011353326890639215508_" gradientUnits="userSpaceOnUse" x1="1746.3303" y1="-453.2649" x2="1545.3136" y2="-351.5622" gradientTransform="matrix(1 0 0 -1 287 652.1318)">
			<stop  offset="0" style="stop-color:#0686FF;stop-opacity:0.37"/>
			<stop  offset="0.2016" style="stop-color:#0686FF"/>
		</linearGradient>
		<path style="fill:url(#SVGID_00000116931011894926938370000011353326890639215508_);" d="M1808.3,1075.1c3,0,5.8-1.5,7.5-4.2
			c25.5-42.2,71.6-67.5,120.3-66.1c72.9,2.1,110.7,63.5,112.3,66.1c2.5,4.1,7.9,5.5,12,3c4.1-2.5,5.5-7.9,3-12
			c-1.8-2.9-44.4-72.1-126.8-74.5c-55-1.6-107,26.9-135.8,74.5c-2.5,4.1-1.2,9.5,3,12C1805.2,1074.7,1806.8,1075.1,1808.3,1075.1z"
			/>
		<circle cx="2055.2" cy="1066" r="10.2"/>
	</g>
</g>
<g class="st0">
	<defs>
		<rect id="SVGID_00000118367960981207502930000011024762595241084591_" x="-72.8" y="892.2" width="1156.2" height="417.5"/>
	</defs>
	<clipPath id="SVGID_00000143591550369853622400000005362091595462024837_" class="st1">
		<use xlink:href="#SVGID_00000118367960981207502930000011024762595241084591_"  style="overflow:visible;"/>
	</clipPath>
	<g style="display:inline;clip-path:url(#SVGID_00000143591550369853622400000005362091595462024837_);">
		<path d="M415.6,1245h-33v-5.1c0-32.2,0.3-64.3-0.2-96.5c-0.1-7.8-1.7-15.8-4.1-23.3c-3-9.5-10.7-14.5-20.4-15.9
			c-9.5-1.4-18.8-0.3-27.4,4.2c-9.6,5.1-14.7,13.1-14.6,24.1c0.1,36,0,72,0,108v4.2h-32.9v-5.1c0-31.9,0-63.8,0-95.6
			c0-8.7-0.8-17.3-4.6-25.4c-3.7-7.9-10-12.6-18.5-14.2c-10.7-1.9-21-0.5-30.5,5.1c-8.8,5.2-13.2,13.1-13.2,23.3
			c0,35.9,0,71.7,0,107.6c0,1.4-0.1,2.8-0.2,4.4h-32v-165.1h32.3v26.9c0.4,0.2,0.8,0.5,1.2,0.7c8.9-21.2,23.8-33.1,47.5-31.7
			c22.6,1.3,38.7,11.8,47,33.6c6.5-14.7,15.9-26,31-30.5c19.5-5.8,38.4-5.1,54.6,9.2c10.1,9,14.9,21,16.7,34.2
			c0.9,6.3,1.4,12.7,1.4,19.1c0.1,32.7,0.1,65.5,0.1,98.2L415.6,1245L415.6,1245z"/>
		<path d="M497.5,1218.5v90.2h-32.4v-228.9h32.4v26.6c0.4,0.1,0.8,0.2,1.2,0.2c0.6-1.2,1.2-2.3,1.8-3.5
			c6.8-15.1,18.8-23.7,34.8-26.5c31-5.3,56.9,9.3,68.9,38.4c7.7,18.7,9.2,38.3,7.9,58.2c-0.8,12.6-3,24.8-8,36.5
			c-8.6,20.1-22.4,34.2-44.6,38.1c-16.8,3-33.2,1.7-46.6-10.4c-4.8-4.4-8.3-10.4-12.3-15.7c-0.8-1-1.3-2.4-1.9-3.6
			C498.3,1218.2,497.9,1218.4,497.5,1218.5L497.5,1218.5z M578,1162.5c-0.2,0-0.4,0-0.6,0c0-6.7,0.5-13.4-0.1-20
			c-1.4-16.1-8.2-29.1-23.9-35.5c-12.4-5.1-25.2-4.4-37.4,0.8c-12.8,5.4-19.3,14.9-18.9,29.4c0.5,17.3,0.2,34.7,0.1,52.1
			c-0.1,12,5.5,20.6,15.8,26.3c7,3.9,14.7,5.2,22.6,5.4c21.9,0.3,37.3-12.2,40.9-33.8C577.9,1179.1,577.6,1170.7,578,1162.5
			L578,1162.5z"/>
		<path d="M950.3,1282.1c8,0,15.8-0.2,23.6,0.1c3,0.1,4.3-1,5.1-3.7c2.4-7.6,5.3-15,7.6-22.6c0.7-2.2,0.7-5.1-0.1-7.3
			c-19-54.5-38.2-108.9-57.3-163.3c-0.6-1.7-1.1-3.4-1.8-5.9h21.4c7.6,0,12.6,3.6,15,10.7c9.9,28.9,19.9,57.8,29.5,86.7
			c3.5,10.6,6.1,21.6,9.2,32.4c0.5,1.7,1.1,3.4,2.6,5.1c0.5-1.1,1-2.1,1.4-3.2c14.3-42.7,28.6-85.4,42.8-128.2
			c0.8-2.5,1.9-3.6,4.8-3.6c9,0.2,17.9,0.1,27.4,0.1c-0.4,1.5-0.6,2.7-1,3.8c-23.3,66.1-46.6,132.1-70,198.1
			c-1.3,3.6-3.1,7-4.9,10.4c-5,9.8-13.2,15.3-24,16.2c-10.3,0.9-20.7,1-31.3,1.4L950.3,1282.1L950.3,1282.1z"/>
		<path d="M-72.8,1217.5c7.3-6.5,14.2-12.7,20.4-18.3c7.6,5.8,14.3,12.2,22.1,16.6c13.9,7.9,29,8.6,44.2,3.3
			c8.9-3.1,13.3-10.2,13.3-20.3c0.1-8.5-4.4-16-12.9-18.6c-7.5-2.4-15.6-2.9-23.3-4.7c-10-2.3-20.2-4.1-29.6-7.7
			c-20.3-7.8-29.8-24.1-28-45.8c1.8-22.3,15-37.8,38.1-43.6c19.1-4.7,38.1-4.2,56.6,3.2c10.8,4.3,19.4,11.6,26.2,19.2
			c-6.4,7-12.5,13.7-18.8,20.6c-7.7-8-16-14.4-26.5-17c-10.7-2.7-21.4-3.1-31.9,1c-8.2,3.3-12.1,9.7-12.3,18.3
			c-0.2,8.4,3.2,15.2,11.3,17.7c9.4,3,19.2,4.9,29,6.7c11.1,2.1,22.1,3.8,32.2,9.4c13.4,7.4,20.1,18.8,21.4,33.8
			c2.4,28.5-15.5,50.2-45.6,55.9c-16.2,3.1-32.4,2.6-48.1-2.5C-50.3,1239.7-62.3,1230-72.8,1217.5L-72.8,1217.5z"/>
		<path d="M868.9,1079.4H903v27.1h-34.4v138.5h-32.8v-138.2h-25.6v-27.2h25.5c0-9.7-0.3-18.9,0.1-28.1c0.2-5.8,0.9-11.6,2.4-17.2
			c3.8-13.9,15.2-23.5,29.6-24.4c11.6-0.7,23.3-0.1,35.2-0.1v26.3h-34.1L868.9,1079.4L868.9,1079.4z"/>
		<path d="M685.7,1218.2h23.2v27.5c-11-0.5-21.9-0.3-32.6-1.8c-11.9-1.7-19-9.6-21.8-21.2c-0.8-3.1-1.2-6.5-1.2-9.7
			c-0.1-66.9-0.1-133.7,0-200.6c0-1,0.2-1.9,0.3-3.1h32.2L685.7,1218.2L685.7,1218.2z"/>
		<path d="M775.6,1079.7v165.1h-32v-165.1H775.6z"/>
		<path d="M132,1244.9h-31.9v-165.1H132V1244.9z"/>
		
			<linearGradient id="SVGID_00000028284596732667629290000018347193879659527860_" gradientUnits="userSpaceOnUse" x1="-160.1763" y1="-391.7924" x2="-1.6159" y2="-355.8639" gradientTransform="matrix(1 0 0 -1 287 652.1318)">
			<stop  offset="0" style="stop-color:#0686FF;stop-opacity:0.37"/>
			<stop  offset="0.5781" style="stop-color:#0686FF"/>
		</linearGradient>
		<path style="fill:url(#SVGID_00000028284596732667629290000018347193879659527860_);" d="M117.3,1053.1c-3.8,0-7.5-1.3-10.6-4
			c-6.7-5.9-7.3-16-1.4-22.7c9.4-10.7,44.5-45.8,100.1-48.3c64.2-2.9,105.3,39.7,112.8,48.3c5.9,6.6,5.2,16.8-1.4,22.7
			c-6.6,5.9-16.8,5.2-22.7-1.4c-5.9-6.6-37.6-39.7-87.3-37.5c-43,1.9-70.1,29.2-77.4,37.5C126.1,1051.3,121.7,1053.1,117.3,1053.1z"
			/>
		<circle cx="117.3" cy="1036.7" r="18.7"/>
		
			<linearGradient id="SVGID_00000001656291060006542340000002000515977077528220_" gradientUnits="userSpaceOnUse" x1="432.3993" y1="-456.9945" x2="63.3041" y2="-270.254" gradientTransform="matrix(1 0 0 -1 287 652.1318)">
			<stop  offset="0" style="stop-color:#0686FF;stop-opacity:0.37"/>
			<stop  offset="0.2016" style="stop-color:#0686FF"/>
		</linearGradient>
		<path style="fill:url(#SVGID_00000001656291060006542340000002000515977077528220_);" d="M306.2,1053.5c5.4,0,10.7-2.8,13.8-7.8
			c46.8-77.5,131.4-124,220.9-121.4c133.9,3.9,203.3,116.5,206.2,121.3c4.6,7.6,14.5,10,22.1,5.5c7.6-4.6,10-14.5,5.5-22.1
			c-3.3-5.4-81.6-132.4-232.7-136.8c-100.9-3-196.5,49.5-249.3,136.8c-4.6,7.6-2.1,17.5,5.4,22.1
			C300.5,1052.8,303.4,1053.5,306.2,1053.5z"/>
		<circle cx="759.6" cy="1036.7" r="18.7"/>
	</g>
</g>
<g>
	<path d="M403.8,311.2h-26v-4c0-25.4,0.2-50.8-0.1-76.2c-0.1-6.2-1.4-12.5-3.2-18.4c-2.4-7.5-8.5-11.5-16.1-12.6
		c-7.5-1.1-14.9-0.3-21.6,3.3c-7.6,4-11.6,10.3-11.6,19.1c0,28.4,0,56.9,0,85.3v3.3h-26v-4c0-25.2,0-50.4,0-75.5
		c0-6.9-0.6-13.7-3.6-20c-3-6.3-7.9-10-14.6-11.2c-8.5-1.5-16.6-0.4-24.1,4c-7,4.1-10.4,10.3-10.4,18.4c0,28.3,0,56.7,0,85
		c0,1.1-0.1,2.2-0.2,3.5h-25.3V180.7h25.5V202c0.3,0.2,0.6,0.4,0.9,0.5c7.1-16.7,18.8-26.1,37.5-25c17.9,1,30.6,9.3,37.1,26.6
		c5.1-11.6,12.6-20.5,24.5-24.1c15.4-4.6,30.4-4,43.1,7.3c8,7.1,11.8,16.6,13.2,27c0.7,5,1.1,10.1,1.1,15.1c0.1,25.9,0,51.7,0,77.6
		L403.8,311.2L403.8,311.2z"/>
	<path d="M468.5,290.2v71.2h-25.6V180.6h25.6v21c0.3,0.1,0.6,0.1,0.9,0.2c0.5-0.9,1-1.8,1.4-2.8c5.4-11.9,14.8-18.7,27.5-20.9
		c24.5-4.2,44.9,7.3,54.4,30.3c6.1,14.8,7.3,30.2,6.3,46c-0.6,9.9-2.4,19.6-6.3,28.8c-6.8,15.9-17.7,27-35.3,30.1
		c-13.3,2.3-26.2,1.3-36.8-8.2c-3.8-3.5-6.5-8.2-9.7-12.4c-0.6-0.8-1-1.9-1.5-2.8C469.2,290,468.8,290.1,468.5,290.2L468.5,290.2z
		 M532.1,246c-0.1,0-0.3,0-0.4,0c0-5.3,0.4-10.6-0.1-15.8c-1.1-12.7-6.5-23-18.9-28c-9.8-4-19.9-3.5-29.6,0.7
		c-10.1,4.3-15.2,11.8-14.9,23.2c0.4,13.7,0.1,27.4,0.1,41.1c0,9.5,4.4,16.2,12.5,20.8c5.5,3.1,11.6,4.1,17.8,4.2
		c17.3,0.2,29.5-9.6,32.3-26.7C532,259.1,531.8,252.5,532.1,246L532.1,246z"/>
	<path d="M826.1,340.4c6.3,0,12.5-0.1,18.6,0.1c2.4,0.1,3.4-0.8,4.1-2.9c1.9-6,4.2-11.9,6-17.9c0.5-1.8,0.5-4-0.1-5.7
		c-15-43-30.1-86-45.3-129c-0.5-1.3-0.9-2.7-1.5-4.6h16.9c6,0,9.9,2.8,11.8,8.4c7.8,22.8,15.7,45.6,23.3,68.5
		c2.8,8.4,4.8,17,7.3,25.6c0.4,1.4,0.8,2.7,2.1,4c0.4-0.8,0.8-1.7,1.1-2.5c11.3-33.7,22.6-67.5,33.8-101.2c0.7-2,1.5-2.9,3.8-2.8
		c7.1,0.1,14.1,0.1,21.7,0.1c-0.3,1.2-0.5,2.1-0.8,3c-18.4,52.2-36.8,104.3-55.3,156.5c-1,2.8-2.5,5.5-3.9,8.2
		c-4,7.7-10.4,12.1-19,12.8c-8.1,0.7-16.3,0.8-24.8,1.1L826.1,340.4L826.1,340.4z"/>
	<path d="M18.1,289.4c5.7-5.1,11.2-10,16.1-14.4c6,4.6,11.3,9.6,17.5,13.1c11,6.2,22.9,6.8,34.9,2.6c7-2.4,10.5-8.1,10.5-16
		c0-6.7-3.5-12.6-10.2-14.7c-5.9-1.9-12.3-2.3-18.4-3.7c-7.9-1.8-15.9-3.2-23.4-6.1c-16-6.1-23.5-19.1-22.1-36.2
		c1.5-17.6,11.8-29.9,30.1-34.4c15.1-3.7,30.1-3.3,44.7,2.5c8.6,3.4,15.3,9.1,20.7,15.1c-5.1,5.6-9.9,10.8-14.8,16.3
		c-6.1-6.3-12.6-11.4-20.9-13.5c-8.4-2.1-16.9-2.5-25.2,0.8c-6.5,2.6-9.5,7.7-9.7,14.4c-0.2,6.6,2.5,12,8.9,14
		c7.4,2.3,15.2,3.8,22.9,5.3c8.7,1.6,17.5,3,25.4,7.4c10.5,5.8,15.9,14.9,16.9,26.7c1.9,22.5-12.2,39.6-36,44.2
		c-12.8,2.5-25.6,2.1-38-2C35.8,307,26.4,299.3,18.1,289.4L18.1,289.4z"/>
	<path d="M761.8,180.3h27v21.4h-27.2v109.3h-25.9V202h-20.3v-21.5h20.1c0-7.7-0.2-14.9,0.1-22.2c0.2-4.6,0.7-9.2,1.9-13.6
		c3-11,12-18.6,23.4-19.2c9.2-0.5,18.4-0.1,27.8-0.1v20.8h-27L761.8,180.3L761.8,180.3z"/>
	<path d="M617.1,290h18.3v21.7c-8.7-0.4-17.3-0.2-25.8-1.4c-9.4-1.3-15-7.6-17.2-16.7c-0.6-2.5-0.9-5.1-0.9-7.7
		c0-52.8,0-105.6,0-158.4c0-0.8,0.1-1.5,0.2-2.5h25.5L617.1,290L617.1,290z"/>
	<path d="M688.2,180.6V311h-25.3V180.6H688.2z"/>
	<path d="M179.9,311.1h-25.2V180.7h25.2V311.1z"/>
	
		<linearGradient id="SVGID_00000077293897324306704150000016621290298299626884_" gradientUnits="userSpaceOnUse" x1="-111.2414" y1="499.7832" x2="13.9847" y2="528.1588" gradientTransform="matrix(1 0 0 -1 287 652.1318)">
		<stop  offset="0" style="stop-color:#A5D3FF"/>
		<stop  offset="0.5781" style="stop-color:#0686FF"/>
	</linearGradient>
	<path style="fill:url(#SVGID_00000077293897324306704150000016621290298299626884_);" d="M168.2,159.6c-3,0-6-1-8.4-3.2
		c-5.3-4.6-5.8-12.6-1.1-17.9c7.4-8.5,35.1-36.2,79-38.2c50.7-2.3,83.1,31.4,89.1,38.2c4.6,5.2,4.1,13.3-1.1,17.9
		c-5.2,4.6-13.3,4.1-17.9-1.1c-4.7-5.2-29.7-31.4-69-29.6c-33.9,1.5-55.4,23-61.1,29.6C175.2,158.2,171.7,159.6,168.2,159.6z"/>
	<circle cx="168.2" cy="146.6" r="14.8"/>
	
		<linearGradient id="SVGID_00000127036855389323194170000010572137684947824002_" gradientUnits="userSpaceOnUse" x1="356.7565" y1="448.2888" x2="65.2565" y2="595.7705" gradientTransform="matrix(1 0 0 -1 287 652.1318)">
		<stop  offset="0" style="stop-color:#A5D3FF"/>
		<stop  offset="0.2016" style="stop-color:#0686FF"/>
	</linearGradient>
	<path style="fill:url(#SVGID_00000127036855389323194170000010572137684947824002_);" d="M317.4,159.9c4.3,0,8.5-2.2,10.9-6.1
		c37-61.2,103.8-97.9,174.4-95.8c105.7,3.1,160.5,92,162.8,95.8c3.6,6,11.4,7.9,17.4,4.3c6-3.6,7.9-11.4,4.3-17.4
		c-2.6-4.3-64.4-104.6-183.8-108.1c-79.7-2.3-155.2,39.1-196.9,108.1c-3.6,6-1.7,13.8,4.3,17.4C312.9,159.3,315.2,159.9,317.4,159.9
		z"/>
	<circle cx="675.5" cy="146.6" r="14.8"/>
	<path d="M300.6,427.1c6.7,0,12.5-5.7,12.5-14.2c0-8.5-5.8-14.2-12.5-14.2c-6.7,0-12.5,5.7-12.5,14.2
		C288.2,421.5,294,427.1,300.6,427.1z M282.4,432.9V377h6.7v20.8c0.8-1,1.9-1.9,3-2.7c2-1.3,5-2.7,9-2.7c10.3,0,18.7,8.4,18.7,20.4
		c0,12-8.4,20.4-18.7,20.4c-4,0-7-1.1-9-2.4c-1.2-0.7-2.2-1.5-3-2.5l-1.8,4.4L282.4,432.9L282.4,432.9z"/>
	<path d="M357.8,422.2h7.1c-2.7,5.8-8,11.1-17,11.1c-10.7,0-19.2-8.4-19.2-20.4c0-12,9-20.4,18.7-20.4c9.7,0,18.3,7.9,18.3,19.9
		c0,1.2-0.2,2-0.3,2.6l-0.2,1h-29.4c0.5,5.8,5.7,11.1,12.1,11.1C353.2,427.1,356.5,424.1,357.8,422.2L357.8,422.2z M335.9,410.3
		h23.2c-1-6.6-5.8-11.5-11.6-11.5C341.7,398.8,336.9,403.6,335.9,410.3z"/>
	<path d="M379.2,447.1v-5.3c4,0,5.7-1.8,7.1-5.3l1.8-4.4l-15.6-39h7.1l12.1,30.6l12.1-30.6h7.1l-17.4,43.4
		c-3.2,8.1-6.3,11.1-11.6,11.1c-0.7,0-1.3-0.1-1.9-0.2L379.2,447.1L379.2,447.1z"/>
	<path d="M436.3,427.1c6.2,0,12.1-5.7,12.1-14.2c0-8.5-5.9-14.2-12.1-14.2c-6.2,0-12.1,5.7-12.1,14.2
		C424.3,421.5,430.1,427.1,436.3,427.1z M436.3,433.3c-10.3,0-18.7-8.4-18.7-20.4c0-12,8.4-20.4,18.7-20.4s18.7,8.4,18.7,20.4
		C455.1,424.9,446.7,433.3,436.3,433.3z"/>
	<path d="M466.7,432.9V393h4.9l1.8,4.4c0.8-0.9,1.8-1.7,2.9-2.4c2.1-1.3,4.8-2.5,8.7-2.5c8.5,0,15.6,7.1,15.6,17.3v23h-6.7v-23
		c0-6.6-4.6-11.1-9.8-11.1c-6.3,0-10.7,4.4-10.7,11.1v23H466.7z"/>
	<path d="M530.9,427.1c6.7,0,12.5-5.7,12.5-14.2c0-8.5-5.8-14.2-12.5-14.2c-6.7,0-12.5,5.7-12.5,14.2
		C518.4,421.5,524.2,427.1,530.9,427.1z M544.3,432.9l-1.8-4.4c-0.9,1-1.9,1.8-3,2.5c-2.1,1.3-5,2.4-9,2.4
		c-10.3,0-18.7-8.4-18.7-20.4c0-12,8.4-20.4,18.7-20.4c4,0,7,1.3,9,2.7c1.2,0.8,2.1,1.7,3,2.7v-20.8h6.7v55.8L544.3,432.9
		L544.3,432.9z"/>
	<path d="M588.9,420v-20.8h-7.1V393h3.1c3.3,0,4.9-1.6,4.9-4.9v-5.8h5.8V393h8.9v6.2h-8.9V420c0,4.5,2.7,7.1,6.7,7.1
		c0.6,0,1.2-0.1,1.6-0.2l0.6-0.3v5.8c-0.3,0.2-0.6,0.4-1,0.5c-0.8,0.3-1.8,0.5-3,0.5C594.4,433.3,588.9,428,588.9,420L588.9,420z"/>
	<path d="M617.5,432.9V377h6.7v20.8c0.8-1,1.8-1.9,2.9-2.7c2.1-1.3,4.8-2.7,8.7-2.7c8.5,0,15.6,7.1,15.6,17.3v23h-6.7v-23
		c0-6.6-4.6-11.1-9.8-11.1c-6.3,0-10.7,4.4-10.7,11.1v23H617.5L617.5,432.9z"/>
	<path d="M691.5,422.2h7.1c-2.7,5.8-8,11.1-17,11.1c-10.7,0-19.2-8.4-19.2-20.4c0-12,9-20.4,18.7-20.4c9.7,0,18.3,7.9,18.3,19.9
		c0,1.2-0.2,2-0.3,2.6l-0.2,1h-29.4c0.5,5.8,5.7,11.1,12.1,11.1C687,427.1,690.2,424.1,691.5,422.2L691.5,422.2z M669.6,410.3h23.2
		c-1-6.6-5.8-11.5-11.6-11.5S670.6,403.6,669.6,410.3z"/>
	<path d="M744.2,432.9L728.1,393h7.1l12.1,30.6l12.1-30.6h7.1l-16.1,39.9H744.2L744.2,432.9z"/>
	<path d="M775.9,432.9V393h4.9l1.8,4.4c0.6-0.9,1.4-1.7,2.4-2.4c1.7-1.3,3.9-2.5,7.4-2.5c4,0,6.8,1.8,8.6,3.5c1.1,1.1,2,2.2,2.6,3.5
		c0.8-1.3,1.7-2.5,2.8-3.5c2.1-1.8,4.9-3.5,9.2-3.5c7.1,0,13.4,6.1,13.4,16.4v23.9h-6.7v-23.9c0-6.7-3.5-10.2-8-10.2
		c-4.6,0-8.5,3.9-8.5,10.2v23.9h-6.7v-23.9c0-6.7-3.5-10.2-8-10.2c-4.6,0-8.5,4.3-8.5,10.2v23.9L775.9,432.9L775.9,432.9z"/>
	<path d="M840.1,420.9h6.7c0.5,3.5,3,6.2,8,6.2c4.6,0,7.1-2.7,7.1-5.8c0-9-21-2.1-21-17.3c0-6.1,5.4-11.5,13.4-11.5
		c8.6,0,13.4,4.9,13.8,12h-6.7c-0.5-3.5-2.6-5.8-7.1-5.8c-4,0-6.7,2.6-6.7,5.3c0,9,21,2.2,21,17.3c0,6.6-5.4,12-13.8,12
		C845.9,433.3,840.5,428,840.1,420.9L840.1,420.9z"/>
</g>
</svg>
