<svg width="540" height="450" viewBox="0 0 540 450" fill="none" xmlns="http://www.w3.org/2000/svg">
<path opacity="0.3" d="M477.899 395.73C492.389 380.79 500.849 360.72 500.399 340.47C499.769 312.93 461.969 292.32 456.929 272.79C450.179 246.33 465.389 216.45 472.049 191.43C476.729 173.88 480.599 155.16 479.699 136.89C478.889 119.79 477.629 104.58 461.609 94.59C448.559 86.49 432.269 85.77 417.239 88.47C402.209 91.17 387.899 96.84 373.139 100.8C358.379 104.76 342.539 106.92 327.959 102.42C311.129 97.2 300.689 60.39 282.959 59.94C-16.7407 52.29 45.3593 291.24 44.0993 302.22C42.8393 313.2 46.4393 324.27 51.2093 334.17C64.2593 361.17 87.5693 381.87 113.579 395.73H477.899Z" fill="#86E9DC"/>
<path d="M336.149 86.22V270C336.149 270.63 336.059 271.26 335.969 271.89C335.069 276.39 331.109 279.81 326.339 279.81H93.7787C88.3787 279.81 83.9688 275.4 83.9688 270V86.22C83.9688 82.62 85.8587 79.56 88.7387 77.85C89.2787 77.49 89.8187 77.22 90.4487 77.04C90.7187 76.95 91.0787 76.86 91.3487 76.77C92.1587 76.59 92.9687 76.5 93.7787 76.5H326.249C327.149 76.5 327.959 76.59 328.679 76.77C328.949 76.86 329.309 76.95 329.579 77.04C330.209 77.22 330.749 77.58 331.289 77.85C332.189 78.39 333.089 79.11 333.809 80.01C333.989 80.28 334.169 80.46 334.349 80.73C335.519 82.26 336.149 84.15 336.149 86.22Z" fill="#E6D6F5"/>
<path opacity="0.1" d="M309.779 103.59C309.779 124.92 292.499 142.11 271.169 142.11C249.839 142.11 232.559 124.83 232.559 103.59C232.559 92.97 236.879 83.25 243.899 76.32H299.969L299.159 77.13C305.819 84.06 309.779 93.33 309.779 103.59Z" fill="black"/>
<path d="M88.7383 77.76C89.2783 77.4 89.8183 77.13 90.4483 76.95C89.8183 77.13 89.2783 77.49 88.7383 77.76ZM326.338 76.32C327.148 76.32 328.048 76.41 328.768 76.59C327.958 76.5 327.148 76.32 326.338 76.32H93.8683C93.0583 76.32 92.1583 76.41 91.4383 76.59C92.2483 76.41 93.0583 76.32 93.8683 76.32H326.338Z" fill="#FFC2C2"/>
<path d="M98.7292 87.57C98.7292 89.28 97.3792 90.63 95.7592 90.63C94.0492 90.63 92.6992 89.28 92.6992 87.57C92.6992 85.95 94.0492 84.6 95.7592 84.6C97.3792 84.6 98.7292 85.95 98.7292 87.57ZM115.739 87.57C115.739 89.28 114.389 90.63 112.679 90.63C110.969 90.63 109.709 89.28 109.709 87.57C109.709 85.95 111.059 84.6 112.679 84.6C114.299 84.6 115.739 85.95 115.739 87.57ZM107.189 87.57C107.189 89.28 105.839 90.63 104.129 90.63C102.509 90.63 101.159 89.28 101.159 87.57C101.159 85.95 102.509 84.6 104.129 84.6C105.839 84.6 107.189 85.95 107.189 87.57Z" fill="white"/>
<path d="M211.681 107.19V201.15C211.681 204.48 208.891 207.18 205.381 207.18H80.1906C76.7706 207.18 73.8906 204.48 73.8906 201.15V107.19C73.8906 103.86 76.6806 101.16 80.1906 101.16H205.471C208.891 101.25 211.681 103.95 211.681 107.19Z" fill="#F6CC61"/>
<path d="M199.169 192.06H86.5794C86.2194 192.06 85.8594 191.7 85.8594 191.34C85.8594 190.98 86.2194 190.62 86.5794 190.62H199.169C199.529 190.62 199.889 190.98 199.889 191.34C199.889 191.7 199.529 192.06 199.169 192.06Z" fill="white"/>
<path d="M86.5794 192.06C86.2194 192.06 85.8594 191.7 85.8594 191.34V117.09C85.8594 116.73 86.2194 116.37 86.5794 116.37C86.9394 116.37 87.2994 116.73 87.2994 117.09V191.34C87.2994 191.7 86.9394 192.06 86.5794 192.06ZM199.169 192.06C198.809 192.06 198.449 191.7 198.449 191.34V117.09C198.449 116.73 198.809 116.37 199.169 116.37C199.529 116.37 199.889 116.73 199.889 117.09V191.34C199.889 191.7 199.529 192.06 199.169 192.06ZM170.729 192.06C170.369 192.06 170.009 191.7 170.009 191.34V117.09C170.009 116.73 170.369 116.37 170.729 116.37C171.089 116.37 171.449 116.73 171.449 117.09V191.34C171.449 191.7 171.089 192.06 170.729 192.06ZM142.289 192.06C141.929 192.06 141.569 191.7 141.569 191.34V117.09C141.569 116.73 141.929 116.37 142.289 116.37C142.649 116.37 143.009 116.73 143.009 117.09V191.34C142.919 191.7 142.649 192.06 142.289 192.06ZM113.759 192.06C113.399 192.06 113.039 191.7 113.039 191.34V117.09C113.039 116.73 113.399 116.37 113.759 116.37C114.119 116.37 114.479 116.73 114.479 117.09V191.34C114.479 191.7 114.209 192.06 113.759 192.06Z" fill="white"/>
<path d="M198.449 169.11H86.5794C86.2194 169.11 85.8594 168.75 85.8594 168.39C85.8594 168.03 86.2194 167.67 86.5794 167.67H198.449C198.809 167.67 199.169 168.03 199.169 168.39C199.169 168.75 198.809 169.11 198.449 169.11ZM198.449 140.67H86.5794C86.2194 140.67 85.8594 140.31 85.8594 139.95C85.8594 139.59 86.2194 139.23 86.5794 139.23H198.449C198.809 139.23 199.169 139.59 199.169 139.95C199.169 140.4 198.809 140.67 198.449 140.67Z" fill="white"/>
<path d="M86.9381 192.69C86.2181 192.69 85.6781 192.15 85.4981 191.52C85.4081 190.71 85.9481 189.99 86.6681 189.9C107.728 186.66 126.898 175.41 137.968 159.66C140.758 155.7 143.278 151.47 146.068 147.42C153.358 136.89 161.728 129.15 171.088 124.38C180.628 119.52 190.528 117.18 198.898 115.65C199.708 115.47 200.428 116.01 200.518 116.82C200.698 117.63 200.158 118.35 199.348 118.44C191.158 119.97 181.528 122.22 172.258 126.9C163.438 131.4 155.338 138.87 148.318 149.04C145.528 153 143.098 157.23 140.218 161.28C128.698 177.57 108.808 189.36 87.0281 192.69H86.9381Z" fill="#FA58E0"/>
<path d="M198.451 122.76C201.483 122.76 203.941 120.302 203.941 117.27C203.941 114.238 201.483 111.78 198.451 111.78C195.419 111.78 192.961 114.238 192.961 117.27C192.961 120.302 195.419 122.76 198.451 122.76Z" fill="white"/>
<path d="M152.728 145.44C155.76 145.44 158.218 142.982 158.218 139.95C158.218 136.918 155.76 134.46 152.728 134.46C149.696 134.46 147.238 136.918 147.238 139.95C147.238 142.982 149.696 145.44 152.728 145.44Z" fill="white"/>
<path d="M127.26 176.67C130.292 176.67 132.75 174.212 132.75 171.18C132.75 168.148 130.292 165.69 127.26 165.69C124.227 165.69 121.77 168.148 121.77 171.18C121.77 174.212 124.227 176.67 127.26 176.67Z" fill="white"/>
<path d="M86.5798 194.94C89.6119 194.94 92.0698 192.482 92.0698 189.45C92.0698 186.418 89.6119 183.96 86.5798 183.96C83.5478 183.96 81.0898 186.418 81.0898 189.45C81.0898 192.482 83.5478 194.94 86.5798 194.94Z" fill="white"/>
<path d="M274.95 138.33C296.274 138.33 313.56 121.084 313.56 99.81C313.56 78.536 296.274 61.29 274.95 61.29C253.626 61.29 236.34 78.536 236.34 99.81C236.34 121.084 253.626 138.33 274.95 138.33Z" fill="#EF1103"/>
<path d="M274.951 130.32C291.802 130.32 305.461 116.66 305.461 99.81C305.461 82.9598 291.802 69.3 274.951 69.3C258.101 69.3 244.441 82.9598 244.441 99.81C244.441 116.66 258.101 130.32 274.951 130.32Z" fill="white"/>
<path d="M274.95 122.67C287.575 122.67 297.81 112.435 297.81 99.81C297.81 87.1848 287.575 76.95 274.95 76.95C262.325 76.95 252.09 87.1848 252.09 99.81C252.09 112.435 262.325 122.67 274.95 122.67Z" fill="#EF1103"/>
<path d="M274.949 112.95C282.255 112.95 288.179 107.067 288.179 99.81C288.179 92.553 282.255 86.67 274.949 86.67C267.642 86.67 261.719 92.553 261.719 99.81C261.719 107.067 267.642 112.95 274.949 112.95Z" fill="white"/>
<path d="M271.91 101.088L309.465 63.5488L311.12 65.2037L273.564 102.743L271.91 101.088Z" fill="#060405"/>
<path d="M274.77 90.09L284.58 99.9C285.12 100.44 284.85 101.34 284.04 101.52L272.16 103.59C271.53 103.68 270.99 103.14 271.08 102.51L273.15 90.63C273.33 89.91 274.23 89.55 274.77 90.09ZM313.92 53.64L314.01 60.66L321.03 60.75L311.58 70.2L304.56 70.11L304.38 63.09L313.92 53.64Z" fill="#060405"/>
<path opacity="0.1" d="M336.15 155.16V225.99H233.73C229.05 225.99 225.27 222.21 225.27 217.53V163.53C225.27 158.85 229.05 155.07 233.73 155.07H336.15V155.16Z" fill="black"/>
<path d="M360.538 223.11H236.608C231.928 223.11 228.148 219.33 228.148 214.65V160.65C228.148 155.97 231.928 152.19 236.608 152.19H360.538C365.218 152.19 368.998 155.97 368.998 160.65V214.65C368.908 219.33 365.218 223.11 360.538 223.11Z" fill="#FA58E0"/>
<path opacity="0.1" d="M288.631 189.27H282.871C282.871 199.62 275.671 208.26 266.041 210.51L266.491 212.31C253.711 215.28 241.021 207.36 238.051 194.67L239.851 194.22C239.491 192.6 239.311 190.98 239.311 189.27C239.311 177.21 249.121 167.4 261.181 167.4V161.64C276.211 161.55 288.631 173.97 288.631 189.27Z" fill="black"/>
<path d="M281.252 188.19C281.252 200.25 271.442 209.97 259.382 209.97C247.322 209.97 237.512 200.16 237.512 188.19C237.512 176.13 247.322 166.32 259.382 166.32C271.532 166.41 281.252 176.13 281.252 188.19Z" fill="white"/>
<path d="M287.099 188.19H259.469V160.56C274.679 160.56 287.099 172.98 287.099 188.19Z" fill="#9F28EE"/>
<path d="M264.87 211.23C252.18 214.2 239.4 206.28 236.43 193.59L259.47 188.19L264.87 211.23Z" fill="#25E498"/>
<path d="M303.571 176.67H295.471C294.841 176.67 294.211 176.13 294.211 175.41V167.31C294.211 166.68 294.751 166.05 295.471 166.05H303.571C304.201 166.05 304.831 166.59 304.831 167.31V175.41C304.831 176.13 304.291 176.67 303.571 176.67ZM363.511 169.56C363.511 170.01 363.151 170.46 362.611 170.46H310.231C309.781 170.46 309.421 170.1 309.421 169.56C309.421 169.02 309.781 168.75 310.231 168.75H362.701C363.151 168.75 363.511 169.11 363.511 169.56ZM350.191 173.25C350.191 173.7 349.831 174.15 349.291 174.15H310.231C309.781 174.15 309.421 173.79 309.421 173.25C309.421 172.8 309.781 172.44 310.231 172.44H349.291C349.831 172.44 350.191 172.8 350.191 173.25ZM303.571 193.05H295.471C294.841 193.05 294.211 192.51 294.211 191.79V183.69C294.211 183.06 294.751 182.43 295.471 182.43H303.571C304.201 182.43 304.831 182.97 304.831 183.69V191.79C304.831 192.42 304.291 193.05 303.571 193.05ZM363.511 185.94C363.511 186.39 363.151 186.84 362.611 186.84H310.231C309.781 186.84 309.421 186.48 309.421 185.94C309.421 185.49 309.781 185.13 310.231 185.13H362.701C363.151 185.04 363.511 185.4 363.511 185.94ZM350.191 189.54C350.191 189.99 349.831 190.44 349.291 190.44H310.231C309.781 190.44 309.421 190.08 309.421 189.54C309.421 189.09 309.781 188.73 310.231 188.73H349.291C349.831 188.73 350.191 189.09 350.191 189.54ZM303.571 209.34H295.471C294.841 209.34 294.211 208.8 294.211 208.08V199.98C294.211 199.35 294.751 198.72 295.471 198.72H303.571C304.201 198.72 304.831 199.26 304.831 199.98V208.08C304.831 208.8 304.291 209.34 303.571 209.34ZM363.511 202.23C363.511 202.68 363.151 203.13 362.611 203.13H310.231C309.781 203.13 309.421 202.77 309.421 202.23C309.421 201.78 309.781 201.42 310.231 201.42H362.701C363.151 201.33 363.511 201.69 363.511 202.23ZM350.191 205.92C350.191 206.37 349.831 206.82 349.291 206.82H310.231C309.781 206.82 309.421 206.46 309.421 205.92C309.421 205.47 309.781 205.11 310.231 205.11H349.291C349.831 205.02 350.191 205.38 350.191 205.92Z" fill="white"/>
<path d="M120.33 264.51C132.16 264.51 141.75 254.92 141.75 243.09C141.75 231.26 132.16 221.67 120.33 221.67C108.5 221.67 98.9102 231.26 98.9102 243.09C98.9102 254.92 108.5 264.51 120.33 264.51Z" fill="#FED8DF"/>
<path d="M124.559 233.19C124.559 233.19 127.439 241.65 127.439 243.36C127.439 247.14 123.479 245.88 123.479 245.88L119.699 245.7L117.719 244.62L116.639 242.55C116.639 242.55 116.099 238.23 116.279 238.05C116.459 237.96 117.539 232.65 117.719 232.47C117.899 232.29 120.239 232.11 120.509 232.2C120.689 232.2 124.559 233.19 124.559 233.19Z" fill="white"/>
<path d="M129.87 258.84C129.87 258.84 126.63 249.75 120.33 250.02C114.03 250.29 112.32 258.84 112.32 258.84C112.32 258.84 120.42 263.43 129.87 258.84Z" fill="#F81F8B"/>
<path d="M121.23 246.42C121.32 246.6 122.49 251.73 121.41 252.54C120.78 252.9 119.7 252.9 118.89 252.81C118.17 252.72 117.54 252.18 117.36 251.37L117 246.42H121.23Z" fill="white"/>
<path d="M118.619 235.71C118.619 235.71 118.169 243.54 120.329 243.99C122.489 244.44 123.299 242.1 124.829 242.64C126.359 243.18 127.439 243.36 127.439 243.36C127.439 243.36 128.069 246.87 125.369 247.86C122.669 248.85 117.719 248.04 116.819 246.6C115.919 245.16 113.489 229.05 118.169 227.79C122.849 226.53 120.149 229.59 120.149 229.59C120.149 229.59 124.199 226.17 124.649 227.52C125.009 228.96 124.109 230.04 124.109 230.04C124.109 230.04 128.609 229.77 126.089 232.65C123.659 235.44 119.249 234.09 118.619 235.71Z" fill="#060405"/>
<path d="M123.661 241.38C123.391 241.38 123.211 241.2 123.301 240.93C123.301 240.75 123.481 240.57 123.751 240.57V240.3C123.751 240.21 123.661 240.12 123.571 240.03L123.481 239.85C123.211 239.31 123.031 238.68 123.031 237.96C123.031 237.78 123.211 237.6 123.391 237.6C123.571 237.6 123.751 237.78 123.751 237.96C123.751 238.41 123.841 238.95 124.111 239.4L124.201 239.49C124.291 239.58 124.381 239.76 124.381 239.85C124.471 240.12 124.471 240.39 124.471 240.66C124.291 241.11 124.021 241.38 123.661 241.38Z" fill="#060405"/>
<path d="M121.469 238.417C121.666 238.393 121.797 238.134 121.761 237.838C121.724 237.542 121.535 237.321 121.338 237.346C121.14 237.37 121.01 237.629 121.046 237.925C121.082 238.221 121.272 238.442 121.469 238.417Z" fill="#060405"/>
<path d="M124.984 237.78C125.231 237.75 125.401 237.485 125.365 237.189C125.329 236.893 125.1 236.678 124.853 236.708C124.606 236.738 124.436 237.002 124.472 237.298C124.508 237.594 124.737 237.81 124.984 237.78Z" fill="#060405"/>
<path d="M123.932 245.7C123.752 245.7 123.572 245.7 123.392 245.61C123.212 245.61 123.032 245.34 123.122 245.16C123.122 244.98 123.392 244.8 123.572 244.89C124.202 245.07 124.922 244.8 125.372 244.44C125.552 244.26 125.732 244.35 125.912 244.44C126.092 244.62 126.002 244.8 125.912 244.98C125.282 245.43 124.562 245.7 123.932 245.7ZM209.432 234.99H153.452C152.732 234.99 152.102 234.36 152.102 233.64V226.71C152.102 225.99 152.732 225.36 153.452 225.36H209.432C210.152 225.36 210.782 225.99 210.782 226.71V233.64C210.782 234.36 210.152 234.99 209.432 234.99ZM152.192 242.37H238.682V244.98H152.192V242.37ZM152.192 249.57H238.682V252.18H152.192V249.57ZM152.192 256.77H184.322V259.38H152.192V256.77ZM197.102 256.77H212.852V259.38H197.102V256.77Z" fill="white"/>
<path d="M460.799 382.14L442.619 276.3L427.139 382.14H413.099L407.879 242.1H476.999C479.339 247.23 476.999 361.08 474.929 382.32L460.799 382.14Z" fill="#060405"/>
<path d="M496.89 228.51C504.72 220.14 494.46 183.6 494.46 183.6L474.48 199.71L476.37 209.34" fill="white"/>
<path d="M496.891 228.96C496.801 228.96 496.711 228.96 496.621 228.87C496.441 228.69 496.441 228.42 496.621 228.24C503.551 220.77 495.541 189.36 494.191 184.41L474.931 199.8L476.731 209.16C476.821 209.43 476.641 209.61 476.371 209.7C476.101 209.79 475.921 209.61 475.831 209.34L473.941 199.71C473.941 199.53 473.941 199.35 474.121 199.26L494.101 183.15C494.191 183.06 494.371 183.06 494.551 183.06C494.731 183.15 494.821 183.24 494.821 183.33C495.271 184.86 505.081 220.23 497.161 228.69C497.161 228.87 497.071 228.96 496.891 228.96Z" fill="#060405"/>
<path d="M350.011 168.57L355.321 172.08C355.321 172.08 375.121 212.13 390.601 213.21C400.951 213.93 422.731 186.75 422.731 186.75L406.081 168.12L388.171 185.13L363.241 162.72C363.241 162.72 364.591 156.15 361.621 155.16C358.741 154.08 358.561 158.22 358.561 158.22L347.941 146.34C346.951 145.26 345.151 145.35 344.431 146.61C343.891 147.51 344.071 148.68 344.791 149.4L351.901 156.06L348.391 161.82C347.041 164.16 347.761 167.13 350.011 168.57Z" fill="white"/>
<path d="M390.958 213.66H390.508C375.208 212.58 356.308 175.23 354.958 172.44L349.738 169.02C347.308 167.4 346.588 164.25 348.118 161.73L351.448 156.24L344.608 149.85C343.708 148.95 343.528 147.6 344.158 146.52C345.058 144.99 347.218 144.81 348.388 146.16L358.288 157.32C358.738 155.34 359.908 154.17 361.798 154.89C364.678 155.97 363.958 161.46 363.688 162.72L388.078 184.68L405.628 167.94C405.718 167.85 405.808 167.85 405.988 167.85C406.078 167.85 406.258 167.94 406.348 168.03L422.998 186.66C423.178 186.84 423.178 187.11 422.998 187.2C422.188 188.1 401.578 213.66 390.958 213.66ZM344.788 146.88C344.338 147.6 344.428 148.5 345.058 149.13L352.168 155.79C352.348 155.97 352.348 156.15 352.258 156.33L348.748 162.09C347.488 164.16 348.118 166.86 350.098 168.21L355.408 171.72C355.498 171.72 355.498 171.81 355.588 171.9C355.768 172.26 375.388 211.68 390.418 212.76H390.778C400.408 212.76 419.488 189.63 421.918 186.75L405.808 168.75L388.258 185.49C388.078 185.67 387.808 185.67 387.628 185.49L362.698 163.08C362.608 162.99 362.518 162.81 362.518 162.63C362.878 160.92 363.328 156.33 361.258 155.61C359.548 154.98 358.918 156.6 358.828 158.31C358.828 158.67 358.288 158.94 358.018 158.58L347.668 146.7C346.858 145.8 345.418 145.89 344.788 146.88Z" fill="#060405"/>
<path d="M476.011 201.69C475.201 201.78 474.391 201.87 473.581 201.87L477.811 249.84C477.811 256.41 406.981 256.41 406.981 249.84L409.681 193.59V193.41C409.681 193.41 395.371 183.51 393.841 171.99C397.711 166.05 409.681 149.49 428.851 143.91C432.541 142.83 436.501 142.11 440.731 142.02C445.951 141.84 450.901 142.65 455.491 144C459.181 145.08 462.691 146.61 465.931 148.41C488.071 160.65 499.231 188.55 499.231 188.55C499.231 188.55 499.501 187.83 497.251 189.99C493.201 194.04 486.001 199.98 477.181 201.42C476.821 201.6 476.461 201.69 476.011 201.69Z" fill="#FE6021"/>
<path d="M466.02 148.5C488.88 161.1 500.4 189.81 500.4 189.81C500.4 189.81 500.58 189.09 498.33 191.43C494.19 195.57 486.72 201.69 477.63 203.22C477.18 203.31 476.82 203.31 476.37 203.4C475.56 203.49 474.66 203.58 473.85 203.58" fill="#FE6021"/>
<path d="M473.76 204.03C473.58 204.03 473.4 203.94 473.31 203.76L466.47 183.06C466.38 182.79 466.56 182.61 466.74 182.52C467.01 182.43 467.19 182.61 467.28 182.79L474.12 203.49C474.21 203.76 474.03 203.94 473.85 204.03H473.76ZM409.77 194.04C409.68 194.04 409.68 194.04 409.77 194.04C409.5 194.04 409.32 193.77 409.32 193.5L411.3 180.09C411.3 179.82 411.57 179.64 411.84 179.73C412.11 179.82 412.29 180 412.2 180.27L410.22 193.68C410.13 193.86 409.95 194.04 409.77 194.04Z" fill="#060405"/>
<path d="M450.99 142.92C450.99 142.92 445.41 152.28 430.56 156.24L429.75 143.82C429.75 143.82 431.19 137.61 431.64 132.21C432.09 126.99 443.97 115.74 444.78 115.11C445.59 114.48 445.14 123.12 447.12 131.13C448.2 135.45 448.83 139.77 450.99 142.92Z" fill="white"/>
<path d="M430.201 156.6C429.841 156.33 430.111 156.78 429.211 143.91V143.82C429.211 143.73 430.651 137.61 431.101 132.3C431.551 126.72 444.241 114.93 444.421 114.84C444.511 114.75 444.511 114.75 444.601 114.75H444.871C445.051 114.84 445.141 114.93 445.141 115.11C445.501 123.21 447.301 130.32 448.021 133.56C448.831 136.98 449.551 140.22 451.171 142.65C451.261 142.83 451.261 143.01 451.171 143.1C451.081 143.19 445.321 152.64 430.471 156.69C430.471 156.69 430.381 156.69 430.201 156.6ZM430.201 143.91L430.921 155.7C443.701 152.1 449.461 144.36 450.451 142.92C448.381 139.77 447.751 135.54 446.761 131.31C445.231 124.92 444.601 118.44 444.511 116.1C441.811 118.62 432.541 127.98 432.181 132.39C431.641 137.34 430.381 143.19 430.201 143.91Z" fill="#060405"/>
<path d="M445.409 117.45C445.409 117.45 445.859 137.34 430.019 139.05C411.929 140.94 418.859 104.31 418.859 104.31L430.739 95.04L444.689 98.1L450.989 107.55L445.409 117.45Z" fill="white"/>
<path d="M428.67 139.59C425.88 139.59 423.45 138.6 421.65 136.62C413.91 128.25 418.23 105.21 418.41 104.22C418.41 104.13 418.5 104.04 418.59 103.95L430.47 94.68C430.56 94.59 430.74 94.59 430.83 94.59L444.78 97.65C444.87 97.65 444.96 97.74 445.05 97.83L451.35 107.28C451.44 107.46 451.44 107.64 451.35 107.73L445.86 117.54C445.86 119.25 445.41 137.79 430.02 139.41C429.57 139.59 429.12 139.59 428.67 139.59ZM419.22 104.58C418.86 106.74 415.17 128.34 422.28 135.99C424.17 138.06 426.78 138.96 429.93 138.6C445.14 136.98 444.96 117.72 444.96 117.45C444.96 117.18 444.69 117.81 450.45 107.55L444.33 98.55L430.74 95.58L419.22 104.58Z" fill="#060405"/>
<path d="M457.29 111.87C461.16 115.74 455.04 130.05 447.12 131.13C445.14 123.12 444.42 115.11 444.42 115.11C444.42 115.11 441.99 110.52 441.9 110.52C441.81 110.52 438.39 108.54 439.02 105.66C439.65 102.78 438.21 103.41 435.96 103.68C432.36 104.13 414.63 112.14 411.39 104.85C404.46 88.92 428.85 87.21 438.39 89.19C447.93 91.08 450.27 93.69 455.13 98.64C457.02 100.44 453.6 108.09 457.29 111.87Z" fill="#060405"/>
<path d="M422.012 116.37C422.012 117.27 422.552 118.08 423.092 118.08C423.722 118.08 424.172 117.27 424.172 116.37C424.172 115.38 423.632 114.66 423.092 114.66C422.462 114.66 422.012 115.38 422.012 116.37ZM431.552 117C431.552 117.9 432.092 118.71 432.632 118.71C433.262 118.71 433.712 117.9 433.712 117C433.712 116.01 433.172 115.29 432.632 115.29C432.002 115.29 431.552 116.01 431.552 117ZM427.862 125.64L425.882 123.75C425.702 123.57 425.072 123.03 425.342 122.4C425.522 121.77 426.242 121.68 426.512 121.5C426.872 121.32 426.962 120.69 427.052 120.15L427.502 116.28C427.502 116.01 427.772 115.83 428.042 115.92C428.312 115.92 428.492 116.19 428.402 116.46L427.952 120.33C427.862 120.87 427.772 121.95 426.962 122.4C426.332 122.76 425.792 122.67 426.512 123.21L428.492 125.1C428.672 125.28 428.672 125.55 428.492 125.73C428.402 125.82 428.042 125.82 427.862 125.64ZM427.862 131.4C427.682 131.22 427.682 130.95 427.772 130.77C427.952 130.59 428.222 130.59 428.402 130.68C429.482 131.58 431.012 131.49 431.912 130.5C432.092 130.32 432.362 130.32 432.542 130.5C432.722 130.68 432.722 130.95 432.542 131.13C431.282 132.48 429.212 132.57 427.862 131.4ZM437.582 163.53C435.692 162.45 430.472 156.78 430.202 156.6C430.022 156.42 430.022 156.15 430.202 155.97C430.382 155.79 430.652 155.79 430.832 155.97C430.922 156.06 436.232 161.73 438.032 162.81C439.742 163.8 440.372 163.71 441.452 162L448.022 151.83C448.202 151.65 448.472 151.56 448.652 151.74C448.832 151.92 448.922 152.19 448.742 152.37L442.172 162.54C440.822 164.52 439.742 164.79 437.582 163.53Z" fill="#060405"/>
<path d="M424.261 159.03C422.101 158.58 421.651 157.41 422.641 155.34L425.521 149.49C425.611 149.31 425.881 149.13 426.151 149.31C426.331 149.4 426.511 149.67 426.331 149.94L423.451 155.79C423.181 156.42 422.821 157.23 423.181 157.68C423.451 157.95 423.901 158.13 424.441 158.22C425.521 158.4 428.581 156.96 430.291 155.97C430.471 155.88 430.741 155.88 430.921 156.15C431.011 156.33 431.011 156.6 430.741 156.78C429.301 157.5 425.881 159.3 424.261 159.03Z" fill="#060405"/>
<path d="M460.17 384.57V382.14H474.75C474.93 386.91 475.29 395.82 475.47 395.82H451.71C450.9 387.99 460.17 384.57 460.17 384.57Z" fill="#FE6021"/>
<path d="M452.071 392.4C451.801 393.39 451.621 394.56 451.711 395.82H475.471C475.471 395.82 475.381 394.38 475.201 392.4H452.071Z" fill="#060405"/>
<path d="M412.56 384.57V382.14H427.14C427.32 386.91 427.68 395.82 427.86 395.82H404.1C403.2 387.99 412.56 384.57 412.56 384.57Z" fill="#FE6021"/>
<path d="M404.37 392.4C404.1 393.39 403.92 394.56 404.01 395.82H427.77C427.77 395.82 427.68 394.38 427.5 392.4H404.37ZM408.87 231.57H426.69C428.76 231.57 430.2 229.68 429.75 227.7L422.46 197.73C422.1 196.29 420.84 195.3 419.4 195.3H401.58C399.51 195.3 398.07 197.19 398.52 199.17L405.81 229.14C406.17 230.58 407.43 231.57 408.87 231.57Z" fill="#060405"/>
<path d="M476.279 209.25L428.579 212.76C428.579 212.76 427.499 205.92 424.709 207.54C422.009 209.16 424.709 211.5 424.709 211.5C424.709 211.5 409.049 211.59 413.189 221.49C417.329 231.3 431.999 225.36 431.999 225.36C431.999 225.36 484.649 241.56 496.889 228.42" fill="white"/>
<path d="M478.442 234.09C459.542 234.09 434.702 226.71 432.092 225.9C430.472 226.53 416.882 231.3 412.922 221.76C411.932 219.33 411.932 217.26 413.102 215.55C415.352 212.04 421.472 211.32 423.902 211.23C423.542 210.69 423.182 210.06 423.182 209.25C423.272 208.44 423.722 207.81 424.622 207.27C425.432 206.82 426.062 206.91 426.422 207.09C428.042 207.9 428.852 211.14 429.032 212.31L476.282 208.8C476.552 208.8 476.732 208.98 476.732 209.25C476.732 209.52 476.552 209.7 476.282 209.7L428.582 213.21C428.312 213.21 428.132 213.03 428.132 212.85C427.952 211.68 427.142 208.44 425.882 207.9C425.702 207.81 425.432 207.72 424.892 207.99C424.262 208.35 423.902 208.8 423.902 209.25C423.812 210.06 424.622 210.96 424.982 211.23C425.162 211.32 425.162 211.59 425.072 211.77C424.982 211.95 424.802 212.04 424.622 212.04C424.532 212.04 416.162 212.13 413.552 216C412.652 217.44 412.562 219.24 413.462 221.4C417.332 230.76 431.462 225.09 431.642 225H431.912C432.452 225.18 484.472 240.93 496.352 228.24C496.532 228.06 496.802 228.06 496.982 228.24C497.162 228.42 497.162 228.69 496.982 228.87C493.562 232.65 486.542 234.09 478.442 234.09ZM116.282 354.78C116.462 354.51 120.962 348.48 127.352 348.48C127.982 348.48 127.982 349.38 127.352 349.38C121.412 349.38 117.002 355.23 117.002 355.32C116.642 355.77 115.922 355.32 116.282 354.78Z" fill="#060405"/>
<path d="M111.512 354.51C114.212 351.54 119.342 349.2 122.402 341.01C123.032 339.21 123.572 337.32 123.122 335.43C122.672 333.54 121.322 331.83 119.432 331.56C117.542 331.29 115.832 332.46 114.212 333.36C112.592 334.26 110.342 334.8 108.902 333.63C107.642 332.55 107.912 332.46 104.132 313.65C103.592 311.04 102.782 308.07 100.352 307.08C95.9417 305.28 88.3818 312.03 88.5618 320.58C88.6518 325.17 91.0818 329.67 94.7718 332.28C95.9418 333.09 97.2017 333.81 98.1017 334.89C99.0017 335.97 99.1817 337.77 98.1917 338.76C96.9317 339.93 94.8617 339.12 93.1517 339.57C91.0817 340.2 90.0918 342.81 90.7218 344.88C92.0718 349.2 97.7418 350.28 101.072 352.17C105.032 354.33 107.822 358.56 108.902 362.79C108.992 362.88 109.262 356.94 111.512 354.51Z" fill="#008080"/>
<path d="M110.881 372.96C110.701 372.96 110.521 372.78 110.431 372.6C110.341 372.15 102.331 330.66 98.5514 324C98.2814 323.46 99.0014 323.01 99.3614 323.55C103.231 330.3 110.971 370.71 111.331 372.42C111.421 372.69 111.151 372.96 110.881 372.96Z" fill="#060405"/>
<path d="M106.469 353.16C106.469 352.8 107.279 344.7 113.219 341.19C113.759 340.92 114.209 341.64 113.669 342C108.179 345.24 107.369 353.16 107.369 353.25C107.369 353.88 106.469 353.79 106.469 353.16ZM105.389 348.3C105.389 348.21 102.869 342.45 97.4686 342.45C96.8386 342.45 96.8386 341.55 97.4686 341.55C103.589 341.55 106.199 347.94 106.289 348.03C106.379 348.3 106.289 348.48 106.019 348.66C105.749 348.66 105.479 348.57 105.389 348.3Z" fill="#060405"/>
<path d="M119.702 358.29C123.302 357.21 128.522 357.75 134.822 352.71C136.172 351.63 137.522 350.28 138.062 348.57C138.602 346.86 138.332 344.79 136.982 343.71C135.632 342.63 133.742 342.72 131.942 342.63C130.232 342.54 128.162 342 127.622 340.38C127.082 338.94 127.352 338.94 133.382 322.11C134.192 319.77 135.002 316.98 133.472 315C132.212 313.38 129.872 313.02 127.892 313.29C118.802 314.46 113.312 324.09 117.002 332.46C117.542 333.63 118.262 334.8 118.352 336.15C118.532 337.5 117.812 339.03 116.552 339.3C115.022 339.66 113.672 338.04 112.142 337.59C110.162 337.05 108.182 338.76 107.732 340.74C106.742 344.88 110.792 348.39 112.502 351.45C114.572 355.05 114.842 359.73 113.672 363.69C113.672 363.78 116.732 359.1 119.702 358.29Z" fill="#12A67C"/>
<path d="M110.429 372.78C110.159 372.69 110.069 372.42 110.159 372.24C110.339 371.88 123.749 334.89 123.839 327.87C123.839 327.24 124.739 327.33 124.739 327.87C124.649 335.07 111.509 371.07 110.969 372.6C110.969 372.78 110.699 372.87 110.429 372.78Z" fill="#060405"/>
<path d="M117.719 350.37C117.719 350.28 118.529 344.52 114.209 341.91C113.669 341.64 114.119 340.83 114.659 341.1C119.519 343.98 118.619 350.19 118.619 350.46C118.529 351.09 117.629 351 117.719 350.37Z" fill="#060405"/>
<path d="M118.711 395.91H104.671C103.861 395.91 103.141 395.28 102.961 394.47L97.2907 369.99C97.1107 368.91 97.9207 368.01 99.0007 368.01L124.561 368.1C125.641 368.1 126.451 369.09 126.271 370.08L120.421 394.47C120.331 395.37 119.611 395.91 118.711 395.91Z" fill="white"/>
<path d="M118.798 396.36H104.758C103.678 396.36 102.778 395.55 102.598 394.56L96.9284 370.17C96.6584 368.73 97.7384 367.65 99.0884 367.65L124.648 367.74C125.998 367.74 126.988 369 126.808 370.26L120.958 394.74C120.688 395.64 119.788 396.36 118.798 396.36ZM98.9984 368.46C98.1884 368.46 97.6484 369.18 97.7384 369.99L103.408 394.38C103.498 395.01 104.038 395.46 104.668 395.46H118.708C119.338 395.46 119.878 395.01 119.968 394.38L125.818 369.9C125.908 369.18 125.368 368.46 124.558 368.46H98.9984Z" fill="#060405"/>
<path d="M262.892 313.38H226.082C225.902 313.38 225.722 313.2 225.722 313.02C225.722 312.84 225.902 312.66 226.082 312.66H262.892C263.072 312.66 263.252 312.84 263.252 313.02C263.252 313.2 263.072 313.38 262.892 313.38ZM262.892 331.65H226.082C225.902 331.65 225.722 331.47 225.722 331.29C225.722 331.11 225.902 330.93 226.082 330.93H262.892C263.072 330.93 263.252 331.11 263.252 331.29C263.252 331.47 263.072 331.65 262.892 331.65ZM256.232 322.47H204.122C203.942 322.47 203.762 322.29 203.762 322.11C203.762 321.93 203.942 321.75 204.122 321.75H256.232C256.412 321.75 256.592 321.93 256.592 322.11C256.592 322.29 256.412 322.47 256.232 322.47Z" fill="#25E498"/>
<path d="M233.641 313.38C233.461 313.38 233.281 313.2 233.281 313.02V305.28C233.281 305.1 233.461 304.92 233.641 304.92C233.821 304.92 234.001 305.1 234.001 305.28V313.02C234.001 313.2 233.821 313.38 233.641 313.38ZM246.601 322.47C246.421 322.47 246.241 322.29 246.241 322.11V313.02C246.241 312.84 246.421 312.66 246.601 312.66C246.781 312.66 246.961 312.84 246.961 313.02V322.2C246.961 322.38 246.781 322.47 246.601 322.47ZM236.791 331.29C236.611 331.29 236.431 331.11 236.431 330.93V322.2C236.431 322.02 236.611 321.84 236.791 321.84C236.971 321.84 237.151 322.02 237.151 322.2V331.02C237.061 331.2 236.971 331.29 236.791 331.29ZM80.9106 230.22H55.6206C55.4406 230.22 55.2606 230.04 55.2606 229.86C55.2606 229.68 55.4406 229.5 55.6206 229.5H80.9106C81.0906 229.5 81.2706 229.68 81.2706 229.86C81.2706 230.04 81.0906 230.22 80.9106 230.22ZM80.9106 242.73H55.6206C55.4406 242.73 55.2606 242.55 55.2606 242.37C55.2606 242.19 55.4406 242.01 55.6206 242.01H80.9106C81.0906 242.01 81.2706 242.19 81.2706 242.37C81.2706 242.55 81.0906 242.73 80.9106 242.73ZM76.3206 236.52H40.5006C40.3206 236.52 40.1406 236.34 40.1406 236.16C40.1406 235.98 40.3206 235.8 40.5006 235.8H76.3206C76.5006 235.8 76.6806 235.98 76.6806 236.16C76.6806 236.34 76.5006 236.52 76.3206 236.52Z" fill="#25E498"/>
<path d="M60.8405 230.22C60.6605 230.22 60.4805 230.04 60.4805 229.86V224.55C60.4805 224.37 60.6605 224.19 60.8405 224.19C61.0205 224.19 61.2005 224.37 61.2005 224.55V229.86C61.1105 230.04 61.0205 230.22 60.8405 230.22ZM69.6605 236.52C69.4805 236.52 69.3005 236.34 69.3005 236.16V229.86C69.3005 229.68 69.4805 229.5 69.6605 229.5C69.8405 229.5 70.0205 229.68 70.0205 229.86V236.16C70.0205 236.34 69.8405 236.52 69.6605 236.52ZM62.9105 242.55C62.7305 242.55 62.5505 242.37 62.5505 242.19V236.16C62.5505 235.98 62.7305 235.8 62.9105 235.8C63.0905 235.8 63.2705 235.98 63.2705 236.16V242.19C63.2705 242.37 63.0905 242.55 62.9105 242.55ZM393.21 110.97H367.92C367.74 110.97 367.56 110.79 367.56 110.61C367.56 110.43 367.74 110.25 367.92 110.25H393.21C393.39 110.25 393.57 110.43 393.57 110.61C393.57 110.79 393.39 110.97 393.21 110.97ZM393.21 123.48H367.92C367.74 123.48 367.56 123.3 367.56 123.12C367.56 122.94 367.74 122.76 367.92 122.76H393.21C393.39 122.76 393.57 122.94 393.57 123.12C393.57 123.3 393.39 123.48 393.21 123.48ZM388.62 117.18H352.8C352.62 117.18 352.44 117 352.44 116.82C352.44 116.64 352.62 116.46 352.8 116.46H388.62C388.8 116.46 388.98 116.64 388.98 116.82C388.98 117 388.8 117.18 388.62 117.18Z" fill="#25E498"/>
<path d="M373.05 110.97C372.87 110.97 372.69 110.79 372.69 110.61V105.3C372.69 105.12 372.87 104.94 373.05 104.94C373.23 104.94 373.41 105.12 373.41 105.3V110.61C373.41 110.79 373.23 110.97 373.05 110.97ZM381.96 117.18C381.78 117.18 381.6 117 381.6 116.82V110.52C381.6 110.34 381.78 110.16 381.96 110.16C382.14 110.16 382.32 110.34 382.32 110.52V116.82C382.32 117.09 382.14 117.18 381.96 117.18ZM375.21 123.3C375.03 123.3 374.85 123.12 374.85 122.94V116.91C374.85 116.73 375.03 116.55 375.21 116.55C375.39 116.55 375.57 116.73 375.57 116.91V122.94C375.57 123.12 375.39 123.3 375.21 123.3ZM374.31 352.35H331.83C331.65 352.35 331.47 352.17 331.47 351.99C331.47 351.81 331.65 351.63 331.83 351.63H374.31C374.49 351.63 374.67 351.81 374.67 351.99C374.67 352.17 374.49 352.35 374.31 352.35ZM374.31 373.41H331.83C331.65 373.41 331.47 373.23 331.47 373.05C331.47 372.87 331.65 372.69 331.83 372.69H374.31C374.49 372.69 374.67 372.87 374.67 373.05C374.67 373.23 374.49 373.41 374.31 373.41ZM366.57 362.88H306.45C306.27 362.88 306.09 362.7 306.09 362.52C306.09 362.34 306.27 362.16 306.45 362.16H366.57C366.75 362.16 366.93 362.34 366.93 362.52C366.93 362.7 366.75 362.88 366.57 362.88Z" fill="#25E498"/>
<path d="M340.559 352.35C340.379 352.35 340.199 352.17 340.199 351.99V342.99C340.199 342.81 340.379 342.63 340.559 342.63C340.739 342.63 340.919 342.81 340.919 342.99V351.99C340.829 352.17 340.739 352.35 340.559 352.35ZM355.499 362.88C355.319 362.88 355.139 362.7 355.139 362.52V351.99C355.139 351.81 355.319 351.63 355.499 351.63C355.679 351.63 355.859 351.81 355.859 351.99V362.52C355.769 362.7 355.679 362.88 355.499 362.88ZM344.069 373.05C343.889 373.05 343.709 372.87 343.709 372.69V362.52C343.709 362.34 343.889 362.16 344.069 362.16C344.249 362.16 344.429 362.34 344.429 362.52V372.69C344.429 372.87 344.249 373.05 344.069 373.05Z" fill="#25E498"/>
</svg>
