<?xml version="1.0" standalone="no"?>
<!DOCTYPE svg PUBLIC "-//W3C//DTD SVG 20010904//EN"
 "http://www.w3.org/TR/2001/REC-SVG-20010904/DTD/svg10.dtd">
<svg version="1.0" xmlns="http://www.w3.org/2000/svg"
 width="2048.000000pt" height="2048.000000pt" viewBox="0 0 2048.000000 2048.000000"
 preserveAspectRatio="xMidYMid meet">

<g transform="translate(0.000000,2048.000000) scale(0.100000,-0.100000)"
fill="#000000" stroke="none">
<path d="M9905 17533 c-1506 -18 -2960 -171 -4073 -429 -902 -208 -1546 -469
-1895 -767 -176 -151 -272 -287 -329 -467 l-23 -75 0 -5555 0 -5555 23 -75
c57 -179 152 -314 330 -468 629 -541 2290 -967 4387 -1126 1060 -81 2246 -91
3355 -31 1557 86 2935 316 3881 649 831 292 1264 639 1329 1064 7 45 10 1841
8 5587 l-3 5520 -23 70 c-60 177 -152 308 -323 456 -679 590 -2543 1035 -4879
1164 -524 29 -1255 45 -1765 38z m1185 -523 c1447 -54 2623 -200 3635 -450
585 -145 1083 -335 1365 -522 114 -75 237 -195 269 -261 63 -131 -23 -265
-277 -434 -525 -348 -1615 -641 -3057 -823 -495 -62 -944 -99 -1670 -137 -258
-13 -502 -17 -1115 -17 -818 0 -1037 7 -1735 54 -510 35 -719 56 -1250 126
-1297 169 -2356 464 -2857 797 -241 160 -336 298 -285 417 113 269 768 586
1665 806 902 221 1890 353 3167 424 520 29 1626 39 2145 20z m-6948 -2112 c63
-45 261 -148 416 -217 830 -368 2246 -651 3832 -766 1509 -109 3181 -79 4555
81 496 58 615 75 1070 155 758 134 1423 317 1895 524 159 69 340 163 418 217
27 19 47 27 53 21 6 -6 8 -573 7 -1454 l-3 -1444 -27 -46 c-146 -248 -620
-495 -1349 -703 -507 -145 -1212 -285 -1819 -360 -1041 -130 -1818 -176 -2950
-176 -588 0 -932 9 -1420 35 -1283 71 -2492 253 -3384 510 -703 203 -1203 470
-1319 705 l-22 45 -3 1435 c-1 789 0 1440 3 1447 6 18 12 16 47 -9z m38 -3658
c232 -151 746 -357 1180 -475 74 -20 173 -47 220 -60 419 -117 1270 -268 1910
-339 992 -111 1664 -147 2750 -147 344 0 758 5 920 11 2131 77 3952 406 4923
891 78 39 174 91 213 115 39 24 76 44 82 44 16 0 17 -2822 1 -2889 -30 -132
-235 -305 -533 -451 -403 -197 -936 -359 -1656 -504 -317 -64 -441 -85 -860
-145 -472 -69 -1310 -147 -1775 -166 -82 -4 -163 -8 -180 -10 -16 -3 -280 -10
-585 -16 -607 -13 -1392 -2 -1890 26 -1280 72 -2367 225 -3260 460 -818 215
-1373 489 -1516 749 l-29 51 -3 1448 c-2 1217 0 1447 11 1447 8 0 42 -18 77
-40z m34 -3655 c356 -206 821 -378 1451 -534 963 -239 2105 -386 3520 -453
361 -17 1749 -17 2110 0 1658 78 2989 273 4015 588 417 128 742 267 1005 427
33 20 63 37 68 37 4 0 6 -651 5 -1447 l-3 -1448 -24 -50 c-14 -28 -57 -82
-100 -125 -482 -479 -2123 -900 -4096 -1050 -704 -53 -1182 -71 -1925 -71
-1446 0 -2696 104 -3822 316 -930 176 -1638 410 -2033 670 -110 73 -232 193
-265 260 l-25 50 -3 1448 c-1 796 1 1447 4 1447 4 0 57 -29 118 -65z"/>
</g>
</svg>
