<?xml version="1.0" standalone="no"?>
<!DOCTYPE svg PUBLIC "-//W3C//DTD SVG 20010904//EN"
 "http://www.w3.org/TR/2001/REC-SVG-20010904/DTD/svg10.dtd">
<svg version="1.0" xmlns="http://www.w3.org/2000/svg"
 width="2048.000000pt" height="2048.000000pt" viewBox="0 0 2048.000000 2048.000000"
 preserveAspectRatio="xMidYMid meet">

<g transform="translate(0.000000,2048.000000) scale(0.100000,-0.100000)"
fill="#000000" stroke="none">
<path d="M2730 16889 c-78 -13 -205 -78 -264 -136 -69 -68 -101 -119 -133
-209 l-28 -79 0 -6225 0 -6225 27 -78 c34 -93 60 -136 124 -201 59 -59 97 -84
189 -122 l70 -29 7520 0 c7320 0 7521 0 7575 19 82 28 151 70 210 128 69 68
106 127 133 213 l22 70 0 6230 0 6230 -23 65 c-33 90 -63 137 -129 205 -70 70
-186 129 -283 145 -82 13 -14929 12 -15010 -1z m14930 -6649 l0 -6150 -7420 0
-7420 0 0 6150 0 6150 7420 0 7420 0 0 -6150z"/>
<path d="M4010 15495 c-101 -32 -172 -132 -171 -245 1 -224 269 -335 431 -178
70 69 93 184 57 280 -24 62 -90 122 -158 142 -63 19 -99 19 -159 1z"/>
<path d="M4994 15501 c-111 -29 -194 -133 -194 -246 0 -142 113 -255 255 -255
226 0 339 274 179 434 -56 55 -165 86 -240 67z"/>
<path d="M5957 15499 c-56 -13 -90 -33 -129 -77 -45 -49 -62 -100 -62 -177 1
-184 196 -302 362 -219 157 78 191 278 70 404 -58 59 -161 89 -241 69z"/>
<path d="M7257 15493 c-57 -19 -121 -78 -148 -136 -11 -26 -19 -65 -19 -102 0
-106 56 -191 155 -236 39 -18 209 -19 4625 -19 l4585 0 50 24 c56 25 110 81
132 135 9 20 15 64 15 98 -1 111 -72 207 -176 238 -43 13 -624 15 -4610 14
-4151 0 -4565 -2 -4609 -16z"/>
<path d="M10995 12181 c-70 -18 -140 -73 -171 -133 -9 -17 -37 -87 -64 -157
-26 -69 -85 -220 -130 -336 -45 -115 -103 -266 -130 -335 -26 -69 -85 -219
-130 -335 -45 -115 -103 -266 -130 -335 -70 -180 -181 -467 -262 -675 -38 -99
-98 -254 -133 -345 -83 -217 -186 -481 -275 -710 -39 -102 -94 -241 -120 -310
-27 -69 -85 -219 -130 -335 -225 -579 -230 -592 -230 -654 0 -181 191 -304
355 -227 103 47 101 45 335 651 44 116 105 273 135 350 214 552 287 740 386
995 39 102 102 264 139 360 37 96 96 247 130 335 34 88 88 228 120 310 54 139
128 329 281 725 90 233 180 465 255 655 56 140 68 183 72 243 4 63 1 79 -22
126 -50 102 -177 164 -281 137z"/>
<path d="M7935 11641 c-22 -10 -152 -95 -290 -189 -293 -201 -366 -250 -1425
-973 -443 -302 -819 -565 -837 -585 -88 -100 -80 -259 19 -350 28 -27 2286
-1573 2469 -1692 89 -57 159 -72 232 -49 186 59 248 288 113 421 -23 23 -214
158 -424 301 -211 143 -432 294 -492 335 -60 41 -370 253 -689 470 -434 296
-577 398 -568 406 7 6 77 55 157 109 673 455 1982 1354 2008 1379 57 53 77
101 77 186 0 113 -46 184 -150 231 -53 24 -147 24 -200 0z"/>
<path d="M12332 11634 c-155 -77 -189 -289 -65 -406 15 -15 354 -250 753 -522
399 -272 802 -547 895 -611 94 -64 248 -170 344 -235 96 -66 178 -123 182
-127 4 -4 -483 -343 -1083 -753 -791 -541 -1098 -755 -1118 -783 -54 -74 -63
-183 -21 -265 59 -115 205 -172 314 -124 26 12 336 219 690 460 353 241 700
478 771 526 560 379 1047 715 1080 745 106 98 114 252 18 358 -22 24 -337 246
-762 535 -399 272 -781 533 -850 580 -69 47 -172 118 -230 157 -58 40 -175
119 -260 177 -85 58 -211 144 -280 191 -69 47 -143 94 -165 104 -61 28 -149
25 -213 -7z"/>
</g>
</svg>
