<?xml version="1.0" standalone="no"?>
<!DOCTYPE svg PUBLIC "-//W3C//DTD SVG 20010904//EN"
 "http://www.w3.org/TR/2001/REC-SVG-20010904/DTD/svg10.dtd">
<svg version="1.0" xmlns="http://www.w3.org/2000/svg"
 width="2048.000000pt" height="2048.000000pt" viewBox="0 0 2048.000000 2048.000000"
 preserveAspectRatio="xMidYMid meet">

<g transform="translate(0.000000,2048.000000) scale(0.100000,-0.100000)"
fill="#000000" stroke="none">
<path d="M9940 17530 c-199 -10 -473 -34 -670 -60 -1097 -142 -2196 -563
-3120 -1194 -191 -131 -244 -169 -385 -280 -492 -386 -895 -789 -1281 -1281
-111 -141 -149 -194 -280 -385 -1124 -1645 -1519 -3701 -1088 -5660 257 -1168
798 -2249 1587 -3172 318 -372 624 -666 1028 -986 1032 -816 2289 -1347 3569
-1506 656 -82 1224 -82 1880 0 1386 172 2728 773 3825 1714 228 196 559 527
755 755 679 793 1174 1693 1471 2680 203 673 302 1361 302 2085 0 350 -14 580
-59 940 -142 1144 -587 2285 -1272 3259 -89 126 -337 444 -438 561 -535 618
-1183 1154 -1889 1561 -860 497 -1806 811 -2780 923 -369 43 -835 61 -1155 46z
m572 -539 c223 -59 379 -135 578 -282 113 -83 385 -356 492 -494 295 -381 569
-889 791 -1470 136 -356 289 -853 372 -1210 20 -88 43 -184 50 -212 l13 -53
-2567 0 -2568 0 54 228 c230 978 587 1860 1006 2487 133 199 242 331 416 505
296 296 556 449 861 509 30 6 64 13 75 15 11 3 94 3 185 1 125 -2 184 -8 242
-24z m-1812 -228 c-487 -514 -915 -1313 -1245 -2323 -85 -263 -84 -259 -149
-495 -50 -184 -76 -289 -139 -573 l-23 -102 -1479 0 c-813 0 -1480 2 -1482 4
-9 8 145 294 259 481 444 729 1042 1388 1728 1906 597 451 1282 805 2011 1040
195 63 544 157 587 158 20 1 9 -15 -68 -96z m3188 56 c163 -40 436 -122 597
-179 817 -289 1572 -731 2215 -1294 257 -225 673 -658 817 -848 15 -21 80
-106 144 -190 149 -195 261 -360 387 -570 92 -151 252 -445 252 -461 0 -4
-667 -6 -1482 -5 l-1482 3 -12 50 c-6 28 -28 125 -48 218 -33 150 -124 499
-161 617 -280 904 -546 1506 -902 2049 -155 234 -286 402 -447 569 -54 55 -74
82 -62 82 10 0 93 -18 184 -41z m-4841 -4091 c-41 -169 -130 -944 -166 -1453
-34 -460 -40 -1502 -12 -1920 33 -487 98 -1119 146 -1420 8 -49 15 -96 15
-102 0 -10 -319 -13 -1563 -13 l-1563 0 -46 128 c-361 1008 -479 2070 -347
3127 54 433 143 834 278 1255 27 85 67 203 90 261 22 58 45 118 50 133 l11 26
1556 0 1556 0 -5 -22z m5863 16 c0 -4 11 -72 25 -153 56 -331 122 -898 149
-1281 48 -667 48 -1482 1 -2135 -27 -366 -85 -876 -141 -1243 l-17 -112 -2686
2 -2686 3 -22 140 c-47 291 -111 858 -137 1215 -53 716 -45 1670 19 2360 36
380 86 787 130 1051 14 81 25 149 25 153 0 3 1202 6 2670 6 1469 0 2670 -3
2670 -6z m3696 -169 c274 -737 416 -1530 415 -2325 -1 -802 -124 -1524 -388
-2272 l-55 -158 -1564 0 c-860 0 -1564 2 -1564 5 0 3 13 99 30 213 66 464 118
1017 140 1502 13 277 13 1122 0 1400 -27 586 -101 1299 -185 1783 l-5 27 1557
-2 1556 -3 63 -170z m-9481 -5277 c2 -7 31 -137 65 -288 323 -1441 872 -2632
1528 -3312 53 -56 69 -78 56 -78 -57 1 -549 137 -744 207 -851 303 -1544 704
-2235 1291 -159 136 -567 551 -727 740 -311 368 -548 713 -780 1132 -76 137
-158 300 -158 313 0 4 673 7 1495 7 1188 0 1496 -3 1500 -12z m5698 5 c8 -13
-120 -537 -194 -796 -523 -1829 -1387 -2977 -2291 -3045 -499 -38 -976 225
-1423 783 -496 618 -930 1627 -1204 2800 -32 138 -56 253 -54 258 2 4 1165 7
2583 7 1418 0 2581 -3 2583 -7z m3527 -3 c0 -28 -185 -370 -313 -580 -144
-237 -364 -552 -496 -710 -504 -605 -937 -1004 -1511 -1392 -645 -436 -1415
-780 -2145 -959 -88 -21 -166 -39 -173 -39 -7 0 38 56 99 125 172 193 320 388
449 595 439 700 788 1598 1026 2645 35 154 66 290 69 303 l5 22 1495 0 c1008
0 1495 -3 1495 -10z"/>
</g>
</svg>
