<?xml version="1.0" standalone="no"?>
<!DOCTYPE svg PUBLIC "-//W3C//DTD SVG 20010904//EN"
 "http://www.w3.org/TR/2001/REC-SVG-20010904/DTD/svg10.dtd">
<svg version="1.0" xmlns="http://www.w3.org/2000/svg"
 width="2048.000000pt" height="2048.000000pt" viewBox="0 0 2048.000000 2048.000000"
 preserveAspectRatio="xMidYMid meet">

<g transform="translate(0.000000,2048.000000) scale(0.100000,-0.100000)"
fill="#000000" stroke="none">
<path d="M10125 16890 c-529 -49 -964 -397 -1139 -911 -81 -241 -79 -566 6
-814 114 -333 344 -600 655 -757 205 -105 357 -141 593 -141 324 0 573 87 826
289 432 344 603 950 413 1466 -187 508 -643 844 -1184 871 -49 3 -126 1 -170
-3z m345 -540 c209 -71 363 -193 465 -368 71 -121 97 -212 103 -368 6 -158
-11 -249 -68 -369 -48 -103 -82 -152 -161 -232 -155 -157 -348 -236 -574 -235
-137 0 -234 24 -365 88 -80 40 -109 62 -191 143 -107 107 -161 192 -206 326
-25 73 -27 94 -27 240 -1 141 2 169 23 235 82 261 278 456 542 539 93 29 100
30 254 26 113 -2 153 -7 205 -25z"/>
<path d="M8845 13783 c-71 -10 -195 -47 -269 -80 -290 -130 -506 -377 -590
-675 -43 -149 -48 -273 -44 -1108 l3 -775 23 -58 c44 -109 120 -185 229 -229
l58 -23 1985 0 1985 0 58 23 c109 44 185 120 229 229 l23 58 3 790 c3 796 -1
932 -33 1058 -55 216 -177 411 -345 552 -118 99 -261 173 -420 218 -75 21 -80
21 -1470 23 -767 1 -1408 -1 -1425 -3z m2740 -514 c84 -15 170 -57 241 -116
81 -68 128 -134 167 -235 l32 -83 0 -745 0 -745 -1785 0 -1785 0 0 735 c0 814
-3 776 67 913 63 125 227 250 363 275 74 14 2625 15 2700 1z"/>
<path d="M10163 10447 c-67 -25 -123 -75 -151 -135 l-27 -57 -3 -965 -3 -965
-684 -685 c-523 -524 -689 -696 -704 -730 -24 -52 -27 -132 -9 -193 18 -59
100 -140 161 -156 58 -17 151 -10 198 14 19 9 319 301 666 648 l633 632 627
-627 c346 -344 644 -634 663 -644 25 -14 57 -19 115 -19 70 0 86 4 128 28 71
42 120 121 125 202 8 127 32 99 -723 855 l-675 675 -2 970 -3 970 -23 47 c-56
114 -198 175 -309 135z"/>
<path d="M6116 9639 c-252 -27 -484 -120 -681 -274 -348 -272 -540 -718 -496
-1153 29 -289 123 -513 305 -729 124 -147 251 -246 431 -334 473 -233 1051
-154 1443 195 284 254 443 605 444 981 0 208 -44 402 -132 581 -204 416 -602
690 -1068 734 -118 11 -132 11 -246 -1z m309 -526 c91 -21 187 -60 260 -108
77 -50 200 -176 243 -248 161 -270 161 -584 0 -854 -42 -71 -166 -198 -240
-246 -128 -84 -286 -130 -443 -129 -360 1 -666 230 -771 577 -24 79 -28 106
-28 225 0 119 4 146 28 225 80 265 279 465 542 544 139 43 263 47 409 14z"/>
<path d="M14105 9640 c-317 -33 -595 -169 -818 -399 -179 -185 -289 -393 -344
-651 -25 -120 -25 -401 0 -520 52 -240 163 -455 327 -633 250 -270 587 -418
955 -420 427 -2 804 185 1060 525 469 622 291 1522 -380 1920 -235 139 -533
206 -800 178z m213 -510 c340 -43 599 -265 694 -595 32 -114 32 -296 0 -410
-79 -276 -278 -481 -545 -564 -373 -115 -785 63 -952 411 -67 138 -80 196 -80
358 0 123 4 156 23 217 66 209 199 380 377 483 91 52 262 101 380 109 11 0 57
-4 103 -9z"/>
<path d="M4940 6543 c-277 -22 -518 -136 -700 -329 -147 -156 -237 -337 -274
-549 -14 -77 -16 -210 -16 -916 0 -797 1 -829 20 -890 35 -112 122 -204 237
-251 l58 -23 1959 -3 c1720 -2 1967 0 2018 13 103 26 188 88 244 177 56 89 55
62 52 1020 -3 877 -3 884 -25 961 -94 330 -330 596 -634 715 -209 81 -93 76
-1574 77 -726 1 -1340 0 -1365 -2z m2672 -524 c133 -28 305 -162 362 -282 56
-118 56 -120 56 -915 l0 -732 -1782 2 -1783 3 -3 718 c-2 763 -1 795 46 899
46 103 157 215 269 272 90 46 61 45 1460 45 932 1 1338 -2 1375 -10z"/>
<path d="M12890 6540 c-433 -40 -800 -354 -923 -789 -21 -75 -22 -89 -25 -960
-2 -808 -1 -888 14 -935 32 -95 95 -173 183 -222 102 -57 -10 -54 2088 -54
1393 0 1947 3 1985 11 153 33 277 153 308 299 8 40 10 286 8 910 -4 836 -4
857 -25 935 -111 415 -423 710 -843 797 -65 13 -2632 21 -2770 8z m2725 -526
c128 -33 260 -135 332 -256 18 -29 42 -90 53 -133 19 -77 20 -107 18 -805 l-3
-725 -1782 -3 -1783 -2 0 732 c0 798 0 798 58 916 57 117 219 247 347 278 38
9 370 13 1375 13 1168 1 1333 -1 1385 -15z"/>
</g>
</svg>
