<?xml version="1.0" standalone="no"?>
<!DOCTYPE svg PUBLIC "-//W3C//DTD SVG 20010904//EN"
 "http://www.w3.org/TR/2001/REC-SVG-20010904/DTD/svg10.dtd">
<svg version="1.0" xmlns="http://www.w3.org/2000/svg"
 width="2048.000000pt" height="2048.000000pt" viewBox="0 0 2048.000000 2048.000000"
 preserveAspectRatio="xMidYMid meet">

<g transform="translate(0.000000,2048.000000) scale(0.100000,-0.100000)"
fill="#000000" stroke="none">
<path d="M7010 17529 c-521 -51 -952 -425 -1081 -940 l-24 -94 0 -6255 0
-6255 24 -94 c59 -235 175 -436 347 -601 178 -171 358 -265 616 -322 l103 -23
3245 0 3245 0 104 23 c57 13 131 32 165 44 412 139 742 524 811 949 13 84 15
777 15 6279 0 6683 3 6264 -50 6430 -34 105 -123 279 -188 365 -185 248 -429
403 -750 477 l-97 22 -3200 2 c-1760 1 -3238 -2 -3285 -7z m6400 -509 c271
-27 486 -179 601 -424 57 -121 59 -147 59 -768 l0 -568 -3830 0 -3831 0 3 593
3 592 27 78 c55 163 178 317 319 400 80 47 201 86 299 96 108 12 6233 13 6350
1z m660 -6220 l0 -3950 -3830 0 -3830 0 0 3950 0 3950 3830 0 3830 0 0 -3950z
m0 -5580 c0 -1232 1 -1201 -61 -1338 -107 -237 -328 -394 -594 -422 -124 -13
-6241 -13 -6355 0 -266 30 -478 183 -591 423 -60 131 -59 100 -59 1333 l0
1124 3830 0 3830 0 0 -1120z"/>
<path d="M10158 5399 c-239 -36 -428 -258 -428 -504 0 -124 51 -251 140 -349
66 -71 200 -140 303 -156 145 -22 304 29 415 133 105 100 162 233 162 377 0
170 -89 329 -240 430 -87 58 -235 87 -352 69z"/>
</g>
</svg>
