<?xml version="1.0" standalone="no"?>
<!DOCTYPE svg PUBLIC "-//W3C//DTD SVG 20010904//EN"
 "http://www.w3.org/TR/2001/REC-SVG-20010904/DTD/svg10.dtd">
<svg version="1.0" xmlns="http://www.w3.org/2000/svg"
 width="2048.000000pt" height="2048.000000pt" viewBox="0 0 2048.000000 2048.000000"
 preserveAspectRatio="xMidYMid meet">

<g transform="translate(0.000000,2048.000000) scale(0.100000,-0.100000)"
fill="#000000" stroke="none">
<path d="M9255 16884 c-652 -49 -1270 -202 -1840 -457 -618 -276 -1119 -620
-1600 -1102 -224 -223 -336 -351 -502 -571 -554 -735 -906 -1589 -1029 -2491
-14 -109 -28 -203 -29 -209 -2 -7 -43 -35 -92 -65 -528 -315 -998 -789 -1315
-1324 -478 -806 -641 -1734 -472 -2685 86 -483 317 -1028 623 -1472 227 -327
568 -675 906 -920 200 -146 516 -324 740 -418 306 -128 661 -226 981 -271 l82
-11 5 -301 c4 -267 7 -312 26 -387 76 -297 294 -511 606 -596 68 -18 176 -19
3895 -19 3709 0 3827 1 3894 19 313 84 525 292 607 591 21 73 23 111 28 454
l6 374 180 57 c732 232 1331 596 1870 1135 472 471 827 1022 1058 1640 173
461 255 862 288 1396 14 226 3 512 -31 790 -151 1224 -804 2356 -1786 3096
-388 292 -811 519 -1259 676 -232 81 -331 107 -720 192 -13 3 -31 26 -49 62
-114 233 -393 644 -635 933 -126 152 -454 480 -611 611 -632 532 -1338 900
-2125 1108 -255 68 -469 107 -805 147 -119 15 -769 27 -895 18z m865 -529
c615 -75 1110 -220 1635 -480 303 -150 549 -303 806 -501 427 -329 826 -763
1121 -1219 93 -145 129 -208 240 -420 55 -104 101 -191 102 -192 1 -1 78 -14
171 -28 750 -116 1457 -440 2030 -929 717 -614 1212 -1473 1374 -2386 47 -267
56 -389 55 -740 0 -359 -12 -489 -70 -791 -99 -516 -329 -1061 -638 -1514
-247 -363 -649 -769 -1021 -1032 -207 -146 -537 -330 -760 -423 -83 -35 -375
-140 -387 -140 -4 0 -9 1142 -11 2538 -2 2423 -3 2540 -21 2606 -65 245 -201
419 -417 535 -41 22 -110 50 -154 63 l-80 23 -3855 0 -3855 0 -80 -23 c-161
-46 -318 -153 -417 -283 -96 -125 -148 -253 -168 -411 -7 -55 -10 -945 -10
-2640 l0 -2558 -24 0 c-72 0 -421 79 -586 134 -146 47 -337 128 -485 205 -757
392 -1344 1072 -1616 1871 -121 353 -168 620 -176 998 -9 410 38 741 158 1109
278 854 879 1551 1686 1957 84 42 74 14 98 281 100 1135 593 2185 1404 2995
731 729 1644 1197 2652 1359 136 22 360 49 454 55 153 9 715 -3 845 -19z
m3931 -5554 c72 -28 112 -58 146 -110 61 -94 58 -44 61 -948 l3 -833 -4011 0
c-2205 0 -4013 1 -4017 3 -5 1 -8 373 -8 827 0 898 -2 858 57 951 34 51 74 82
144 109 48 19 142 19 3811 20 3704 0 3764 0 3814 -19z m204 -3356 l0 -940
-4015 0 -4015 0 -3 943 -2 942 4017 -2 4018 -3 0 -940z m0 -2285 l0 -825 -26
-56 c-33 -71 -87 -125 -158 -158 l-56 -26 -3775 0 -3775 0 -56 26 c-71 33
-125 87 -158 158 l-26 56 -3 814 c-1 448 0 821 2 828 5 11 696 13 4018 11
l4013 -3 0 -825z"/>
<path d="M7054 10116 c-68 -22 -104 -48 -141 -105 -112 -169 6 -391 210 -391
132 0 235 91 253 224 14 98 -52 217 -141 257 -56 25 -132 31 -181 15z"/>
<path d="M8160 10115 c-175 -54 -231 -294 -100 -423 52 -50 107 -72 178 -72
75 0 116 16 172 66 60 55 84 106 84 184 0 115 -71 213 -178 245 -60 18 -97 18
-156 0z"/>
<path d="M7067 7649 c-115 -28 -196 -131 -197 -249 0 -262 359 -348 483 -115
30 56 30 174 0 230 -56 105 -176 161 -286 134z"/>
<path d="M8135 7631 c-46 -21 -98 -69 -123 -115 -23 -43 -24 -189 0 -232 119
-218 446 -160 483 87 14 96 -43 204 -134 251 -66 34 -162 38 -226 9z"/>
<path d="M7042 5251 c-101 -35 -172 -134 -172 -241 1 -186 200 -308 368 -224
204 101 178 404 -39 468 -67 20 -92 20 -157 -3z"/>
<path d="M8155 5255 c-101 -38 -165 -132 -165 -244 0 -84 23 -134 84 -188 61
-54 101 -67 188 -61 56 4 78 11 111 34 131 93 160 247 69 369 -65 87 -189 126
-287 90z"/>
</g>
</svg>
