<?xml version="1.0" standalone="no"?>
<!DOCTYPE svg PUBLIC "-//W3C//DTD SVG 20010904//EN"
 "http://www.w3.org/TR/2001/REC-SVG-20010904/DTD/svg10.dtd">
<svg version="1.0" xmlns="http://www.w3.org/2000/svg"
 width="2048.000000pt" height="2048.000000pt" viewBox="0 0 2048.000000 2048.000000"
 preserveAspectRatio="xMidYMid meet">

<g transform="translate(0.000000,2048.000000) scale(0.100000,-0.100000)"
fill="#000000" stroke="none">
<path d="M9955 17529 c-416 -29 -837 -123 -1190 -266 -933 -378 -1687 -1093
-2110 -2002 -170 -363 -296 -800 -344 -1191 -26 -205 -31 -461 -31 -1487 l0
-1083 -362 0 c-391 0 -437 -5 -570 -56 -225 -86 -408 -299 -465 -543 -17 -72
-18 -256 -18 -3686 0 -3423 1 -3614 18 -3680 9 -38 38 -111 63 -160 102 -205
280 -349 504 -408 l85 -22 4715 0 4715 0 90 28 c272 85 473 293 542 562 17 67
18 244 18 3680 0 3468 -1 3613 -18 3688 -55 234 -232 445 -450 535 -137 57
-185 62 -632 62 l-405 0 0 1049 c0 1040 -6 1287 -36 1526 -88 711 -366 1382
-805 1947 -491 631 -1178 1109 -1922 1337 -238 73 -366 102 -592 135 -244 36
-579 51 -800 35z m728 -543 c236 -38 373 -71 572 -137 479 -159 913 -424 1279
-779 268 -261 455 -505 638 -835 159 -287 308 -706 363 -1024 51 -292 48 -227
52 -1509 l4 -1202 -3398 2 -3398 3 0 1125 c0 829 4 1159 13 1255 79 815 418
1550 978 2121 538 547 1223 889 1979 988 184 24 182 24 480 21 244 -3 300 -6
438 -29z m4238 -6007 c61 -21 126 -76 153 -131 l26 -52 0 -3565 c0 -2503 -3
-3577 -11 -3605 -14 -49 -75 -115 -136 -146 l-48 -25 -4660 0 -4660 0 -53 24
c-62 28 -124 93 -140 149 -9 30 -12 900 -12 3603 0 3488 1 3565 20 3604 31 66
90 120 155 143 45 16 9320 16 9366 1z"/>
<path d="M12070 8624 c-39 -14 -212 -183 -1258 -1228 l-1212 -1211 -568 567
c-312 311 -583 574 -602 584 -52 27 -172 26 -225 -3 -118 -63 -169 -206 -116
-328 18 -43 131 -160 729 -757 768 -767 725 -730 820 -713 33 6 182 151 1384
1353 1462 1460 1391 1385 1392 1497 0 55 -31 135 -67 173 -66 71 -184 99 -277
66z"/>
</g>
</svg>
