<?xml version="1.0" standalone="no"?>
<!DOCTYPE svg PUBLIC "-//W3C//DTD SVG 20010904//EN"
 "http://www.w3.org/TR/2001/REC-SVG-20010904/DTD/svg10.dtd">
<svg version="1.0" xmlns="http://www.w3.org/2000/svg"
 width="2048.000000pt" height="2048.000000pt" viewBox="0 0 2048.000000 2048.000000"
 preserveAspectRatio="xMidYMid meet">

<g transform="translate(0.000000,2048.000000) scale(0.100000,-0.100000)"
fill="#000000" stroke="none">
<path d="M3730 16479 c-218 -23 -414 -121 -564 -279 -107 -114 -173 -233 -222
-400 -19 -63 -19 -199 -22 -5515 -2 -4107 0 -5468 9 -5525 28 -180 108 -345
233 -477 158 -168 347 -259 581 -283 79 -8 1906 -10 6570 -8 6205 3 6463 4
6535 22 370 89 641 375 699 736 8 45 11 1741 11 5491 0 4833 -2 5436 -15 5508
-30 154 -96 294 -193 409 -136 160 -273 245 -493 304 l-84 23 -6485 1 c-3567
1 -6519 -2 -6560 -7z m13071 -590 c103 -49 167 -131 188 -244 9 -44 11 -484 9
-1610 l-3 -1550 -6758 -3 -6757 -2 2 1592 3 1593 26 55 c14 31 40 72 57 91 37
42 116 87 174 98 24 5 2959 8 6523 7 l6480 -1 56 -26z m199 -5669 l0 -1700
-6760 0 -6760 0 0 1700 0 1700 6760 0 6760 0 0 -1700z m-2 -3832 l-3 -1573
-26 -56 c-37 -79 -88 -131 -161 -165 l-63 -29 -6505 0 -6505 0 -67 33 c-76 37
-120 82 -157 162 l-26 55 -3 1573 -2 1572 6760 0 6760 0 -2 -1572z"/>
<path d="M4989 14625 c-160 -51 -273 -181 -300 -344 -28 -176 69 -356 238
-442 57 -29 77 -34 158 -37 70 -3 106 0 146 13 199 65 325 269 291 471 -23
139 -108 249 -239 311 -67 32 -88 37 -162 40 -56 2 -102 -2 -132 -12z"/>
<path d="M6830 14621 c-84 -27 -132 -55 -185 -108 -117 -118 -151 -315 -80
-470 34 -75 121 -163 202 -204 64 -33 72 -34 178 -34 105 0 114 2 178 34 216
105 301 348 199 565 -84 179 -306 277 -492 217z"/>
<path d="M5050 10564 c-155 -30 -277 -126 -332 -262 -19 -47 -23 -76 -23 -162
0 -98 2 -110 32 -173 104 -218 366 -307 576 -195 76 41 169 142 199 217 32 81
32 232 -1 314 -44 112 -128 192 -248 237 -53 20 -158 32 -203 24z"/>
<path d="M6843 10555 c-79 -22 -131 -52 -189 -109 -82 -83 -124 -183 -124
-301 0 -120 40 -215 125 -298 164 -160 398 -167 569 -16 135 120 181 304 117
471 -74 193 -299 306 -498 253z"/>
<path d="M4989 6614 c-310 -95 -410 -480 -181 -702 71 -70 144 -108 238 -124
61 -10 81 -9 145 6 41 10 94 30 118 44 63 37 142 120 173 183 72 143 49 334
-54 459 -99 121 -292 180 -439 134z"/>
<path d="M6835 6617 c-167 -56 -279 -181 -305 -341 -29 -185 65 -363 238 -448
63 -31 73 -33 177 -33 102 0 115 2 176 31 214 102 303 352 201 567 -41 87
-107 151 -199 195 -67 31 -88 36 -162 39 -53 2 -102 -2 -126 -10z"/>
</g>
</svg>
