<?xml version="1.0" standalone="no"?>
<!DOCTYPE svg PUBLIC "-//W3C//DTD SVG 20010904//EN"
 "http://www.w3.org/TR/2001/REC-SVG-20010904/DTD/svg10.dtd">
<svg version="1.0" xmlns="http://www.w3.org/2000/svg"
 width="2048.000000pt" height="2048.000000pt" viewBox="0 0 2048.000000 2048.000000"
 preserveAspectRatio="xMidYMid meet">

<g transform="translate(0.000000,2048.000000) scale(0.100000,-0.100000)"
fill="#000000" stroke="none">
<path d="M3390 17530 c-199 -27 -355 -163 -426 -370 -19 -54 -19 -216 -19
-6920 0 -6649 1 -6867 18 -6920 67 -197 205 -325 396 -366 101 -21 13663 -21
13764 1 203 43 359 199 402 402 22 101 22 13663 1 13764 -46 215 -223 381
-438 409 -87 11 -13614 11 -13698 0z m13629 -514 c8 -10 10 -1228 9 -4642 l-3
-4629 -6785 0 -6785 0 -3 4629 c-1 3414 1 4632 9 4642 17 21 13541 21 13558 0z
m11 -11664 c0 -1447 -3 -1881 -12 -1890 -18 -18 -13538 -18 -13556 0 -9 9 -12
443 -12 1890 l0 1878 6790 0 6790 0 0 -1878z"/>
<path d="M10087 15584 c-4 -4 -7 -119 -7 -255 l0 -249 -252 -2 -253 -3 0 -155
0 -155 253 -3 252 -2 0 -250 0 -250 160 0 160 0 0 250 0 250 253 2 252 3 0
155 0 155 -252 3 -253 2 -2 253 -3 252 -151 3 c-82 1 -153 -1 -157 -4z"/>
<path d="M8390 14490 l0 -370 -372 -2 -373 -3 0 -190 0 -190 373 -3 372 -2 0
-370 0 -370 190 0 190 0 0 370 0 370 370 0 369 0 3 191 c2 105 1 193 -1 195
-2 2 -170 4 -373 4 l-368 0 0 370 0 370 -190 0 -190 0 0 -370z"/>
<path d="M11690 14490 l0 -370 -367 -2 -368 -3 -3 -192 -2 -193 370 0 370 0 0
-370 0 -370 195 0 195 0 0 370 0 370 368 2 367 3 0 190 0 190 -367 3 -368 2 0
370 0 370 -195 0 -195 0 0 -370z"/>
<path d="M10017 13504 c-4 -4 -7 -207 -7 -451 l0 -443 -445 0 -445 0 0 -225 0
-225 445 0 445 0 2 -447 3 -448 225 0 225 0 3 448 2 447 445 0 445 0 0 225 0
225 -445 0 -445 0 -2 448 -3 447 -221 3 c-121 1 -223 -1 -227 -4z"/>
<path d="M7547 13044 c-4 -4 -7 -119 -7 -256 l0 -249 -247 1 -248 1 0 -158 0
-158 247 -3 248 -2 2 -248 3 -247 160 0 160 0 3 247 2 248 248 2 247 3 0 158
0 158 -247 -1 -248 -1 -2 253 -3 253 -156 3 c-85 1 -158 -1 -162 -4z"/>
<path d="M12617 13044 c-4 -4 -7 -119 -7 -256 l0 -249 -247 1 -248 1 0 -158 0
-158 247 -3 248 -2 2 -248 3 -247 160 0 160 0 3 247 2 248 248 2 247 3 0 158
0 158 -247 -1 -248 -1 -2 253 -3 253 -156 3 c-85 1 -158 -1 -162 -4z"/>
<path d="M8390 11440 l0 -370 -372 -2 -373 -3 0 -190 0 -190 373 -3 372 -2 0
-370 0 -370 190 0 190 0 0 370 0 370 370 0 370 0 0 195 0 195 -370 0 -370 0 0
370 0 370 -190 0 -190 0 0 -370z"/>
<path d="M11690 11440 l0 -370 -370 0 -370 0 2 -192 3 -193 368 -3 367 -2 0
-370 0 -370 193 2 192 3 3 367 2 368 368 2 367 3 3 193 2 192 -370 0 -370 0 0
370 0 370 -195 0 -195 0 0 -370z"/>
<path d="M10080 10260 l0 -250 -252 -2 -253 -3 -3 -157 -3 -158 256 0 255 0 2
-252 3 -253 155 0 155 0 3 253 2 252 255 0 256 0 -3 158 -3 157 -252 3 -253 2
0 250 0 250 -160 0 -160 0 0 -250z"/>
<path d="M8380 6269 c-102 -13 -148 -27 -246 -74 -71 -34 -103 -57 -144 -102
-97 -106 -135 -220 -128 -382 7 -132 32 -195 112 -275 98 -99 196 -141 536
-231 150 -39 252 -84 276 -120 28 -43 29 -96 2 -135 -33 -50 -84 -71 -182 -77
-185 -12 -349 64 -463 214 -15 19 -32 32 -40 29 -30 -12 -323 -199 -323 -206
0 -5 27 -43 60 -84 172 -216 394 -316 705 -316 333 0 562 108 658 312 71 149
72 294 2 434 -74 151 -204 222 -585 324 -175 47 -233 70 -272 107 -33 31 -52
84 -43 115 11 36 55 77 94 88 58 16 164 12 233 -10 65 -20 185 -95 248 -155
l35 -34 145 119 c80 65 146 125 148 132 4 18 -98 120 -175 174 -178 128 -415
183 -653 153z"/>
<path d="M13417 6270 c-237 -29 -453 -155 -571 -333 -93 -140 -128 -244 -146
-438 -49 -515 212 -892 678 -980 38 -7 113 -10 195 -7 120 5 143 9 246 43 140
47 232 106 328 209 198 213 269 571 183 919 -69 279 -269 478 -560 561 -97 27
-250 39 -353 26z m252 -401 c25 -11 59 -31 77 -44 42 -32 101 -122 124 -191
41 -119 43 -357 4 -478 -40 -125 -131 -230 -225 -261 -64 -21 -175 -21 -239 0
-109 36 -209 169 -241 320 -16 78 -17 274 0 350 18 84 76 198 122 239 101 92
255 118 378 65z"/>
<path d="M4588 6244 c-5 -4 -8 -389 -8 -857 l0 -849 383 5 c345 4 391 6 480
26 173 38 298 99 406 197 56 50 133 167 165 251 99 260 79 645 -46 858 -51 86
-152 187 -238 238 -36 21 -105 50 -155 66 -168 54 -249 63 -630 68 -192 3
-353 2 -357 -3z m734 -395 c72 -15 147 -52 187 -91 80 -78 119 -234 107 -428
-10 -172 -42 -258 -122 -329 -70 -61 -147 -83 -316 -89 l-138 -4 0 476 0 476
115 0 c62 0 138 -5 167 -11z"/>
<path d="M6367 6243 c-4 -3 -7 -388 -7 -855 l0 -848 630 0 630 0 0 185 0 185
-397 2 -398 3 0 155 0 155 268 3 267 2 0 180 0 180 -270 0 -270 0 0 135 0 135
380 0 380 0 -2 193 -3 192 -601 3 c-330 1 -604 -1 -607 -5z"/>
<path d="M9557 6244 c-4 -4 -7 -389 -7 -856 l0 -848 230 0 230 0 0 263 0 262
67 77 c59 69 68 76 78 60 11 -16 159 -266 319 -539 l71 -122 258 -1 c141 0
257 3 257 6 0 6 -62 109 -351 584 -248 409 -261 432 -252 451 7 14 274 330
501 593 28 34 52 64 52 68 0 5 -117 8 -259 8 l-259 0 -28 -33 c-16 -18 -121
-155 -234 -304 -113 -150 -208 -272 -212 -272 -4 -1 -9 135 -10 302 l-3 302
-221 3 c-121 1 -223 -1 -227 -4z"/>
<path d="M11134 6237 c-2 -7 -3 -94 -2 -192 l3 -180 243 -3 242 -2 0 -660 0
-660 230 0 230 0 0 660 0 660 245 2 246 3 0 183 c0 100 -3 187 -6 192 -4 6
-262 10 -716 10 -568 0 -711 -3 -715 -13z"/>
<path d="M14657 6243 c-4 -3 -7 -388 -7 -855 l0 -848 230 0 230 0 0 270 0 270
83 0 c128 0 343 19 416 36 212 52 355 186 398 373 22 100 22 273 -1 361 -39
147 -128 255 -259 315 -97 44 -189 63 -360 75 -161 11 -720 14 -730 3z m803
-396 c19 -8 46 -25 59 -38 76 -71 81 -223 10 -303 -46 -53 -102 -68 -271 -74
l-148 -4 0 222 0 222 158 -4 c114 -3 166 -9 192 -21z"/>
</g>
</svg>
