<?xml version="1.0" standalone="no"?>
<!DOCTYPE svg PUBLIC "-//W3C//DTD SVG 20010904//EN"
 "http://www.w3.org/TR/2001/REC-SVG-20010904/DTD/svg10.dtd">
<svg version="1.0" xmlns="http://www.w3.org/2000/svg"
 width="2048.000000pt" height="2048.000000pt" viewBox="0 0 2048.000000 2048.000000"
 preserveAspectRatio="xMidYMid meet">

<g transform="translate(0.000000,2048.000000) scale(0.100000,-0.100000)"
fill="#000000" stroke="none">
<path d="M3390 17530 c-199 -27 -355 -163 -426 -370 -19 -54 -19 -216 -19
-6920 0 -6649 1 -6867 18 -6920 67 -197 205 -325 396 -366 101 -21 13663 -21
13764 1 203 43 359 199 402 402 22 101 22 13663 1 13764 -46 215 -223 381
-438 409 -87 11 -13614 11 -13698 0z m13629 -514 c8 -10 10 -1228 9 -4642 l-3
-4629 -6785 0 -6785 0 -3 4629 c-1 3414 1 4632 9 4642 17 21 13541 21 13558 0z
m11 -11664 c0 -1447 -3 -1881 -12 -1890 -18 -18 -13538 -18 -13556 0 -9 9 -12
443 -12 1890 l0 1878 6790 0 6790 0 0 -1878z"/>
<path d="M10087 15584 c-4 -4 -7 -119 -7 -255 l0 -249 -252 -2 -253 -3 0 -155
0 -155 253 -3 252 -2 0 -250 0 -250 160 0 160 0 0 250 0 250 253 2 252 3 0
155 0 155 -252 3 -253 2 -2 253 -3 252 -151 3 c-82 1 -153 -1 -157 -4z"/>
<path d="M8390 14490 l0 -370 -372 -2 -373 -3 0 -190 0 -190 373 -3 372 -2 0
-370 0 -370 190 0 190 0 0 370 0 370 370 0 369 0 3 191 c2 105 1 193 -1 195
-2 2 -170 4 -373 4 l-368 0 0 370 0 370 -190 0 -190 0 0 -370z"/>
<path d="M11690 14490 l0 -370 -367 -2 -368 -3 -3 -192 -2 -193 370 0 370 0 0
-370 0 -370 195 0 195 0 0 370 0 370 368 2 367 3 0 190 0 190 -367 3 -368 2 0
370 0 370 -195 0 -195 0 0 -370z"/>
<path d="M10017 13504 c-4 -4 -7 -207 -7 -451 l0 -443 -445 0 -445 0 0 -225 0
-225 445 0 445 0 2 -447 3 -448 225 0 225 0 3 448 2 447 445 0 445 0 0 225 0
225 -445 0 -445 0 -2 448 -3 447 -221 3 c-121 1 -223 -1 -227 -4z"/>
<path d="M7547 13044 c-4 -4 -7 -119 -7 -256 l0 -249 -247 1 -248 1 0 -158 0
-158 247 -3 248 -2 2 -248 3 -247 160 0 160 0 3 247 2 248 248 2 247 3 0 158
0 158 -247 -1 -248 -1 -2 253 -3 253 -156 3 c-85 1 -158 -1 -162 -4z"/>
<path d="M12617 13044 c-4 -4 -7 -119 -7 -256 l0 -249 -247 1 -248 1 0 -158 0
-158 247 -3 248 -2 2 -248 3 -247 160 0 160 0 3 247 2 248 248 2 247 3 0 158
0 158 -247 -1 -248 -1 -2 253 -3 253 -156 3 c-85 1 -158 -1 -162 -4z"/>
<path d="M8390 11440 l0 -370 -372 -2 -373 -3 0 -190 0 -190 373 -3 372 -2 0
-370 0 -370 190 0 190 0 0 370 0 370 370 0 370 0 0 195 0 195 -370 0 -370 0 0
370 0 370 -190 0 -190 0 0 -370z"/>
<path d="M11690 11440 l0 -370 -370 0 -370 0 2 -192 3 -193 368 -3 367 -2 0
-370 0 -370 193 2 192 3 3 367 2 368 368 2 367 3 3 193 2 192 -370 0 -370 0 0
370 0 370 -195 0 -195 0 0 -370z"/>
<path d="M10080 10260 l0 -250 -252 -2 -253 -3 -3 -157 -3 -158 256 0 255 0 2
-252 3 -253 155 0 155 0 3 253 2 252 255 0 256 0 -3 158 -3 157 -252 3 -253 2
0 250 0 250 -160 0 -160 0 0 -250z"/>
<path d="M6351 6269 c-90 -11 -250 -64 -328 -110 -130 -76 -267 -242 -325
-392 -72 -186 -81 -479 -22 -683 102 -354 407 -574 793 -574 213 0 378 53 529
168 134 101 227 247 279 437 25 91 28 115 28 275 0 152 -3 186 -23 260 -51
186 -103 281 -219 397 -70 70 -98 90 -185 133 -57 27 -137 58 -178 69 -92 23
-250 32 -349 20z m239 -391 c84 -26 157 -96 200 -193 40 -87 53 -164 52 -305
-1 -226 -58 -366 -185 -453 -52 -35 -104 -49 -189 -49 -176 0 -296 107 -349
312 -20 74 -28 201 -19 290 20 186 91 316 210 380 67 37 193 45 280 18z"/>
<path d="M7597 6243 c-4 -3 -7 -388 -7 -855 l0 -848 210 0 210 0 0 477 c0 369
3 474 12 465 6 -6 154 -220 328 -474 l316 -463 215 0 214 0 0 850 0 850 -190
3 c-104 1 -200 0 -212 -3 l-23 -5 -2 -472 -3 -472 -224 344 c-310 475 -325
498 -366 558 l-36 52 -218 0 c-120 0 -221 -3 -224 -7z"/>
<path d="M9467 6244 c-4 -4 -7 -389 -7 -856 l0 -848 590 0 590 0 0 185 0 185
-360 0 -360 0 -2 668 -3 667 -221 3 c-121 1 -223 -1 -227 -4z"/>
<path d="M10897 6244 c-4 -4 -7 -389 -7 -856 l0 -848 230 0 230 0 -2 853 -3
852 -221 3 c-121 1 -223 -1 -227 -4z"/>
<path d="M11737 6243 c-4 -3 -7 -388 -7 -855 l0 -848 210 0 210 0 2 478 3 477
283 -415 c156 -228 302 -443 325 -477 l42 -63 215 3 215 2 3 847 2 848 -22 5
c-13 3 -108 4 -213 3 l-190 -3 -5 -475 -5 -475 -98 150 c-112 170 -264 402
-415 632 -56 86 -108 160 -115 165 -15 9 -431 11 -440 1z"/>
<path d="M13607 6243 c-4 -3 -7 -388 -7 -855 l0 -848 625 0 625 0 0 185 0 185
-395 0 -395 0 0 160 0 160 270 0 270 0 -2 178 -3 177 -267 3 -268 2 0 135 0
135 380 0 380 0 -2 193 -3 192 -601 3 c-330 1 -604 -1 -607 -5z"/>
</g>
</svg>
