<?xml version="1.0" standalone="no"?>
<!DOCTYPE svg PUBLIC "-//W3C//DTD SVG 20010904//EN"
 "http://www.w3.org/TR/2001/REC-SVG-20010904/DTD/svg10.dtd">
<svg version="1.0" xmlns="http://www.w3.org/2000/svg"
 width="2048.000000pt" height="2048.000000pt" viewBox="0 0 2048.000000 2048.000000"
 preserveAspectRatio="xMidYMid meet">

<g transform="translate(0.000000,2048.000000) scale(0.100000,-0.100000)"
fill="#000000" stroke="none">
<path d="M3584 16245 c-174 -38 -331 -182 -384 -352 -20 -65 -20 -86 -20
-4868 0 -4782 0 -4803 20 -4868 55 -178 225 -326 408 -356 49 -8 1876 -11
6672 -9 l6605 3 61 21 c156 54 286 187 334 342 20 64 20 104 20 4867 0 4763 0
4803 -20 4867 -17 56 -70 149 -112 198 -57 67 -178 135 -277 156 -96 20
-13213 20 -13307 -1z m13206 -5225 l0 -4720 -6550 0 -6550 0 0 4720 0 4720
6550 0 6550 0 0 -4720z"/>
<path d="M14998 13681 c-82 -27 -108 -53 -267 -271 -153 -208 -644 -883 -803
-1103 -230 -318 -284 -390 -294 -394 -6 -2 -121 16 -255 41 -248 47 -856 161
-1254 236 -121 23 -245 42 -275 43 -71 0 -129 -25 -239 -107 -92 -68 -629
-454 -801 -577 -58 -42 -188 -135 -290 -209 -102 -73 -214 -154 -250 -180 -36
-26 -116 -83 -178 -128 -62 -45 -115 -82 -118 -82 -6 0 -43 32 -334 280 -106
91 -212 181 -235 200 -23 19 -169 143 -324 275 -155 132 -305 253 -333 269
-41 24 -63 30 -112 30 -119 -1 -87 28 -907 -797 l-749 -754 -182 57 c-101 32
-300 95 -443 140 -284 91 -510 162 -738 234 -161 50 -236 58 -300 31 -89 -37
-157 -136 -157 -229 0 -79 19 -126 75 -182 49 -49 57 -53 215 -103 91 -29 226
-72 300 -96 129 -42 502 -159 718 -226 56 -17 101 -35 100 -39 -2 -4 -311
-317 -686 -696 -401 -404 -692 -705 -704 -728 -25 -49 -33 -129 -19 -183 39
-144 212 -224 351 -163 36 16 210 186 830 811 l786 792 189 -61 c105 -33 307
-97 450 -142 143 -45 382 -121 530 -168 377 -121 385 -121 585 25 82 60 276
200 921 665 75 54 141 98 146 98 6 0 79 -59 164 -131 140 -119 703 -599 890
-759 42 -36 163 -139 270 -230 106 -91 245 -210 309 -264 63 -54 138 -109 165
-122 56 -26 125 -31 186 -12 75 22 101 52 409 478 100 138 374 515 520 715
134 183 412 567 509 700 36 50 132 182 215 295 82 113 176 242 208 287 32 45
62 84 67 87 7 5 171 -24 884 -158 164 -31 311 -56 326 -56 49 0 130 30 166 61
50 44 87 125 87 193 1 106 -70 207 -171 241 -25 9 -145 34 -266 56 -296 54
-678 129 -683 133 -2 3 21 37 51 78 30 40 175 240 322 443 148 204 311 429
364 500 217 297 353 489 366 522 19 46 19 134 0 179 -39 94 -125 156 -225 161
-30 1 -67 -2 -82 -6z m-2847 -2017 c134 -25 388 -72 564 -105 506 -94 585
-110 578 -123 -4 -6 -41 -58 -83 -116 -147 -201 -281 -386 -367 -505 -48 -66
-146 -201 -218 -300 -172 -235 -439 -602 -537 -738 -43 -59 -124 -171 -180
-247 l-101 -139 -26 18 c-14 11 -51 41 -82 68 -47 41 -268 230 -755 643 -542
461 -566 483 -552 495 7 7 144 106 303 220 311 224 466 335 920 664 160 116
290 210 291 211 1 0 111 -21 245 -46z m-3407 -342 c50 -43 249 -212 441 -376
193 -163 351 -300 352 -304 1 -4 -120 -95 -269 -202 -149 -107 -363 -262 -476
-344 l-205 -148 -116 36 c-64 20 -244 77 -401 126 -157 50 -340 107 -407 127
-68 21 -123 42 -123 48 0 9 1099 1115 1109 1115 1 0 44 -35 95 -78z"/>
<path d="M1879 4730 c-128 -22 -209 -119 -209 -250 0 -107 53 -189 150 -234
l45 -21 8375 0 8375 0 45 21 c97 45 150 127 150 234 0 107 -53 189 -150 234
l-45 21 -8345 1 c-4590 1 -8366 -2 -8391 -6z"/>
</g>
</svg>
