<svg width="118" height="24" xmlns="http://www.w3.org/2000/svg" xmlns:xlink="http://www.w3.org/1999/xlink"><defs><path id="a" d="M0 .636h3.57V17.77H0z"/></defs><g fill="none" fill-rule="evenodd"><path d="M54.718 22.954L54.72.574c0-.356.215-.57.57-.57h2.428c.358 0 .571.214.571.57l-.002 22.38c0 .322-.213.537-.535.537l-2.5-.001c-.32 0-.534-.214-.534-.536m6.354.001l.002-22.38c0-.356.214-.57.57-.57h2.428c.358 0 .571.214.571.57l-.002 22.38c0 .322-.214.536-.535.536h-2.5c-.32 0-.534-.214-.534-.536m6.354.001V6.929c0-.357.214-.571.571-.571h2.427c.358 0 .571.214.571.571v16.027c0 .322-.215.535-.536.535h-2.498c-.322 0-.535-.214-.535-.535M68.034.005h2.356a.58.58 0 01.606.607v2.355a.58.58 0 01-.607.607h-2.355a.58.58 0 01-.607-.607V.612a.58.58 0 01.607-.607M48.365 22.954l.002-16.027c0-.357.213-.571.57-.571h2.427c.358 0 .571.214.571.572l-.002 16.026c0 .322-.213.536-.534.536h-2.5c-.32 0-.534-.214-.534-.536m.608-22.95h2.356a.58.58 0 01.606.606v2.355a.58.58 0 01-.606.607h-2.356a.58.58 0 01-.606-.607V.61a.58.58 0 01.606-.607" fill="#54565A"/><path d="M6.353 22.95L6.354.572c0-.356.216-.57.571-.57h2.428c.357 0 .57.214.57.57v22.38c0 .322-.214.536-.536.535h-2.5c-.32 0-.534-.213-.534-.535m6.354-.001l.001-22.38c0-.356.215-.57.571-.57h2.428c.357 0 .57.214.57.57v22.38c0 .322-.214.536-.536.536h-2.5c-.32 0-.534-.214-.534-.536m6.353.001l.002-16.027c0-.357.213-.571.57-.571h2.427c.358 0 .571.215.571.571v16.027c0 .322-.215.536-.535.536h-2.5c-.32 0-.534-.214-.534-.536" fill="#EF4C2E"/><g transform="translate(0 5.716)"><mask id="b" fill="#fff"><use xlink:href="#a"/></mask><path d="M0 17.235V1.208C0 .851.214.636.57.636H3c.357 0 .57.215.57.572v16.027c0 .321-.214.535-.535.535h-2.5c-.32 0-.534-.214-.534-.535" fill="#EF4C2E" mask="url(#b)"/></g><path d="M104.905 12.107v10.816c0 .357-.214.571-.571.571h-2.427c-.358 0-.571-.214-.571-.57V12.855c0-2.926-.714-3.855-2.677-3.855-1.642 0-3.248.643-4.676 1.571v12.386c0 .322-.215.535-.537.535h-2.498c-.321 0-.536-.214-.536-.536l.002-16.026c0-.358.214-.572.572-.571h2.177c.356 0 .571.214.571.57v1c1.82-1.356 3.748-1.998 5.817-1.998 3.714 0 5.355 2.07 5.354 6.175m-25.451 9.03c1.607 0 3.213-.535 4.605-1.499v-3.711a32 32 0 00-3.497-.216h-.143c-2.891 0-3.927.715-3.927 2.606v.072c0 1.892.964 2.748 2.962 2.748m8.175-8.601v10.387c0 .357-.215.571-.572.571H84.88c-.357 0-.571-.215-.571-.572v-.928c-1.606 1.357-3.463 1.927-5.532 1.927-3.714 0-5.82-1.82-5.82-5.461l.002-.072c0-3.533 1.998-5.21 7.496-5.21h.142c1.179 0 2.322.107 3.462.25v-.75c0-2.962-.856-3.712-4.032-3.712-1.785-.001-3.355.249-4.64.463-.393.036-.642-.142-.642-.535V7.108c0-.428.106-.608.462-.678 1.608-.286 3.642-.5 5.428-.5 4.853 0 6.995 1.75 6.994 6.605m30.054 8.675v1.892c0 .322-.178.572-.535.608-.822.142-1.75.213-2.607.213-3.783 0-5.39-1.5-5.39-5.926V9.29l-2.283-.001c-.357 0-.57-.215-.57-.571V6.932c0-.357.213-.571.57-.571h2.285V1.577c0-.357.214-.57.571-.57h2.427c.357 0 .572.213.572.571v4.783h4.069c.356 0 .571.215.571.571v1.786c0 .356-.215.57-.572.57h-4.069v8.103c0 2.82.57 3.462 2.498 3.462.607 0 1.248-.036 1.856-.106.393-.036.607.07.607.464m-71.745-.077v1.785c0 .356-.214.57-.571.57H34.336c-.356 0-.57-.214-.57-.571v-1.785c0-.25.072-.5.214-.714l7.603-11.136h-6.96c-.357 0-.57-.215-.57-.572V6.926c0-.357.213-.57.57-.57h10.388c.358 0 .571.214.571.571v1.82c0 .25-.072.5-.213.714l-7.57 11.1 7.568.002c.357 0 .57.213.57.57" fill="#54565A"/></g></svg>