<?xml version="1.0" standalone="no"?>
<!DOCTYPE svg PUBLIC "-//W3C//DTD SVG 20010904//EN"
 "http://www.w3.org/TR/2001/REC-SVG-20010904/DTD/svg10.dtd">
<svg version="1.0" xmlns="http://www.w3.org/2000/svg"
 width="2048.000000pt" height="2048.000000pt" viewBox="0 0 2048.000000 2048.000000"
 preserveAspectRatio="xMidYMid meet">

<g transform="translate(0.000000,2048.000000) scale(0.100000,-0.100000)"
fill="#000000" stroke="none">
<path d="M3223 16310 c-55 -12 -92 -31 -129 -72 -53 -55 -68 -95 -68 -178 -1
-64 3 -82 26 -121 86 -145 271 -174 400 -61 54 48 81 121 76 202 -6 74 -21
110 -70 159 -58 60 -151 88 -235 71z"/>
<path d="M15298 16174 c-86 -20 -155 -60 -226 -128 -70 -67 -100 -112 -134
-202 l-23 -59 0 -5610 0 -5610 23 -59 c31 -84 74 -147 144 -211 64 -59 101
-81 188 -111 52 -18 98 -19 915 -19 l860 0 67 23 c85 29 144 69 208 139 68 74
106 143 125 225 13 60 15 681 15 5623 0 6182 7 5631 -68 5755 -77 127 -192
214 -323 245 -91 21 -1682 21 -1771 -1z m1650 -5996 l-3 -5503 -760 0 -760 0
-3 5503 -2 5502 765 0 765 0 -2 -5502z"/>
<path d="M8734 14465 c-90 -19 -172 -66 -246 -137 -66 -64 -100 -119 -134
-218 -19 -54 -19 -174 -19 -4790 0 -4616 0 -4736 19 -4790 33 -98 67 -154 132
-217 79 -78 131 -108 229 -133 75 -19 110 -20 889 -20 892 0 893 0 1006 61
117 62 222 195 256 323 21 76 21 9476 0 9552 -21 79 -72 167 -134 229 -63 64
-111 94 -198 127 l-59 23 -840 2 c-671 1 -852 -1 -901 -12z m1636 -5145 l0
-4650 -762 2 -763 3 -3 4635 c-1 2549 0 4641 3 4648 3 9 166 12 765 12 l760 0
0 -4650z"/>
<path d="M3222 13429 c-55 -11 -119 -54 -154 -104 -83 -121 -51 -276 75 -357
124 -80 308 -26 368 107 23 49 25 152 5 200 -46 110 -175 178 -294 154z"/>
<path d="M12008 12474 c-32 -7 -81 -25 -110 -40 -72 -37 -188 -154 -221 -226
-61 -129 -57 161 -57 -3883 0 -4056 -4 -3758 59 -3883 59 -115 170 -213 288
-254 l68 -23 860 0 860 0 65 23 c83 28 128 56 189 115 58 56 104 124 134 199
l22 53 3 3740 c1 2662 -1 3755 -9 3793 -38 185 -213 358 -398 392 -33 6 -367
10 -875 9 -664 -1 -832 -3 -878 -15z m1652 -4149 l0 -3655 -762 2 -763 3 -3
3653 -2 3652 765 0 765 0 0 -3655z"/>
<path d="M3220 10548 c-133 -30 -220 -163 -192 -295 24 -116 113 -194 228
-201 185 -12 314 149 264 330 -15 52 -91 133 -143 152 -60 21 -105 25 -157 14z"/>
<path d="M5443 9575 c-84 -18 -168 -65 -236 -130 -71 -67 -112 -132 -140 -220
l-22 -70 0 -2280 0 -2280 22 -71 c55 -174 198 -307 374 -349 93 -22 1649 -22
1752 0 176 37 327 182 381 364 14 49 16 277 16 2337 0 2248 0 2283 -20 2346
-47 151 -172 283 -325 340 l-60 23 -840 2 c-680 1 -852 -1 -902 -12z m1637
-2700 l0 -2205 -762 2 -763 3 -3 2190 c-1 1205 0 2196 3 2203 3 9 166 12 765
12 l760 0 0 -2205z"/>
<path d="M3228 7670 c-21 -4 -59 -20 -85 -36 -161 -100 -161 -327 2 -429 61
-38 153 -46 221 -20 126 48 191 182 154 317 -15 52 -91 133 -143 152 -54 19
-103 24 -149 16z"/>
<path d="M3186 4780 c-58 -23 -109 -69 -139 -125 -29 -54 -30 -164 -2 -220 95
-191 372 -192 461 0 43 92 29 193 -37 269 -77 87 -185 116 -283 76z"/>
</g>
</svg>
