<?xml version="1.0" standalone="no"?>
<!DOCTYPE svg PUBLIC "-//W3C//DTD SVG 20010904//EN"
 "http://www.w3.org/TR/2001/REC-SVG-20010904/DTD/svg10.dtd">
<svg version="1.0" xmlns="http://www.w3.org/2000/svg"
 width="2048.000000pt" height="2048.000000pt" viewBox="0 0 2048.000000 2048.000000"
 preserveAspectRatio="xMidYMid meet">

<g transform="translate(0.000000,2048.000000) scale(0.100000,-0.100000)"
fill="#000000" stroke="none">
<path d="M9145 16235 c-968 -87 -1880 -422 -2655 -975 -414 -296 -802 -666
-1121 -1070 -526 -667 -902 -1503 -1050 -2340 -12 -69 -31 -197 -43 -285 l-21
-159 -127 -81 c-286 -180 -473 -329 -693 -549 -627 -630 -1002 -1416 -1107
-2321 -19 -169 -17 -637 5 -815 61 -500 176 -885 387 -1302 202 -398 433 -712
751 -1024 667 -652 1527 -1029 2473 -1084 239 -14 7600 -14 7851 0 822 46
1594 295 2275 738 514 334 946 756 1301 1272 365 531 632 1196 733 1830 47
288 59 454 59 770 0 304 -10 440 -53 721 -96 628 -362 1298 -732 1847 -316
468 -751 905 -1220 1225 -505 345 -1104 596 -1699 712 -48 10 -91 20 -96 24
-6 3 -23 31 -38 61 -128 254 -400 651 -644 940 -131 154 -448 472 -601 602
-586 496 -1280 868 -2002 1072 -373 105 -679 161 -1053 191 -217 18 -682 18
-880 0z m826 -505 c590 -45 1181 -205 1726 -465 483 -232 901 -527 1297 -915
409 -401 703 -803 955 -1307 55 -111 76 -144 93 -147 13 -3 100 -17 193 -31
709 -110 1402 -430 1979 -913 117 -98 380 -361 478 -478 627 -749 968 -1680
968 -2644 0 -613 -139 -1223 -406 -1779 -382 -796 -1046 -1475 -1829 -1869
-436 -219 -798 -332 -1330 -415 l-140 -21 -4005 -3 c-3589 -3 -4020 -2 -4152
12 -491 53 -956 209 -1375 462 -495 299 -915 737 -1196 1248 -270 489 -407
1027 -407 1591 0 386 51 705 169 1056 231 688 653 1254 1247 1675 106 75 299
190 426 254 89 45 81 24 98 244 18 226 71 551 125 766 285 1137 953 2116 1908
2796 709 505 1556 813 2432 882 150 12 592 12 746 1z"/>
</g>
</svg>
