<?xml version="1.0" standalone="no"?>
<!DOCTYPE svg PUBLIC "-//W3C//DTD SVG 20010904//EN"
 "http://www.w3.org/TR/2001/REC-SVG-20010904/DTD/svg10.dtd">
<svg version="1.0" xmlns="http://www.w3.org/2000/svg"
 width="2048.000000pt" height="2048.000000pt" viewBox="0 0 2048.000000 2048.000000"
 preserveAspectRatio="xMidYMid meet">

<g transform="translate(0.000000,2048.000000) scale(0.100000,-0.100000)"
fill="#000000" stroke="none">
<path d="M2730 16889 c-78 -13 -205 -78 -264 -136 -69 -68 -101 -119 -133
-209 l-28 -79 0 -6225 0 -6225 27 -78 c34 -93 60 -136 124 -201 59 -59 97 -84
189 -122 l70 -29 7520 0 c7320 0 7521 0 7575 19 82 28 151 70 210 128 69 68
106 127 133 213 l22 70 0 6230 0 6230 -23 65 c-33 90 -63 137 -129 205 -70 70
-186 129 -283 145 -82 13 -14929 12 -15010 -1z m14930 -6649 l0 -6150 -7420 0
-7420 0 0 6150 0 6150 7420 0 7420 0 0 -6150z"/>
<path d="M4002 15491 c-176 -61 -221 -303 -79 -428 129 -113 336 -66 403 92
22 51 22 148 0 200 -24 58 -82 112 -143 135 -66 25 -112 25 -181 1z"/>
<path d="M4995 15501 c-229 -60 -263 -370 -53 -475 136 -68 304 0 353 143 53
158 -55 325 -219 336 -28 2 -64 1 -81 -4z"/>
<path d="M5957 15499 c-56 -13 -90 -33 -129 -77 -45 -49 -62 -100 -62 -177 1
-184 196 -302 362 -219 157 78 191 278 70 404 -58 59 -161 89 -241 69z"/>
<path d="M7257 15493 c-57 -19 -121 -78 -148 -136 -11 -26 -19 -65 -19 -102 0
-106 56 -191 155 -236 39 -18 209 -19 4625 -19 l4585 0 50 24 c56 25 110 81
132 135 9 20 15 64 15 98 -1 111 -72 207 -176 238 -43 13 -624 15 -4610 14
-4151 0 -4565 -2 -4609 -16z"/>
<path d="M4651 12920 c-101 -27 -185 -76 -257 -152 -67 -70 -103 -126 -136
-214 l-23 -59 -3 -2995 c-2 -2114 1 -3014 8 -3060 16 -96 80 -218 152 -291 67
-67 120 -101 217 -138 l66 -26 2995 -3 c2127 -2 3014 0 3060 8 159 27 317 142
394 289 71 135 66 -110 66 3177 0 2065 -3 2988 -11 3030 -17 97 -78 210 -153
286 -77 77 -155 121 -262 148 -76 20 -121 20 -3058 19 -2914 0 -2983 -1 -3055
-19z m5979 -3460 l0 -2920 -2920 0 -2920 0 0 2920 0 2920 2920 0 2920 0 0
-2920z"/>
<path d="M13322 12920 c-201 -53 -355 -206 -407 -406 -22 -87 -23 -2180 0
-2267 19 -75 74 -181 120 -235 54 -62 167 -139 244 -165 l66 -22 1075 -3 c747
-2 1095 0 1139 8 193 33 368 186 433 378 l23 67 3 1072 c3 1183 4 1152 -60
1283 -43 90 -160 206 -249 248 -134 64 -88 62 -1254 61 -1011 0 -1063 -1
-1133 -19z m2138 -1540 l0 -1000 -1000 0 -1000 0 0 1000 0 1000 1000 0 1000 0
0 -1000z"/>
<path d="M13340 9084 c-204 -44 -372 -206 -425 -410 -22 -87 -23 -2180 0
-2267 54 -209 219 -369 424 -413 54 -11 256 -14 1122 -14 1019 0 1058 1 1133
20 43 11 103 33 135 50 114 61 219 188 264 319 l22 66 3 1072 c3 1184 4 1154
-60 1283 -44 89 -161 206 -248 248 -129 63 -100 62 -1255 61 -861 0 -1062 -3
-1115 -15z m2120 -1544 l0 -1000 -1000 0 -1000 0 0 1000 0 1000 1000 0 1000 0
0 -1000z"/>
</g>
</svg>
