<?xml version="1.0" standalone="no"?>
<!DOCTYPE svg PUBLIC "-//W3C//DTD SVG 20010904//EN"
 "http://www.w3.org/TR/2001/REC-SVG-20010904/DTD/svg10.dtd">
<svg version="1.0" xmlns="http://www.w3.org/2000/svg"
 width="2048.000000pt" height="2048.000000pt" viewBox="0 0 2048.000000 2048.000000"
 preserveAspectRatio="xMidYMid meet">

<g transform="translate(0.000000,2048.000000) scale(0.100000,-0.100000)"
fill="#000000" stroke="none">
<path d="M8927 17024 c-265 -57 -483 -244 -577 -495 -51 -139 -50 -84 -50
-1691 l0 -1498 -2337 -2 -2338 -3 -95 -33 c-117 -41 -195 -84 -282 -156 -133
-110 -233 -270 -280 -446 l-23 -85 -3 -4150 c-2 -2706 1 -4185 7 -4251 24
-241 131 -445 309 -586 115 -91 255 -154 393 -178 46 -8 1935 -10 6654 -8
6303 3 6593 4 6650 21 118 35 237 103 323 183 122 113 192 232 239 404 17 62
18 351 18 6190 0 5958 -1 6127 -19 6194 -46 172 -114 286 -237 400 -108 100
-225 159 -375 191 -104 22 -7874 21 -7977 -1z m7934 -520 c56 -26 111 -82 141
-143 l23 -46 0 -6075 0 -6075 -23 -46 c-30 -61 -85 -117 -141 -143 l-46 -21
-3895 0 -3895 0 -53 24 c-56 25 -108 78 -139 140 -17 35 -18 264 -18 6121 0
5793 1 6087 18 6120 42 85 114 144 197 161 19 4 1779 6 3910 5 l3875 -1 46
-21z m-8559 -8041 c3 -4070 4 -4372 20 -4424 9 -30 18 -62 20 -70 3 -12 -310
-14 -2272 -17 -1605 -2 -2294 1 -2339 8 -78 13 -110 29 -168 83 -57 52 -90
117 -103 204 -7 47 -10 1364 -8 4193 l3 4125 31 66 c32 68 87 130 139 157 81
42 6 41 2392 41 l2283 1 2 -4367z"/>
<path d="M10287 15080 c-75 -13 -142 -63 -180 -135 l-22 -40 0 -945 0 -945 24
-48 c28 -57 95 -111 158 -126 28 -7 343 -11 947 -11 886 0 906 0 960 20 63 24
126 86 147 146 12 32 14 202 14 964 0 917 0 925 -21 970 -26 58 -76 108 -134
134 -44 21 -55 21 -945 22 -495 1 -922 -2 -948 -6z m1533 -1125 l0 -615 -615
0 -615 0 0 615 0 615 615 0 615 0 0 -615z"/>
<path d="M13713 15080 c-84 -17 -150 -70 -187 -150 -21 -45 -21 -53 -21 -960
0 -749 3 -924 14 -963 20 -68 79 -131 147 -157 55 -20 65 -20 982 -18 l927 3
53 29 c28 16 64 44 78 63 56 74 55 39 52 1048 l-3 930 -22 41 c-12 22 -39 56
-59 74 -79 69 -13 65 -1014 67 -498 0 -924 -3 -947 -7z m1535 -1122 l-3 -613
-612 -3 -613 -2 0 615 0 615 615 0 615 0 -2 -612z"/>
<path d="M10252 11351 c-76 -26 -109 -56 -147 -136 l-25 -50 0 -926 0 -926 30
-60 c33 -66 76 -103 151 -128 39 -13 160 -15 964 -13 l920 3 41 22 c63 34 97
66 124 119 l25 49 3 899 c2 578 -1 918 -8 953 -13 74 -60 137 -130 177 l-55
31 -920 2 c-869 2 -923 2 -973 -16z m1568 -1111 l0 -620 -615 0 -615 0 0 620
0 620 615 0 615 0 0 -620z"/>
<path d="M13703 11360 c-38 -9 -111 -51 -135 -77 -10 -10 -28 -41 -40 -68
l-23 -50 0 -925 0 -925 30 -60 c33 -65 93 -115 163 -135 24 -6 354 -10 933
-10 998 0 963 -2 1040 67 22 20 50 55 62 77 l22 41 0 945 0 945 -22 41 c-12
23 -41 58 -65 78 -79 68 -43 66 -1037 65 -493 -1 -910 -4 -928 -9z m1542
-1120 l0 -615 -612 -3 -613 -2 0 620 0 620 613 -2 612 -3 0 -615z"/>
<path d="M10259 7636 c-89 -31 -146 -89 -169 -171 -8 -29 -10 -298 -8 -965 l3
-925 22 -40 c28 -52 78 -99 128 -122 37 -17 98 -18 939 -21 626 -2 916 1 953
8 78 17 142 65 178 135 l30 59 0 930 0 931 -23 47 c-13 27 -42 64 -65 83 -78
67 -43 65 -1046 65 -715 -1 -914 -4 -942 -14z m1561 -1111 l0 -615 -615 0
-615 0 0 615 0 615 615 0 615 0 0 -615z"/>
<path d="M13682 7635 c-93 -29 -154 -102 -172 -207 -8 -43 -10 -340 -8 -948 3
-873 3 -886 24 -930 26 -58 76 -108 134 -134 45 -21 53 -21 975 -21 837 0 934
2 966 16 51 23 107 75 132 123 l22 41 3 925 c2 684 0 936 -9 968 -14 52 -77
125 -133 155 l-41 22 -925 2 c-752 2 -933 -1 -968 -12z m1566 -1112 l2 -613
-615 0 -615 0 0 615 0 615 613 -2 612 -3 3 -612z"/>
<path d="M4930 11355 c-57 -18 -124 -74 -153 -129 l-22 -41 0 -945 0 -945 22
-41 c12 -23 41 -58 65 -78 80 -69 43 -67 1059 -64 l914 3 45 23 c63 33 95 66
122 126 l23 51 0 925 0 925 -23 50 c-29 64 -55 91 -117 123 l-50 27 -920 2
c-767 2 -928 0 -965 -12z m1560 -1115 l0 -620 -615 0 -615 0 0 620 0 620 615
0 615 0 0 -620z"/>
<path d="M4922 7631 c-60 -21 -113 -67 -145 -126 l-22 -40 -3 -924 c-3 -1026
-6 -978 63 -1059 19 -22 56 -51 83 -64 l47 -23 930 0 c922 0 930 0 975 21 58
26 108 76 134 134 21 45 21 53 21 970 l0 925 -24 52 c-13 29 -41 68 -62 87
-74 68 -43 66 -1043 66 -848 -1 -904 -2 -954 -19z m1568 -1106 l0 -615 -615 0
-615 0 0 615 0 615 615 0 615 0 0 -615z"/>
</g>
</svg>
