<?xml version="1.0" standalone="no"?>
<!DOCTYPE svg PUBLIC "-//W3C//DTD SVG 20010904//EN"
 "http://www.w3.org/TR/2001/REC-SVG-20010904/DTD/svg10.dtd">
<svg version="1.0" xmlns="http://www.w3.org/2000/svg"
 width="2048.000000pt" height="2048.000000pt" viewBox="0 0 2048.000000 2048.000000"
 preserveAspectRatio="xMidYMid meet">

<g transform="translate(0.000000,2048.000000) scale(0.100000,-0.100000)"
fill="#000000" stroke="none">
<path d="M3584 16245 c-174 -38 -331 -182 -384 -352 -20 -65 -20 -86 -20
-4868 0 -4782 0 -4803 20 -4868 55 -178 225 -326 408 -356 49 -8 1876 -11
6672 -9 l6605 3 61 21 c156 54 286 187 334 342 20 64 20 104 20 4867 0 4763 0
4803 -20 4867 -17 56 -70 149 -112 198 -57 67 -178 135 -277 156 -96 20
-13213 20 -13307 -1z m13206 -5225 l0 -4720 -6550 0 -6550 0 0 4720 0 4720
6550 0 6550 0 0 -4720z"/>
<path d="M1879 4730 c-128 -22 -209 -119 -209 -250 0 -107 53 -189 150 -234
l45 -21 8375 0 8375 0 45 21 c97 45 150 127 150 234 0 107 -53 189 -150 234
l-45 21 -8345 1 c-4590 1 -8366 -2 -8391 -6z"/>
</g>
</svg>
