<?xml version="1.0" standalone="no"?>
<!DOCTYPE svg PUBLIC "-//W3C//DTD SVG 20010904//EN"
 "http://www.w3.org/TR/2001/REC-SVG-20010904/DTD/svg10.dtd">
<svg version="1.0" xmlns="http://www.w3.org/2000/svg"
 width="2048.000000pt" height="2048.000000pt" viewBox="0 0 2048.000000 2048.000000"
 preserveAspectRatio="xMidYMid meet">

<g transform="translate(0.000000,2048.000000) scale(0.100000,-0.100000)"
fill="#000000" stroke="none">
<path d="M13325 16484 c-678 -45 -1206 -302 -1652 -803 -235 -264 -434 -659
-507 -1008 -39 -191 -50 -296 -49 -503 1 -300 41 -529 138 -790 120 -325 287
-583 540 -835 351 -351 752 -558 1250 -646 155 -27 449 -37 607 -19 417 45
798 191 1134 435 134 98 383 344 480 475 238 321 382 671 446 1085 19 120 16
506 -5 632 -50 308 -149 589 -299 841 -333 564 -908 972 -1538 1091 -179 34
-416 53 -545 45z m450 -548 c353 -75 654 -237 905 -486 215 -213 347 -425 444
-712 188 -559 86 -1173 -275 -1650 -237 -313 -605 -556 -990 -653 -611 -155
-1255 22 -1703 469 -433 431 -616 1032 -495 1631 69 344 241 658 500 916 224
223 514 387 822 465 177 45 257 53 472 50 168 -3 219 -8 320 -30z"/>
<path d="M6752 14794 c-381 -52 -760 -208 -1076 -442 -127 -95 -359 -326 -457
-457 -243 -323 -391 -685 -451 -1100 -19 -128 -16 -483 5 -613 20 -125 76
-351 112 -450 229 -634 732 -1147 1356 -1383 254 -96 464 -137 744 -146 406
-13 755 63 1111 242 560 283 969 763 1167 1370 122 373 136 849 37 1248 -80
326 -253 666 -465 917 -100 118 -281 290 -396 376 -314 233 -696 388 -1082
439 -147 19 -462 18 -605 -1z m550 -509 c127 -16 276 -56 418 -110 414 -158
769 -493 969 -915 127 -269 188 -597 163 -879 -22 -252 -70 -436 -166 -636
-154 -323 -361 -559 -661 -753 -395 -256 -862 -339 -1350 -241 -317 64 -636
240 -881 485 -244 244 -397 516 -483 859 -41 163 -56 372 -41 550 37 431 216
819 518 1123 285 286 670 476 1059 521 115 14 336 12 455 -4z"/>
<path d="M10771 10899 c-164 -21 -361 -81 -526 -158 -555 -262 -937 -791
-1016 -1409 l-12 -92 -2401 -3 c-2226 -3 -2407 -4 -2486 -20 -440 -90 -825
-323 -1086 -658 -188 -243 -294 -475 -361 -797 -15 -69 -17 -255 -20 -1699 -3
-1464 -2 -1629 12 -1685 25 -93 59 -152 133 -227 71 -72 129 -107 227 -138 58
-17 199 -18 3825 -18 3626 0 3767 1 3825 18 173 54 301 177 357 346 22 65 22
78 26 688 l3 623 2982 2 2982 3 58 23 c123 50 249 176 299 299 l23 58 3 1585
c2 1117 0 1615 -8 1685 -29 258 -113 505 -248 725 -260 425 -690 728 -1178
832 l-109 23 -2620 1 c-1441 1 -2649 -2 -2684 -7z m5329 -523 c301 -72 559
-235 734 -461 146 -187 226 -373 261 -605 13 -80 15 -333 15 -1612 l0 -1518
-2920 0 -2920 0 0 613 c0 336 -5 675 -9 752 -39 596 -350 1119 -851 1432 -179
111 -377 188 -610 235 l-65 13 3 40 c13 177 93 395 207 565 86 129 178 226
297 315 162 121 346 201 542 236 95 16 248 17 2671 15 2443 -1 2574 -2 2645
-20z m-6435 -1661 c180 -29 320 -79 460 -164 276 -168 463 -403 564 -708 63
-191 61 -125 61 -1805 l0 -1528 -3690 0 -3690 0 0 1513 c0 1617 0 1606 50
1787 11 41 50 134 85 207 116 237 291 423 515 548 144 79 265 122 430 150 59
10 602 13 2598 14 2213 1 2534 -1 2617 -14z"/>
</g>
</svg>
