<?xml version="1.0" standalone="no"?>
<!DOCTYPE svg PUBLIC "-//W3C//DTD SVG 20010904//EN"
 "http://www.w3.org/TR/2001/REC-SVG-20010904/DTD/svg10.dtd">
<svg version="1.0" xmlns="http://www.w3.org/2000/svg"
 width="2048.000000pt" height="2048.000000pt" viewBox="0 0 2048.000000 2048.000000"
 preserveAspectRatio="xMidYMid meet">

<g transform="translate(0.000000,2048.000000) scale(0.100000,-0.100000)"
fill="#000000" stroke="none">
<path d="M3757 16885 c-57 -21 -110 -67 -140 -123 l-27 -50 2 -1279 c3 -1247
3 -1279 23 -1318 48 -97 140 -150 249 -143 56 3 73 9 123 43 40 29 64 54 83
90 l25 49 5 933 5 933 1185 -1186 c957 -958 1195 -1191 1235 -1210 137 -65
301 3 350 145 20 60 19 110 -5 173 -18 49 -118 151 -1210 1243 -654 654 -1190
1193 -1190 1197 0 5 417 8 928 8 876 0 929 1 967 19 50 23 99 72 126 128 17
36 20 58 17 118 -3 62 -8 80 -33 117 -43 60 -105 104 -165 117 -35 8 -428 11
-1283 10 -1031 0 -1238 -3 -1270 -14z"/>
<path d="M14136 16875 c-140 -50 -207 -219 -140 -353 14 -28 41 -65 60 -81 70
-62 46 -61 1046 -61 499 0 908 -3 908 -7 0 -5 -540 -548 -1199 -1208 -886
-886 -1204 -1210 -1215 -1239 -37 -91 -14 -197 59 -273 82 -84 186 -103 288
-52 29 14 427 406 1239 1217 l1197 1196 3 -929 c3 -1052 -3 -978 85 -1055 132
-116 325 -77 402 83 21 42 21 47 21 1318 1 901 -2 1284 -10 1305 -16 41 -88
113 -135 135 -38 18 -92 19 -1305 18 -1050 0 -1272 -2 -1304 -14z"/>
<path d="M10129 14307 c-52 -27 -3112 -2321 -3151 -2363 -87 -93 -80 -261 14
-351 35 -33 3043 -2290 3117 -2339 40 -26 52 -29 130 -29 73 0 92 4 124 24 59
36 3087 2309 3125 2344 95 91 102 257 14 351 -45 48 -3135 2362 -3171 2374
-57 20 -152 15 -202 -11z m1432 -1538 c1095 -821 1319 -993 1308 -1004 -38
-35 -2619 -1965 -2629 -1965 -6 0 -603 444 -1326 987 -950 712 -1312 989
-1304 997 10 10 2622 1974 2628 1975 1 1 597 -445 1323 -990z"/>
<path d="M13253 10496 c-42 -14 -135 -83 -2118 -1570 -484 -363 -887 -660
-895 -660 -8 0 -528 385 -1155 855 -1768 1326 -1788 1341 -1825 1357 -42 18
-139 19 -183 1 -165 -65 -216 -281 -98 -409 36 -39 3042 -2296 3135 -2354 43
-27 58 -31 120 -31 51 0 82 6 111 20 44 22 3110 2318 3163 2368 135 129 77
369 -102 422 -60 18 -97 18 -153 1z"/>
<path d="M7080 8941 c-171 -61 -223 -296 -92 -418 60 -56 3098 -2330 3141
-2350 52 -26 146 -31 201 -12 40 14 3138 2335 3168 2374 33 42 55 129 49 188
-11 86 -73 168 -156 203 -51 22 -149 20 -198 -2 -22 -11 -695 -511 -1496
-1111 l-1457 -1093 -1462 1096 c-804 603 -1479 1104 -1499 1115 -58 29 -134
33 -199 10z"/>
<path d="M6573 6869 c-22 -4 -58 -17 -80 -28 -22 -12 -517 -499 -1213 -1195
-646 -647 -1178 -1176 -1182 -1176 -5 0 -8 417 -8 928 0 878 -1 929 -19 967
-74 162 -302 194 -420 60 -71 -81 -66 27 -69 -1373 -2 -1217 -2 -1265 16
-1306 26 -58 75 -111 126 -135 42 -21 49 -21 1314 -21 1385 0 1299 -3 1377 56
20 15 48 53 66 90 28 56 31 71 26 122 -8 98 -65 180 -152 219 -37 17 -102 18
-968 23 l-927 5 1181 1180 c714 713 1189 1196 1202 1220 30 57 30 174 0 231
-52 97 -163 152 -270 133z"/>
<path d="M13800 6861 c-76 -23 -148 -89 -171 -157 -18 -54 -16 -132 4 -184 14
-38 211 -239 1197 -1225 649 -649 1180 -1183 1180 -1187 0 -4 -415 -9 -922
-10 -914 -3 -923 -3 -968 -24 -194 -91 -199 -363 -8 -458 l52 -26 1273 0
c1235 0 1275 1 1311 19 44 23 103 83 126 128 15 30 16 150 16 1304 0 1259 0
1272 -21 1318 -27 61 -63 98 -124 127 -126 60 -279 5 -336 -121 -18 -38 -19
-91 -19 -967 0 -511 -3 -928 -7 -928 -4 0 -541 533 -1193 1184 -1157 1157
-1186 1185 -1239 1200 -58 17 -110 19 -151 7z"/>
</g>
</svg>
