<?xml version="1.0" standalone="no"?>
<!DOCTYPE svg PUBLIC "-//W3C//DTD SVG 20010904//EN"
 "http://www.w3.org/TR/2001/REC-SVG-20010904/DTD/svg10.dtd">
<svg version="1.0" xmlns="http://www.w3.org/2000/svg"
 width="2048.000000pt" height="2048.000000pt" viewBox="0 0 2048.000000 2048.000000"
 preserveAspectRatio="xMidYMid meet">

<g transform="translate(0.000000,2048.000000) scale(0.100000,-0.100000)"
fill="#000000" stroke="none">
<path d="M3027 17529 c-319 -37 -591 -264 -686 -571 -11 -37 -25 -113 -31
-169 -14 -141 -14 -11677 0 -11818 24 -228 120 -415 285 -554 78 -66 234 -147
335 -174 62 -17 306 -18 4590 -21 l4525 -3 33 -42 c19 -23 86 -97 149 -165
483 -514 1163 -882 1862 -1006 450 -80 830 -80 1271 0 746 136 1465 547 1964
1124 453 524 727 1131 821 1825 22 160 31 563 16 736 -77 883 -479 1690 -1138
2281 l-123 111 0 3836 c0 2496 -4 3860 -10 3906 -48 333 -279 592 -616 687
l-79 23 -6550 1 c-3602 1 -6581 -2 -6618 -7z m13093 -510 c109 -17 191 -79
239 -179 l26 -55 0 -1770 0 -1770 -6783 -3 -6782 -2 2 1782 3 1783 23 46 c43
89 129 152 229 169 75 12 12965 12 13043 -1z m268 -5929 c1 -899 0 -1641 -3
-1647 -3 -9 -46 8 -132 51 -421 211 -890 333 -1358 355 -499 23 -970 -53
-1430 -232 -345 -134 -714 -355 -984 -589 l-44 -38 -4807 0 c-2644 0 -4809 2
-4811 4 -2 2 -3 844 -1 1870 l2 1866 6783 -2 6782 -3 3 -1635z m-1231 -1779
c200 -30 453 -97 628 -166 138 -53 412 -195 535 -275 464 -305 810 -698 1051
-1195 128 -265 206 -513 255 -815 35 -212 44 -559 20 -770 -75 -652 -330
-1214 -769 -1690 -401 -435 -954 -751 -1527 -874 -659 -141 -1319 -63 -1915
228 -598 291 -1062 754 -1355 1351 -151 307 -233 581 -282 935 -8 58 -13 197
-13 360 0 268 7 349 46 564 54 293 190 652 348 921 486 825 1338 1364 2291
1449 25 2 160 2 300 1 193 -3 287 -8 387 -24z m-3207 -837 c0 -3 -49 -79 -108
-169 -313 -470 -511 -1028 -562 -1580 -15 -161 -12 -528 5 -690 44 -410 168
-835 346 -1180 l59 -115 -4322 0 -4323 0 -50 24 c-68 32 -131 98 -155 163 -20
53 -20 81 -20 1796 0 958 0 1745 0 1750 0 4 2054 7 4565 7 2511 0 4565 -3
4565 -6z"/>
<path d="M4367 15520 c-184 -47 -311 -243 -278 -431 15 -86 46 -145 111 -210
181 -182 497 -127 610 106 91 188 6 425 -182 510 -69 31 -189 43 -261 25z"/>
<path d="M6183 15511 c-177 -62 -285 -243 -253 -423 23 -127 92 -218 208 -275
72 -36 81 -38 172 -38 83 0 103 4 157 29 76 35 153 113 191 193 23 50 27 71
27 153 0 82 -4 103 -27 153 -38 80 -115 158 -191 193 -80 37 -204 43 -284 15z"/>
<path d="M4343 11142 c-178 -63 -286 -244 -254 -423 53 -304 414 -425 639
-215 60 56 100 133 115 220 27 159 -60 324 -210 398 -55 27 -79 32 -152 35
-65 3 -99 -1 -138 -15z"/>
<path d="M6183 11142 c-177 -63 -287 -248 -254 -427 15 -80 47 -141 108 -203
147 -149 377 -152 531 -8 193 181 144 500 -95 618 -55 27 -79 32 -152 35 -65
3 -99 -1 -138 -15z"/>
<path d="M15843 7412 c-28 -10 -71 -36 -95 -57 -24 -22 -378 -374 -787 -783
l-744 -743 -356 354 c-316 315 -361 356 -405 371 -96 32 -180 16 -252 -47 -66
-58 -88 -107 -88 -192 0 -54 5 -80 23 -115 16 -30 191 -214 544 -567 287 -288
526 -523 532 -523 6 0 443 433 972 963 936 937 962 963 977 1016 20 68 20 94
0 160 -39 133 -190 209 -321 163z"/>
<path d="M4374 6926 c-69 -17 -131 -55 -185 -113 -145 -155 -138 -387 16 -532
121 -115 274 -141 422 -72 239 112 293 425 106 616 -91 92 -236 133 -359 101z"/>
<path d="M6220 6926 c-145 -31 -265 -158 -290 -307 -33 -196 89 -383 285 -435
146 -40 306 20 401 148 166 226 37 546 -241 597 -70 13 -83 13 -155 -3z"/>
</g>
</svg>
