<?xml version="1.0" standalone="no"?>
<!DOCTYPE svg PUBLIC "-//W3C//DTD SVG 20010904//EN"
 "http://www.w3.org/TR/2001/REC-SVG-20010904/DTD/svg10.dtd">
<svg version="1.0" xmlns="http://www.w3.org/2000/svg"
 width="2048.000000pt" height="2048.000000pt" viewBox="0 0 2048.000000 2048.000000"
 preserveAspectRatio="xMidYMid meet">

<g transform="translate(0.000000,2048.000000) scale(0.100000,-0.100000)"
fill="#000000" stroke="none">
<path d="M3390 17530 c-199 -27 -355 -163 -426 -370 -19 -54 -19 -216 -19
-6920 0 -6649 1 -6867 18 -6920 67 -197 205 -325 396 -366 101 -21 13663 -21
13764 1 203 43 359 199 402 402 22 101 22 13663 1 13764 -46 215 -223 381
-438 409 -87 11 -13614 11 -13698 0z m13628 -512 c18 -18 18 -13538 0 -13556
-18 -18 -13538 -18 -13556 0 -18 18 -18 13538 0 13556 18 18 13538 18 13556 0z"/>
<path d="M10048 14353 l-3 -368 -367 -3 -368 -2 0 -190 0 -190 368 -2 367 -3
3 -367 2 -368 190 0 190 0 2 368 3 367 368 3 367 2 0 190 0 190 -367 2 -368 3
-3 368 -2 367 -190 0 -190 0 -2 -367z"/>
<path d="M7670 13155 l0 -525 -525 0 -525 0 0 -255 0 -255 523 -2 522 -3 5
-525 5 -525 252 -3 253 -2 2 527 3 528 525 5 525 5 0 250 0 250 -527 3 -528 2
0 525 0 525 -255 0 -255 0 0 -525z"/>
<path d="M12300 13155 l0 -525 -527 -2 -528 -3 0 -250 0 -250 525 -5 525 -5 3
-528 2 -527 253 2 252 3 5 525 5 525 523 3 522 2 0 255 0 255 -525 0 -525 0 0
525 0 525 -255 0 -255 0 0 -525z"/>
<path d="M9950 11170 l0 -640 -640 0 -640 0 0 -290 0 -290 640 0 640 0 0 -640
0 -640 290 0 290 0 0 640 0 640 640 0 640 0 0 290 0 290 -640 0 -640 0 0 640
0 640 -290 0 -290 0 0 -640z"/>
<path d="M6498 10803 l-3 -368 -367 -3 -368 -2 0 -190 0 -190 368 -2 367 -3 3
-367 2 -368 190 0 190 0 2 368 3 367 368 3 367 2 0 190 0 190 -367 2 -368 3
-3 368 -2 367 -190 0 -190 0 -2 -367z"/>
<path d="M13598 10803 l-3 -368 -367 -3 -368 -2 0 -190 0 -190 368 -2 367 -3
3 -367 2 -368 190 0 190 0 2 368 3 367 368 3 367 2 0 190 0 190 -367 2 -368 3
-3 368 -2 367 -190 0 -190 0 -2 -367z"/>
<path d="M7675 9408 c-3 -7 -6 -245 -8 -528 l-2 -515 -522 -3 -523 -2 0 -255
0 -255 525 0 525 0 0 -525 0 -525 255 0 255 0 0 525 0 525 528 2 527 3 0 250
0 250 -525 5 -525 5 -3 528 -2 527 -250 0 c-191 0 -252 -3 -255 -12z"/>
<path d="M12298 8893 l-3 -528 -525 -5 -525 -5 0 -250 0 -250 528 -3 527 -2 0
-525 0 -525 255 0 255 0 0 525 0 525 525 0 525 0 0 255 0 255 -522 2 -523 3
-5 525 -5 525 -252 3 -253 2 -2 -527z"/>
<path d="M10048 7253 l-3 -368 -367 -3 -368 -2 0 -190 0 -190 368 -2 367 -3 3
-367 2 -368 190 0 190 0 2 368 3 367 368 3 367 2 0 190 0 190 -367 2 -368 3
-3 368 -2 367 -190 0 -190 0 -2 -367z"/>
</g>
</svg>
