<?xml version="1.0" standalone="no"?>
<!DOCTYPE svg PUBLIC "-//W3C//DTD SVG 20010904//EN"
 "http://www.w3.org/TR/2001/REC-SVG-20010904/DTD/svg10.dtd">
<svg version="1.0" xmlns="http://www.w3.org/2000/svg"
 width="2048.000000pt" height="2048.000000pt" viewBox="0 0 2048.000000 2048.000000"
 preserveAspectRatio="xMidYMid meet">

<g transform="translate(0.000000,2048.000000) scale(0.100000,-0.100000)"
fill="#000000" stroke="none">
<path d="M3390 17530 c-199 -27 -355 -163 -426 -370 -19 -54 -19 -216 -19
-6920 0 -6649 1 -6867 18 -6920 67 -197 205 -325 396 -366 101 -21 13663 -21
13764 1 203 43 359 199 402 402 22 101 22 13663 1 13764 -46 215 -223 381
-438 409 -87 11 -13614 11 -13698 0z m13629 -514 c8 -10 10 -1228 9 -4642 l-3
-4629 -6785 0 -6785 0 -3 4629 c-1 3414 1 4632 9 4642 17 21 13541 21 13558 0z
m11 -11664 c0 -1447 -3 -1881 -12 -1890 -18 -18 -13538 -18 -13556 0 -9 9 -12
443 -12 1890 l0 1878 6790 0 6790 0 0 -1878z"/>
<path d="M10087 15584 c-4 -4 -7 -119 -7 -255 l0 -249 -252 -2 -253 -3 0 -155
0 -155 253 -3 252 -2 0 -250 0 -250 160 0 160 0 0 250 0 250 253 2 252 3 0
155 0 155 -252 3 -253 2 -2 253 -3 252 -151 3 c-82 1 -153 -1 -157 -4z"/>
<path d="M8390 14490 l0 -370 -372 -2 -373 -3 0 -190 0 -190 373 -3 372 -2 0
-370 0 -370 190 0 190 0 0 370 0 370 370 0 369 0 3 191 c2 105 1 193 -1 195
-2 2 -170 4 -373 4 l-368 0 0 370 0 370 -190 0 -190 0 0 -370z"/>
<path d="M11690 14490 l0 -370 -367 -2 -368 -3 -3 -192 -2 -193 370 0 370 0 0
-370 0 -370 195 0 195 0 0 370 0 370 368 2 367 3 0 190 0 190 -367 3 -368 2 0
370 0 370 -195 0 -195 0 0 -370z"/>
<path d="M10017 13504 c-4 -4 -7 -207 -7 -451 l0 -443 -445 0 -445 0 0 -225 0
-225 445 0 445 0 2 -447 3 -448 225 0 225 0 3 448 2 447 445 0 445 0 0 225 0
225 -445 0 -445 0 -2 448 -3 447 -221 3 c-121 1 -223 -1 -227 -4z"/>
<path d="M7547 13044 c-4 -4 -7 -119 -7 -256 l0 -249 -247 1 -248 1 0 -158 0
-158 247 -3 248 -2 2 -248 3 -247 160 0 160 0 3 247 2 248 248 2 247 3 0 158
0 158 -247 -1 -248 -1 -2 253 -3 253 -156 3 c-85 1 -158 -1 -162 -4z"/>
<path d="M12617 13044 c-4 -4 -7 -119 -7 -256 l0 -249 -247 1 -248 1 0 -158 0
-158 247 -3 248 -2 2 -248 3 -247 160 0 160 0 3 247 2 248 248 2 247 3 0 158
0 158 -247 -1 -248 -1 -2 253 -3 253 -156 3 c-85 1 -158 -1 -162 -4z"/>
<path d="M8390 11440 l0 -370 -372 -2 -373 -3 0 -190 0 -190 373 -3 372 -2 0
-370 0 -370 190 0 190 0 0 370 0 370 370 0 370 0 0 195 0 195 -370 0 -370 0 0
370 0 370 -190 0 -190 0 0 -370z"/>
<path d="M11690 11440 l0 -370 -370 0 -370 0 2 -192 3 -193 368 -3 367 -2 0
-370 0 -370 193 2 192 3 3 367 2 368 368 2 367 3 3 193 2 192 -370 0 -370 0 0
370 0 370 -195 0 -195 0 0 -370z"/>
<path d="M10080 10260 l0 -250 -252 -2 -253 -3 -3 -157 -3 -158 256 0 255 0 2
-252 3 -253 155 0 155 0 3 253 2 252 255 0 256 0 -3 158 -3 157 -252 3 -253 2
0 250 0 250 -160 0 -160 0 0 -250z"/>
<path d="M13793 6270 c-209 -26 -413 -142 -514 -292 -114 -168 -159 -333 -159
-588 0 -464 182 -747 545 -852 70 -20 102 -23 260 -23 178 0 181 1 278 34 180
62 288 157 370 323 50 100 91 219 79 229 -4 3 -92 25 -197 48 -104 23 -199 44
-210 47 -18 5 -24 -4 -44 -68 -31 -98 -52 -136 -98 -180 -53 -52 -102 -69
-190 -70 -60 0 -84 5 -128 26 -134 66 -206 236 -206 486 0 323 115 501 323
503 142 1 232 -74 279 -232 7 -23 18 -45 25 -48 12 -4 390 102 415 117 11 7
10 19 -5 67 -60 196 -161 322 -317 398 -52 25 -125 52 -164 60 -92 19 -252 26
-342 15z"/>
<path d="M5900 5395 l0 -855 225 0 225 0 0 270 0 270 88 0 c139 0 347 20 429
40 262 68 403 259 403 547 -1 176 -50 317 -144 407 -149 143 -323 176 -928
176 l-298 0 0 -855z m760 464 c64 -14 129 -63 146 -109 21 -59 17 -159 -8
-210 -18 -36 -35 -51 -81 -75 -56 -28 -66 -29 -213 -33 l-154 -4 0 221 0 221
130 0 c71 0 152 -5 180 -11z"/>
<path d="M7457 6244 c-12 -12 -8 -1060 4 -1159 37 -304 182 -473 469 -547 123
-31 348 -31 475 0 122 31 223 81 288 145 64 62 95 109 131 201 54 135 56 170
54 791 l-3 570 -220 0 -220 0 -5 -580 c-5 -573 -5 -581 -28 -636 -41 -101
-107 -142 -232 -141 -41 0 -87 5 -102 11 -49 19 -106 80 -130 139 -23 57 -23
61 -28 632 l-5 575 -221 3 c-121 1 -223 -1 -227 -4z"/>
<path d="M9217 6243 c-4 -3 -7 -388 -7 -855 l0 -849 458 3 c436 4 461 5 537
26 214 60 326 159 370 327 41 159 -5 341 -111 433 -45 41 -127 79 -191 89 -18
3 -33 8 -33 12 0 3 23 15 52 25 147 52 224 146 248 301 20 133 -17 270 -96
349 -81 80 -202 119 -417 136 -139 11 -800 13 -810 3z m812 -378 c51 -30 74
-67 78 -127 6 -72 -19 -115 -83 -148 -45 -23 -58 -25 -204 -25 l-155 0 -3 150
c-1 82 0 155 3 163 4 11 36 13 168 10 140 -3 167 -6 196 -23z m26 -651 c98
-50 113 -198 29 -275 -48 -44 -94 -53 -264 -54 l-155 0 -3 178 -2 178 177 -3
c156 -3 183 -6 218 -24z"/>
<path d="M10936 6241 c-3 -5 -6 -388 -6 -852 l0 -844 585 -3 585 -2 0 185 0
185 -355 0 -355 0 -2 668 -3 667 -222 3 c-125 1 -224 -2 -227 -7z"/>
<path d="M12367 6244 c-4 -4 -7 -389 -7 -856 l0 -848 230 0 230 0 -2 853 -3
852 -221 3 c-121 1 -223 -1 -227 -4z"/>
</g>
</svg>
