<?xml version="1.0" standalone="no"?>
<!DOCTYPE svg PUBLIC "-//W3C//DTD SVG 20010904//EN"
 "http://www.w3.org/TR/2001/REC-SVG-20010904/DTD/svg10.dtd">
<svg version="1.0" xmlns="http://www.w3.org/2000/svg"
 width="2048.000000pt" height="2048.000000pt" viewBox="0 0 2048.000000 2048.000000"
 preserveAspectRatio="xMidYMid meet">

<g transform="translate(0.000000,2048.000000) scale(0.100000,-0.100000)"
fill="#000000" stroke="none">
<path d="M3390 17530 c-199 -27 -355 -163 -426 -370 -19 -54 -19 -216 -19
-6920 0 -6649 1 -6867 18 -6920 67 -197 205 -325 396 -366 101 -21 13663 -21
13764 1 203 43 359 199 402 402 22 101 22 13663 1 13764 -46 215 -223 381
-438 409 -87 11 -13614 11 -13698 0z m13629 -514 c8 -10 10 -1228 9 -4642 l-3
-4629 -6785 0 -6785 0 -3 4629 c-1 3414 1 4632 9 4642 17 21 13541 21 13558 0z
m11 -11664 c0 -1447 -3 -1881 -12 -1890 -18 -18 -13538 -18 -13556 0 -9 9 -12
443 -12 1890 l0 1878 6790 0 6790 0 0 -1878z"/>
<path d="M10087 15584 c-4 -4 -7 -119 -7 -255 l0 -249 -252 -2 -253 -3 0 -155
0 -155 253 -3 252 -2 0 -250 0 -250 160 0 160 0 0 250 0 250 253 2 252 3 0
155 0 155 -252 3 -253 2 -2 253 -3 252 -151 3 c-82 1 -153 -1 -157 -4z"/>
<path d="M8390 14490 l0 -370 -372 -2 -373 -3 0 -190 0 -190 373 -3 372 -2 0
-370 0 -370 190 0 190 0 0 370 0 370 370 0 369 0 3 191 c2 105 1 193 -1 195
-2 2 -170 4 -373 4 l-368 0 0 370 0 370 -190 0 -190 0 0 -370z"/>
<path d="M11690 14490 l0 -370 -367 -2 -368 -3 -3 -192 -2 -193 370 0 370 0 0
-370 0 -370 195 0 195 0 0 370 0 370 368 2 367 3 0 190 0 190 -367 3 -368 2 0
370 0 370 -195 0 -195 0 0 -370z"/>
<path d="M10017 13504 c-4 -4 -7 -207 -7 -451 l0 -443 -445 0 -445 0 0 -225 0
-225 445 0 445 0 2 -447 3 -448 225 0 225 0 3 448 2 447 445 0 445 0 0 225 0
225 -445 0 -445 0 -2 448 -3 447 -221 3 c-121 1 -223 -1 -227 -4z"/>
<path d="M7547 13044 c-4 -4 -7 -119 -7 -256 l0 -249 -247 1 -248 1 0 -158 0
-158 247 -3 248 -2 2 -248 3 -247 160 0 160 0 3 247 2 248 248 2 247 3 0 158
0 158 -247 -1 -248 -1 -2 253 -3 253 -156 3 c-85 1 -158 -1 -162 -4z"/>
<path d="M12617 13044 c-4 -4 -7 -119 -7 -256 l0 -249 -247 1 -248 1 0 -158 0
-158 247 -3 248 -2 2 -248 3 -247 160 0 160 0 3 247 2 248 248 2 247 3 0 158
0 158 -247 -1 -248 -1 -2 253 -3 253 -156 3 c-85 1 -158 -1 -162 -4z"/>
<path d="M8390 11440 l0 -370 -372 -2 -373 -3 0 -190 0 -190 373 -3 372 -2 0
-370 0 -370 190 0 190 0 0 370 0 370 370 0 370 0 0 195 0 195 -370 0 -370 0 0
370 0 370 -190 0 -190 0 0 -370z"/>
<path d="M11690 11440 l0 -370 -370 0 -370 0 2 -192 3 -193 368 -3 367 -2 0
-370 0 -370 193 2 192 3 3 367 2 368 368 2 367 3 3 193 2 192 -370 0 -370 0 0
370 0 370 -195 0 -195 0 0 -370z"/>
<path d="M10080 10260 l0 -250 -252 -2 -253 -3 -3 -157 -3 -158 256 0 255 0 2
-252 3 -253 155 0 155 0 3 253 2 252 255 0 256 0 -3 158 -3 157 -252 3 -253 2
0 250 0 250 -160 0 -160 0 0 -250z"/>
<path d="M6031 6269 c-191 -24 -340 -103 -427 -225 -59 -83 -85 -158 -91 -269
-12 -207 66 -341 256 -439 83 -43 135 -60 436 -142 186 -51 255 -101 255 -186
0 -144 -274 -187 -484 -75 -66 35 -163 120 -185 161 -8 14 -19 26 -24 26 -7 0
-270 -160 -330 -201 -5 -4 16 -41 47 -82 127 -169 297 -271 521 -314 114 -22
360 -13 470 16 232 61 379 199 425 400 8 32 11 88 8 141 -12 200 -133 338
-373 424 -39 14 -137 43 -220 65 -246 65 -296 86 -335 141 -46 64 -11 158 68
180 59 16 164 12 234 -10 76 -23 174 -84 239 -146 l46 -45 129 107 c71 58 140
115 153 125 l23 19 -32 39 c-17 22 -66 68 -108 102 -191 154 -443 222 -701
188z"/>
<path d="M7210 5395 l0 -855 625 0 625 0 0 185 0 185 -397 2 -398 3 0 155 0
155 273 3 272 2 -2 178 -3 177 -273 3 -273 2 3 133 3 132 378 3 377 2 0 195 0
195 -605 0 -605 0 0 -855z"/>
<path d="M8748 6244 c-5 -4 -8 -389 -8 -856 l0 -848 225 0 225 0 0 295 0 295
63 0 63 0 65 -117 c37 -65 110 -198 164 -295 l98 -178 244 0 243 0 -19 38
c-10 20 -60 111 -111 202 -147 262 -220 397 -220 407 0 4 32 23 72 41 118 56
201 156 235 284 24 93 22 293 -5 375 -57 179 -189 284 -418 333 -89 19 -140
22 -504 27 -223 3 -408 2 -412 -3z m752 -384 c57 -11 109 -44 138 -88 12 -18
17 -47 17 -97 0 -79 -25 -134 -74 -159 -44 -23 -138 -36 -268 -36 l-123 0 0
195 0 195 129 0 c70 0 152 -5 181 -10z"/>
<path d="M10268 6244 c-4 -3 66 -218 154 -477 88 -260 215 -636 283 -837 67
-201 126 -373 130 -382 6 -16 27 -18 224 -18 l216 0 287 843 c158 463 289 849
290 857 3 13 -26 15 -203 18 -158 2 -209 -1 -216 -10 -5 -7 -87 -254 -182
-548 -95 -294 -176 -538 -180 -543 -4 -4 -26 55 -49 130 -23 76 -75 246 -116
378 -40 132 -97 316 -125 409 -28 93 -54 173 -57 177 -6 10 -447 13 -456 3z"/>
<path d="M12093 6243 c-10 -4 -13 -184 -13 -854 l0 -849 630 0 630 0 0 185 0
185 -395 0 -395 0 0 160 0 160 270 0 270 0 -2 178 -3 177 -267 3 -268 2 0 135
0 135 375 0 375 0 -2 193 -3 192 -595 2 c-327 1 -601 -1 -607 -4z"/>
<path d="M13620 5396 l0 -856 225 0 225 0 0 295 0 295 63 0 62 0 164 -295 164
-295 244 0 244 0 -17 33 c-9 17 -47 86 -84 152 -153 273 -250 452 -250 461 0
5 32 24 72 42 78 37 149 101 191 173 79 135 83 420 8 568 -63 122 -199 211
-386 251 -90 20 -141 22 -512 27 l-413 6 0 -857z m826 443 c37 -18 55 -36 72
-69 41 -81 19 -205 -43 -246 -43 -28 -140 -44 -277 -44 l-128 0 0 196 0 196
163 -4 c150 -3 168 -6 213 -29z"/>
</g>
</svg>
