<?xml version="1.0" standalone="no"?>
<!DOCTYPE svg PUBLIC "-//W3C//DTD SVG 20010904//EN"
 "http://www.w3.org/TR/2001/REC-SVG-20010904/DTD/svg10.dtd">
<svg version="1.0" xmlns="http://www.w3.org/2000/svg"
 width="2048.000000pt" height="2048.000000pt" viewBox="0 0 2048.000000 2048.000000"
 preserveAspectRatio="xMidYMid meet">

<g transform="translate(0.000000,2048.000000) scale(0.100000,-0.100000)"
fill="#000000" stroke="none">
<path d="M3390 17530 c-199 -27 -355 -163 -426 -370 -19 -54 -19 -216 -19
-6920 0 -6649 1 -6867 18 -6920 67 -197 205 -325 396 -366 101 -21 13663 -21
13764 1 203 43 359 199 402 402 22 101 22 13663 1 13764 -46 215 -223 381
-438 409 -87 11 -13614 11 -13698 0z m13629 -514 c8 -10 10 -1228 9 -4642 l-3
-4629 -6785 0 -6785 0 -3 4629 c-1 3414 1 4632 9 4642 17 21 13541 21 13558 0z
m11 -11664 c0 -1447 -3 -1881 -12 -1890 -18 -18 -13538 -18 -13556 0 -9 9 -12
443 -12 1890 l0 1878 6790 0 6790 0 0 -1878z"/>
<path d="M10087 15584 c-4 -4 -7 -119 -7 -255 l0 -249 -252 -2 -253 -3 0 -155
0 -155 253 -3 252 -2 0 -250 0 -250 160 0 160 0 0 250 0 250 253 2 252 3 0
155 0 155 -252 3 -253 2 -2 253 -3 252 -151 3 c-82 1 -153 -1 -157 -4z"/>
<path d="M8390 14490 l0 -370 -372 -2 -373 -3 0 -190 0 -190 373 -3 372 -2 0
-370 0 -370 190 0 190 0 0 370 0 370 370 0 369 0 3 191 c2 105 1 193 -1 195
-2 2 -170 4 -373 4 l-368 0 0 370 0 370 -190 0 -190 0 0 -370z"/>
<path d="M11690 14490 l0 -370 -367 -2 -368 -3 -3 -192 -2 -193 370 0 370 0 0
-370 0 -370 195 0 195 0 0 370 0 370 368 2 367 3 0 190 0 190 -367 3 -368 2 0
370 0 370 -195 0 -195 0 0 -370z"/>
<path d="M10017 13504 c-4 -4 -7 -207 -7 -451 l0 -443 -445 0 -445 0 0 -225 0
-225 445 0 445 0 2 -447 3 -448 225 0 225 0 3 448 2 447 445 0 445 0 0 225 0
225 -445 0 -445 0 -2 448 -3 447 -221 3 c-121 1 -223 -1 -227 -4z"/>
<path d="M7547 13044 c-4 -4 -7 -119 -7 -256 l0 -249 -247 1 -248 1 0 -158 0
-158 247 -3 248 -2 2 -248 3 -247 160 0 160 0 3 247 2 248 248 2 247 3 0 158
0 158 -247 -1 -248 -1 -2 253 -3 253 -156 3 c-85 1 -158 -1 -162 -4z"/>
<path d="M12617 13044 c-4 -4 -7 -119 -7 -256 l0 -249 -247 1 -248 1 0 -158 0
-158 247 -3 248 -2 2 -248 3 -247 160 0 160 0 3 247 2 248 248 2 247 3 0 158
0 158 -247 -1 -248 -1 -2 253 -3 253 -156 3 c-85 1 -158 -1 -162 -4z"/>
<path d="M8390 11440 l0 -370 -372 -2 -373 -3 0 -190 0 -190 373 -3 372 -2 0
-370 0 -370 190 0 190 0 0 370 0 370 370 0 370 0 0 195 0 195 -370 0 -370 0 0
370 0 370 -190 0 -190 0 0 -370z"/>
<path d="M11690 11440 l0 -370 -370 0 -370 0 2 -192 3 -193 368 -3 367 -2 0
-370 0 -370 193 2 192 3 3 367 2 368 368 2 367 3 3 193 2 192 -370 0 -370 0 0
370 0 370 -195 0 -195 0 0 -370z"/>
<path d="M10080 10260 l0 -250 -252 -2 -253 -3 -3 -157 -3 -158 256 0 255 0 2
-252 3 -253 155 0 155 0 3 253 2 252 255 0 256 0 -3 158 -3 157 -252 3 -253 2
0 250 0 250 -160 0 -160 0 0 -250z"/>
<path d="M7187 6243 c-4 -3 -7 -388 -7 -855 l0 -848 230 0 230 0 0 270 0 270
83 0 c128 0 343 19 416 36 212 52 355 186 398 373 22 97 22 272 0 358 -39 149
-120 250 -251 313 -103 49 -190 68 -369 80 -161 11 -720 14 -730 3z m804 -396
c48 -22 97 -74 109 -116 24 -87 2 -189 -51 -238 -46 -42 -104 -56 -261 -61
l-148 -4 0 222 0 222 158 -4 c115 -4 167 -9 193 -21z"/>
<path d="M8828 6244 c-5 -4 -8 -389 -8 -856 l0 -848 225 0 225 0 0 295 0 295
63 0 63 0 163 -295 164 -295 244 0 244 0 -29 53 c-17 28 -52 93 -79 142 -27
50 -93 169 -146 266 -53 97 -97 181 -97 186 0 6 20 18 45 27 69 27 157 97 197
157 58 87 83 183 82 319 0 300 -137 465 -440 530 -89 19 -140 22 -504 27 -223
3 -408 2 -412 -3z m817 -405 c68 -35 90 -75 90 -164 -1 -154 -70 -195 -332
-195 l-133 0 0 196 0 196 163 -4 c151 -3 167 -5 212 -29z"/>
<path d="M10527 6243 c-4 -3 -7 -388 -7 -855 l0 -848 630 0 630 0 0 185 0 185
-400 0 -401 0 3 158 3 157 268 3 267 2 -2 178 -3 177 -267 3 -268 2 0 135 0
135 378 2 377 3 0 190 0 190 -601 3 c-330 1 -604 -1 -607 -5z"/>
<path d="M12057 6243 c-4 -3 -7 -388 -7 -855 l0 -848 230 0 230 0 0 270 0 270
83 0 c128 0 345 19 417 36 155 38 289 131 348 242 84 157 92 389 21 577 -17
46 -38 76 -93 130 -155 153 -313 185 -927 185 -163 0 -299 -3 -302 -7z m816
-403 c67 -32 98 -81 104 -165 9 -111 -33 -186 -127 -221 -32 -12 -88 -18 -192
-22 l-148 -4 0 222 0 222 158 -4 c140 -4 162 -7 205 -28z"/>
</g>
</svg>
