<?xml version="1.0" standalone="no"?>
<!DOCTYPE svg PUBLIC "-//W3C//DTD SVG 20010904//EN"
 "http://www.w3.org/TR/2001/REC-SVG-20010904/DTD/svg10.dtd">
<svg version="1.0" xmlns="http://www.w3.org/2000/svg"
 width="2048.000000pt" height="2048.000000pt" viewBox="0 0 2048.000000 2048.000000"
 preserveAspectRatio="xMidYMid meet">

<g transform="translate(0.000000,2048.000000) scale(0.100000,-0.100000)"
fill="#000000" stroke="none">
<path d="M4145 17529 c-209 -34 -387 -208 -424 -413 -15 -84 -16 -13667 0
-13752 27 -148 142 -301 274 -364 136 -65 -342 -60 5767 -58 5405 3 5564 4
5613 22 105 39 142 62 212 132 55 54 82 91 110 150 l38 79 3 766 2 767 318 5
c343 5 379 10 486 63 81 40 146 101 187 176 l34 63 0 1235 0 1235 -34 63 c-40
74 -106 136 -184 175 -108 52 -156 59 -495 64 l-312 5 2 377 3 376 335 5 c369
6 370 6 496 76 71 39 122 91 161 166 l28 53 0 1235 0 1235 -28 53 c-57 108
-136 171 -272 218 -80 28 -81 28 -402 32 l-323 4 0 383 0 383 318 5 c257 4
328 8 377 22 143 40 238 110 296 217 l34 63 0 1235 0 1235 -27 52 c-37 70 -81
118 -142 157 -129 80 -165 87 -538 93 l-318 5 -2 767 -3 766 -37 79 c-28 57
-56 96 -105 146 -69 68 -112 95 -213 134 l-55 21 -5565 1 c-3061 1 -5587 -2
-5615 -7z m11085 -7289 l0 -6790 -5502 2 -5503 3 -3 6775 c-1 3726 0 6781 3
6788 3 9 1114 12 5505 12 l5500 0 0 -6790z m1030 3840 l0 -1020 -260 0 -260 0
0 1020 0 1020 260 0 260 0 0 -1020z m-2 -3848 l2 -1022 -257 2 -258 3 -3 1010
c-1 556 0 1016 3 1023 3 10 60 12 257 10 l253 -3 3 -1023z m2 -3832 l0 -1020
-260 0 -260 0 0 1020 0 1020 260 0 260 0 0 -1020z"/>
<path d="M9158 13671 c-82 -26 -142 -65 -209 -133 -66 -67 -123 -173 -139
-257 -15 -78 -14 -4937 1 -5017 17 -93 63 -178 138 -254 81 -82 135 -114 236
-140 73 -19 111 -20 545 -20 434 0 472 1 545 20 96 25 149 55 224 128 69 68
103 119 133 204 l23 63 3 2472 c3 2719 6 2549 -58 2679 -33 68 -129 171 -194
209 -22 13 -69 33 -103 44 -60 20 -82 21 -575 20 -468 0 -518 -2 -570 -18z
m982 -2901 l0 -2410 -412 2 -413 3 -3 2408 -2 2407 415 0 415 0 0 -2410z"/>
<path d="M11690 12591 c-81 -26 -128 -53 -191 -110 -67 -59 -112 -127 -148
-219 l-26 -67 -3 -1895 c-2 -1215 1 -1927 7 -1985 25 -222 187 -406 398 -450
99 -21 957 -21 1056 0 91 19 174 65 246 136 71 70 102 121 130 213 l21 68 0
1947 c0 2124 3 1996 -56 2114 -33 64 -146 178 -211 210 -111 57 -115 57 -662
56 -457 0 -511 -2 -561 -18z m978 -2358 l-3 -1868 -412 -3 -413 -2 0 1870 0
1870 415 0 415 0 -2 -1867z"/>
<path d="M6657 11019 c-130 -31 -269 -145 -332 -274 -55 -112 -55 -98 -55
-1290 0 -680 4 -1127 10 -1170 15 -103 65 -200 143 -278 80 -81 133 -112 232
-137 73 -19 111 -20 540 -20 287 0 483 4 520 11 188 35 351 187 399 374 14 52
16 202 16 1202 0 798 -3 1158 -11 1195 -35 166 -183 327 -348 378 -59 19 -93
20 -570 19 -278 -1 -523 -5 -544 -10z m963 -1574 l0 -1075 -417 0 -418 0 3
1075 2 1075 415 0 415 0 0 -1075z"/>
<path d="M6483 7290 c-109 -22 -177 -90 -203 -204 -22 -101 34 -219 129 -268
l53 -28 3267 0 c3152 0 3267 1 3306 19 56 26 92 62 120 123 61 131 1 285 -134
347 -33 15 -308 16 -3266 17 -1777 1 -3249 -2 -3272 -6z"/>
</g>
</svg>
