<svg width="177" height="178" viewBox="0 0 177 178" fill="none" xmlns="http://www.w3.org/2000/svg">
<path d="M161.962 0.671875H15.0382C6.73285 0.671875 0 7.40472 0 15.7101V162.634C0 170.939 6.73285 177.672 15.0382 177.672H161.962C170.267 177.672 177 170.939 177 162.634V15.7101C177 7.40472 170.267 0.671875 161.962 0.671875Z" fill="#404860"/>
<mask id="mask0_5010_18188" style="mask-type:luminance" maskUnits="userSpaceOnUse" x="30" y="41" width="117" height="101">
<path d="M114.892 41.0938C95.132 41.0938 88.4851 58.6283 88.4851 58.6283C88.4851 58.6283 81.8382 41.0938 62.0779 41.0938C42.3177 41.0938 30.4375 59.9216 30.4375 75.4411C30.4375 101.427 88.4851 141.068 88.4851 141.068C88.4851 141.068 146.533 101.457 146.533 75.4411C146.533 59.9216 134.652 41.0938 114.892 41.0938Z" fill="white"/>
</mask>
<g mask="url(#mask0_5010_18188)">
<path d="M88.4859 12.4023H23.25V163.898H88.4859V12.4023Z" fill="#AA95C7"/>
<path d="M88.4857 12.4023H55.8828V163.898H88.4857V12.4023Z" fill="#B6A9D3"/>
<path d="M145.42 27.0349L113.469 12.4336L54.1257 142.289L86.0768 156.891L145.42 27.0349Z" fill="#ADDEDE"/>
<path d="M176.971 40.9045L144.938 26.2656L85.382 156.586L117.415 171.225L176.971 40.9045Z" fill="#81CDBF"/>
<path d="M94.6169 12.5533L50.9375 30.4141L108.276 170.639L151.956 152.778L94.6169 12.5533Z" fill="#696094"/>
<path d="M73.2225 21.3088L50.1719 30.7344L107.511 170.959L130.562 161.534L73.2225 21.3088Z" fill="#625687"/>
</g>
</svg>
